SplineFontDB: 3.2
FontName: AurebeshVectors-Halfdot
FullName: Aurebesh Vectors Halfdot
FamilyName: Aurebesh Vectors
Weight: Book
Copyright: CC-0 public domain
Version: 1.0
ItalicAngle: 0
UnderlinePosition: 52
UnderlineWidth: 35
Ascent: 1000
Descent: 0
InvalidEm: 0
sfntRevision: 0x00010000
LayerCount: 2
Layer: 0 1 "Back" 1
Layer: 1 1 "Fore" 0
XUID: [1021 178 1911899458 6233]
StyleMap: 0x0040
FSType: 4
OS2Version: 2
OS2_WeightWidthSlopeOnly: 0
OS2_UseTypoMetrics: 0
CreationTime: 1594234261
ModificationTime: 1594234862
PfmFamily: 81
TTFWeight: 400
TTFWidth: 5
LineGap: 0
VLineGap: 0
Panose: 0 0 4 0 0 0 0 0 0 0
OS2TypoAscent: 714
OS2TypoAOffset: 0
OS2TypoDescent: 0
OS2TypoDOffset: 0
OS2TypoLinegap: 0
OS2WinAscent: 1286
OS2WinAOffset: 0
OS2WinDescent: 0
OS2WinDOffset: 0
HheadAscent: 1286
HheadAOffset: 0
HheadDescent: 0
HheadDOffset: 0
OS2SubXSize: 357
OS2SubYSize: 357
OS2SubXOff: 0
OS2SubYOff: 0
OS2SupXSize: 357
OS2SupYSize: 357
OS2SupXOff: 0
OS2SupYOff: 357
OS2StrikeYSize: 36
OS2StrikeYPos: 143
OS2CapHeight: 1000
OS2XHeight: 714
OS2Vendor: 'FSTR'
OS2CodePages: 00000001.00000000
OS2UnicodeRanges: 80000001.00000000.00000000.00000000
MarkAttachClasses: 1
DEI: 91125
ShortTable: maxp 16
  1
  0
  83
  307
  18
  0
  0
  2
  0
  0
  0
  0
  0
  0
  0
  0
EndShort
LangName: 1033 "" "" "" "AurebeshVectors:Halfdot" "" "Version 1.0" "" "" "" "" "" "" "" "Creative Commons CC0 Public Domain Dedication" "http://creativecommons.org/publicdomain/zero/1.0/"
Encoding: UnicodeBmp
UnicodeInterp: none
NameList: AGL For New Fonts
DisplaySize: -72
AntiAlias: 1
FitToEm: 0
WinInfo: 0 25 10
BeginPrivate: 0
EndPrivate
BeginChars: 65539 82

StartChar: .notdef
Encoding: 65536 -1 0
Width: 691
VWidth: 714
Flags: W
LayerCount: 2
Fore
SplineSet
525 17 m 1,0,-1
 274 350 l 1,1,-1
 24 17 l 1,2,-1
 525 17 l 1,0,-1
17 24 m 1,3,-1
 268 357 l 1,4,-1
 17 690 l 1,5,-1
 17 24 l 1,6,-1
 17 24 l 1,3,-1
532 24 m 1,7,-1
 532 690 l 1,8,-1
 281 357 l 1,9,-1
 532 24 l 1,10,-1
 532 24 l 1,7,-1
274 364 m 1,11,-1
 525 697 l 1,12,-1
 24 697 l 1,13,-1
 274 364 l 1,14,-1
 274 364 l 1,11,-1
0 0 m 1,15,-1
 0 714 l 1,16,-1
 549 714 l 1,17,-1
 549 0 l 1,18,-1
 0 0 l 1,15,-1
EndSplineSet
Validated: 5
EndChar

StartChar: exclam
Encoding: 33 33 4
Width: 999
VWidth: 714
Flags: W
LayerCount: 2
Fore
SplineSet
214 143 m 2,0,1
 184 143 184 143 164 164 c 256,2,3
 143 185 143 185 143 214 c 256,4,5
 143 244 143 244 164 265 c 256,6,7
 185 286 185 286 214 286 c 2,8,-1
 357 286 l 2,9,10
 386 286 386 286 407 265 c 256,11,12
 428 244 428 244 429 214 c 256,13,14
 429 184 429 184 407 164 c 256,15,16
 386 143 386 143 357 143 c 2,17,-1
 214 143 l 2,0,1
500 286 m 2,18,19
 470 286 470 286 449 306 c 256,20,21
 428 327 428 327 429 357 c 0,22,23
 429 386 429 386 449 407 c 256,24,25
 470 428 470 428 500 429 c 2,26,-1
 643 429 l 2,27,28
 672 429 672 429 694 407 c 0,29,30
 715 386 715 386 714 357 c 0,31,32
 714 327 714 327 694 306 c 0,33,34
 673 285 673 285 643 286 c 2,35,-1
 500 286 l 2,18,19
214 571 m 2,36,37
 184 571 184 571 164 592 c 256,38,39
 143 613 143 613 143 643 c 0,40,41
 143 672 143 672 164 694 c 0,42,43
 185 715 185 715 214 714 c 2,44,-1
 357 714 l 2,45,46
 386 714 386 714 407 694 c 0,47,48
 428 673 428 673 429 643 c 0,49,50
 429 613 429 613 407 592 c 256,51,52
 386 571 386 571 357 571 c 2,53,-1
 214 571 l 2,36,37
500 714 m 2,54,55
 470 714 470 714 449 735 c 0,56,57
 428 756 428 756 429 786 c 0,58,59
 429 816 429 816 449 836 c 256,60,61
 470 857 470 857 500 857 c 2,62,-1
 643 857 l 2,63,64
 672 857 672 857 694 836 c 0,65,66
 715 815 715 815 714 786 c 0,67,68
 714 757 714 757 694 735 c 0,69,70
 673 714 673 714 643 714 c 2,71,-1
 500 714 l 2,54,55
EndSplineSet
Validated: 33
EndChar

StartChar: quotedbl
Encoding: 34 34 5
Width: 999
VWidth: 714
Flags: W
LayerCount: 2
Fore
SplineSet
357 571 m 2,0,1
 327 571 327 571 306 592 c 256,2,3
 285 613 285 613 286 643 c 0,4,5
 286 672 286 672 306 694 c 0,6,7
 327 715 327 715 357 714 c 2,8,-1
 500 714 l 2,9,10
 530 714 530 714 551 694 c 0,11,12
 572 673 572 673 571 643 c 0,13,14
 571 613 571 613 551 592 c 256,15,16
 530 571 530 571 500 571 c 2,17,-1
 357 571 l 2,0,1
214 714 m 1,18,19
 184 714 184 714 164 735 c 0,20,21
 143 756 143 756 143 786 c 0,22,23
 143 816 143 816 164 836 c 256,24,25
 185 857 185 857 214 857 c 256,26,27
 244 857 244 857 265 836 c 256,28,29
 286 815 286 815 286 786 c 0,30,31
 286 757 286 757 265 735 c 0,32,33
 244 714 244 714 214 714 c 1,34,-1
 214 714 l 1,18,19
643 714 m 1,35,36
 613 714 613 714 592 735 c 0,37,38
 571 756 571 756 571 786 c 0,39,40
 571 816 571 816 592 836 c 256,41,42
 613 857 613 857 643 857 c 0,43,44
 672 857 672 857 694 836 c 0,45,46
 715 815 715 815 714 786 c 0,47,48
 714 757 714 757 694 735 c 0,49,50
 673 714 673 714 643 714 c 1,51,-1
 643 714 l 1,35,36
214 857 m 1,52,53
 184 857 184 857 164 878 c 256,54,55
 143 899 143 899 143 929 c 256,56,57
 143 959 143 959 164 979 c 256,58,59
 185 1000 185 1000 214 1000 c 256,60,61
 244 1000 244 1000 265 979 c 256,62,63
 286 958 286 958 286 929 c 256,64,65
 286 899 286 899 265 878 c 256,66,67
 244 857 244 857 214 857 c 1,68,-1
 214 857 l 1,52,53
643 857 m 1,69,70
 613 857 613 857 592 878 c 256,71,72
 571 899 571 899 571 929 c 256,73,74
 571 959 571 959 592 979 c 256,75,76
 613 1000 613 1000 643 1000 c 0,77,78
 672 1000 672 1000 694 979 c 0,79,80
 715 958 715 958 714 929 c 256,81,82
 714 899 714 899 694 878 c 0,83,84
 673 857 673 857 643 857 c 1,85,-1
 643 857 l 1,69,70
EndSplineSet
Validated: 37
EndChar

StartChar: dollar
Encoding: 36 36 6
Width: 999
VWidth: 714
Flags: W
LayerCount: 2
Fore
SplineSet
500 143 m 1,0,1
 470 143 470 143 449 164 c 256,2,3
 428 185 428 185 429 214 c 256,4,5
 429 244 429 244 449 265 c 256,6,7
 470 286 470 286 500 286 c 256,8,9
 530 286 530 286 551 265 c 256,10,11
 572 244 572 244 571 214 c 256,12,13
 571 184 571 184 551 164 c 256,14,15
 530 143 530 143 500 143 c 1,16,-1
 500 143 l 1,0,1
500 286 m 1,17,18
 470 286 470 286 449 306 c 256,19,20
 428 327 428 327 429 357 c 0,21,22
 429 386 429 386 449 407 c 256,23,24
 470 428 470 428 500 429 c 256,25,26
 530 429 530 429 551 407 c 256,27,28
 572 386 572 386 571 357 c 0,29,30
 571 327 571 327 551 306 c 256,31,32
 530 285 530 285 500 286 c 1,33,-1
 500 286 l 1,17,18
643 429 m 1,34,35
 613 429 613 429 592 449 c 256,36,37
 571 470 571 470 571 500 c 256,38,39
 571 530 571 530 592 551 c 256,40,41
 613 572 613 572 643 571 c 0,42,43
 672 571 672 571 694 551 c 0,44,45
 715 530 715 530 714 500 c 256,46,47
 714 470 714 470 694 449 c 0,48,49
 673 428 673 428 643 429 c 1,50,-1
 643 429 l 1,34,35
357 571 m 1,51,52
 327 571 327 571 306 592 c 256,53,54
 285 613 285 613 286 643 c 0,55,56
 286 672 286 672 306 694 c 0,57,58
 327 715 327 715 357 714 c 0,59,60
 386 714 386 714 407 694 c 0,61,62
 428 673 428 673 429 643 c 0,63,64
 429 613 429 613 407 592 c 256,65,66
 386 571 386 571 357 571 c 1,67,-1
 357 571 l 1,51,52
643 571 m 1,68,69
 613 571 613 571 592 592 c 256,70,71
 571 613 571 613 571 643 c 0,72,73
 571 672 571 672 592 694 c 0,74,75
 613 715 613 715 643 714 c 0,76,77
 672 714 672 714 694 694 c 0,78,79
 715 673 715 673 714 643 c 0,80,81
 714 613 714 613 694 592 c 0,82,83
 673 571 673 571 643 571 c 1,84,-1
 643 571 l 1,68,69
214 714 m 2,85,86
 184 714 184 714 164 735 c 0,87,88
 143 756 143 756 143 786 c 128,-1,90
 143 816 143 816 164 836 c 256,91,92
 185 857 185 857 214 857 c 2,93,-1
 786 857 l 2,94,95
 816 857 816 857 836 836 c 256,96,97
 857 815 857 815 857 786 c 128,-1,99
 857 757 857 757 836 735 c 0,100,101
 815 714 815 714 786 714 c 2,102,-1
 214 714 l 2,85,86
357 857 m 1,103,104
 327 857 327 857 306 878 c 256,105,106
 285 899 285 899 286 929 c 256,107,108
 286 959 286 959 306 979 c 256,109,110
 327 1000 327 1000 357 1000 c 4,111,112
 386 1000 386 1000 407 979 c 256,113,114
 428 958 428 958 429 929 c 256,115,116
 429 899 429 899 407 878 c 256,117,118
 386 857 386 857 357 857 c 1,119,-1
 357 857 l 1,103,104
EndSplineSet
Validated: 37
EndChar

StartChar: quotesingle
Encoding: 39 39 7
Width: 999
VWidth: 714
Flags: W
LayerCount: 2
Fore
SplineSet
500 571 m 1,0,1
 470 571 470 571 449 592 c 256,2,3
 428 613 428 613 429 643 c 0,4,5
 429 672 429 672 449 694 c 0,6,7
 470 715 470 715 500 714 c 256,8,9
 530 714 530 714 551 694 c 0,10,11
 572 673 572 673 571 643 c 0,12,13
 571 613 571 613 551 592 c 256,14,15
 530 571 530 571 500 571 c 1,16,-1
 500 571 l 1,0,1
500 714 m 1,17,18
 470 714 470 714 449 735 c 0,19,20
 428 756 428 756 429 786 c 0,21,22
 429 816 429 816 449 836 c 256,23,24
 470 857 470 857 500 857 c 256,25,26
 530 857 530 857 551 836 c 256,27,28
 572 815 572 815 571 786 c 0,29,30
 571 757 571 757 551 735 c 0,31,32
 530 714 530 714 500 714 c 1,33,-1
 500 714 l 1,17,18
357 857 m 2,34,35
 327 857 327 857 306 878 c 256,36,37
 285 899 285 899 286 929 c 256,38,39
 286 959 286 959 306 979 c 256,40,41
 327 1000 327 1000 357 1000 c 2,42,-1
 500 1000 l 2,43,44
 530 1000 530 1000 551 979 c 256,45,46
 572 958 572 958 571 929 c 256,47,48
 571 899 571 899 551 878 c 256,49,50
 530 857 530 857 500 857 c 2,51,-1
 357 857 l 2,34,35
EndSplineSet
Validated: 37
EndChar

StartChar: parenleft
Encoding: 40 40 8
Width: 999
VWidth: 714
Flags: W
LayerCount: 2
Fore
SplineSet
786 0 m 1,0,1
 757 0 757 0 735 21 c 0,2,3
 714 42 714 42 714 71 c 0,4,5
 714 101 714 101 735 121 c 0,6,7
 756 142 756 142 786 143 c 0,8,9
 816 143 816 143 836 121 c 256,10,11
 857 100 857 100 857 71 c 0,12,13
 857 42 857 42 836 21 c 0,14,15
 815 0 815 0 786 0 c 1,16,-1
 786 0 l 1,0,1
786 143 m 1,17,18
 757 143 757 143 735 164 c 0,19,20
 714 185 714 185 714 214 c 256,21,22
 714 244 714 244 735 265 c 0,23,24
 756 286 756 286 786 286 c 0,25,26
 816 286 816 286 836 265 c 256,27,28
 857 244 857 244 857 214 c 256,29,30
 857 184 857 184 836 164 c 256,31,32
 815 143 815 143 786 143 c 1,33,-1
 786 143 l 1,17,18
786 286 m 1,34,35
 757 286 757 286 735 306 c 0,36,37
 714 327 714 327 714 357 c 0,38,39
 714 386 714 386 735 407 c 0,40,41
 756 428 756 428 786 429 c 0,42,43
 816 429 816 429 836 407 c 256,44,45
 857 386 857 386 857 357 c 0,46,47
 857 327 857 327 836 306 c 256,48,49
 815 285 815 285 786 286 c 1,50,-1
 786 286 l 1,34,35
357 429 m 2,51,52
 327 429 327 429 306 449 c 256,53,54
 285 470 285 470 286 500 c 256,55,56
 286 530 286 530 306 551 c 256,57,58
 327 572 327 572 357 571 c 2,59,-1
 786 571 l 2,60,61
 816 571 816 571 836 551 c 256,62,63
 857 530 857 530 857 500 c 256,64,65
 857 470 857 470 836 449 c 256,66,67
 815 428 815 428 786 429 c 2,68,-1
 357 429 l 2,51,52
786 571 m 1,69,70
 757 571 757 571 735 592 c 0,71,72
 714 613 714 613 714 643 c 0,73,74
 714 672 714 672 735 694 c 0,75,76
 756 715 756 715 786 714 c 0,77,78
 816 714 816 714 836 694 c 0,79,80
 857 673 857 673 857 643 c 0,81,82
 857 613 857 613 836 592 c 256,83,84
 815 571 815 571 786 571 c 1,85,-1
 786 571 l 1,69,70
786 714 m 1,86,87
 757 714 757 714 735 735 c 0,88,89
 714 756 714 756 714 786 c 0,90,91
 714 816 714 816 735 836 c 0,92,93
 756 857 756 857 786 857 c 0,94,95
 816 857 816 857 836 836 c 256,96,97
 857 815 857 815 857 786 c 0,98,99
 857 757 857 757 836 735 c 0,100,101
 815 714 815 714 786 714 c 1,102,-1
 786 714 l 1,86,87
786 857 m 1,103,104
 757 857 757 857 735 878 c 0,105,106
 714 899 714 899 714 929 c 256,107,108
 714 959 714 959 735 979 c 0,109,110
 756 1000 756 1000 786 1000 c 0,111,112
 816 1000 816 1000 836 979 c 256,113,114
 857 958 857 958 857 929 c 256,115,116
 857 899 857 899 836 878 c 256,117,118
 815 857 815 857 786 857 c 1,119,-1
 786 857 l 1,103,104
EndSplineSet
Validated: 37
EndChar

StartChar: parenright
Encoding: 41 41 9
Width: 999
VWidth: 714
Flags: W
LayerCount: 2
Fore
SplineSet
71 0 m 1,0,1
 42 0 42 0 21 21 c 0,2,3
 0 42 0 42 0 71 c 0,4,5
 0 101 0 101 21 121 c 0,6,7
 42 142 42 142 71 143 c 0,8,9
 101 143 101 143 121 121 c 256,10,11
 142 100 142 100 143 71 c 0,12,13
 143 42 143 42 121 21 c 0,14,15
 100 0 100 0 71 0 c 1,16,-1
 71 0 l 1,0,1
71 143 m 1,17,18
 42 143 42 143 21 164 c 0,19,20
 0 185 0 185 0 214 c 256,21,22
 0 244 0 244 21 265 c 0,23,24
 42 286 42 286 71 286 c 0,25,26
 101 286 101 286 121 265 c 256,27,28
 142 244 142 244 143 214 c 256,29,30
 143 184 143 184 121 164 c 256,31,32
 100 143 100 143 71 143 c 1,33,-1
 71 143 l 1,17,18
71 286 m 1,34,35
 42 286 42 286 21 306 c 0,36,37
 0 327 0 327 0 357 c 0,38,39
 0 386 0 386 21 407 c 0,40,41
 42 428 42 428 71 429 c 0,42,43
 101 429 101 429 121 407 c 256,44,45
 142 386 142 386 143 357 c 0,46,47
 143 327 143 327 121 306 c 256,48,49
 100 285 100 285 71 286 c 1,50,-1
 71 286 l 1,34,35
71 429 m 2,51,52
 42 429 42 429 21 449 c 0,53,54
 0 470 0 470 0 500 c 256,55,56
 0 530 0 530 21 551 c 0,57,58
 42 572 42 572 71 571 c 2,59,-1
 500 571 l 2,60,61
 530 571 530 571 551 551 c 256,62,63
 572 530 572 530 571 500 c 256,64,65
 571 470 571 470 551 449 c 256,66,67
 530 428 530 428 500 429 c 2,68,-1
 71 429 l 2,51,52
71 571 m 1,69,70
 42 571 42 571 21 592 c 0,71,72
 0 613 0 613 0 643 c 0,73,74
 0 672 0 672 21 694 c 0,75,76
 42 715 42 715 71 714 c 0,77,78
 101 714 101 714 121 694 c 0,79,80
 142 673 142 673 143 643 c 0,81,82
 143 613 143 613 121 592 c 256,83,84
 100 571 100 571 71 571 c 1,85,-1
 71 571 l 1,69,70
71 714 m 1,86,87
 42 714 42 714 21 735 c 0,88,89
 0 756 0 756 0 786 c 0,90,91
 0 816 0 816 21 836 c 0,92,93
 42 857 42 857 71 857 c 0,94,95
 101 857 101 857 121 836 c 256,96,97
 142 815 142 815 143 786 c 0,98,99
 143 757 143 757 121 735 c 0,100,101
 100 714 100 714 71 714 c 1,102,-1
 71 714 l 1,86,87
71 857 m 1,103,104
 42 857 42 857 21 878 c 0,105,106
 0 899 0 899 0 929 c 256,107,108
 0 959 0 959 21 979 c 0,109,110
 42 1000 42 1000 71 1000 c 0,111,112
 101 1000 101 1000 121 979 c 256,113,114
 142 958 142 958 143 929 c 256,115,116
 143 899 143 899 121 878 c 256,117,118
 100 857 100 857 71 857 c 1,119,-1
 71 857 l 1,103,104
EndSplineSet
Validated: 37
EndChar

StartChar: comma
Encoding: 44 44 10
Width: 999
VWidth: 714
Flags: W
LayerCount: 2
Fore
SplineSet
357 0 m 1,0,1
 327 0 327 0 306 21 c 0,2,3
 285 42 285 42 286 71 c 0,4,5
 286 101 286 101 306 121 c 256,6,7
 327 142 327 142 357 143 c 0,8,9
 386 143 386 143 407 121 c 256,10,11
 428 100 428 100 429 71 c 0,12,13
 429 42 429 42 407 21 c 0,14,15
 386 0 386 0 357 0 c 1,16,-1
 357 0 l 1,0,1
357 143 m 1,17,18
 327 143 327 143 306 164 c 256,19,20
 285 185 285 185 286 214 c 256,21,22
 286 244 286 244 306 265 c 256,23,24
 327 286 327 286 357 286 c 0,25,26
 386 286 386 286 407 265 c 256,27,28
 428 244 428 244 429 214 c 256,29,30
 429 184 429 184 407 164 c 256,31,32
 386 143 386 143 357 143 c 1,33,-1
 357 143 l 1,17,18
EndSplineSet
Validated: 37
EndChar

StartChar: period
Encoding: 46 46 11
Width: 999
VWidth: 714
Flags: W
LayerCount: 2
Fore
SplineSet
214 0 m 1,0,1
 184 0 184 0 164 21 c 0,2,3
 143 42 143 42 143 71 c 0,4,5
 143 101 143 101 164 121 c 256,6,7
 185 142 185 142 214 143 c 256,8,9
 244 143 244 143 265 121 c 256,10,11
 286 100 286 100 286 71 c 0,12,13
 286 42 286 42 265 21 c 0,14,15
 244 0 244 0 214 0 c 1,16,-1
 214 0 l 1,0,1
500 0 m 1,17,18
 470 0 470 0 449 21 c 0,19,20
 428 42 428 42 429 71 c 0,21,22
 429 101 429 101 449 121 c 256,23,24
 470 142 470 142 500 143 c 256,25,26
 530 143 530 143 551 121 c 256,27,28
 572 100 572 100 571 71 c 0,29,30
 571 42 571 42 551 21 c 0,31,32
 530 0 530 0 500 0 c 1,33,-1
 500 0 l 1,17,18
214 143 m 1,34,35
 184 143 184 143 164 164 c 256,36,37
 143 185 143 185 143 214 c 256,38,39
 143 244 143 244 164 265 c 256,40,41
 185 286 185 286 214 286 c 256,42,43
 244 286 244 286 265 265 c 256,44,45
 286 244 286 244 286 214 c 256,46,47
 286 184 286 184 265 164 c 256,48,49
 244 143 244 143 214 143 c 1,50,-1
 214 143 l 1,34,35
500 143 m 1,51,52
 470 143 470 143 449 164 c 256,53,54
 428 185 428 185 429 214 c 256,55,56
 429 244 429 244 449 265 c 256,57,58
 470 286 470 286 500 286 c 256,59,60
 530 286 530 286 551 265 c 256,61,62
 572 244 572 244 571 214 c 256,63,64
 571 184 571 184 551 164 c 256,65,66
 530 143 530 143 500 143 c 1,67,-1
 500 143 l 1,51,52
EndSplineSet
Validated: 37
EndChar

StartChar: zero
Encoding: 48 48 12
Width: 999
VWidth: 714
Flags: W
LayerCount: 2
Fore
SplineSet
643 286 m 1,0,1
 613 286 613 286 592 306 c 256,2,3
 571 327 571 327 571 357 c 0,4,5
 571 386 571 386 592 407 c 256,6,7
 613 428 613 428 643 429 c 0,8,9
 672 429 672 429 694 407 c 0,10,11
 715 386 715 386 714 357 c 0,12,13
 714 327 714 327 694 306 c 0,14,15
 673 285 673 285 643 286 c 1,16,-1
 643 286 l 1,0,1
71 571 m 2,17,18
 42 571 42 571 21 592 c 0,19,20
 0 613 0 613 0 643 c 0,21,22
 0 672 0 672 21 694 c 0,23,24
 42 715 42 715 71 714 c 2,25,-1
 214 714 l 2,26,27
 244 714 244 714 265 694 c 0,28,29
 286 673 286 673 286 643 c 0,30,31
 286 613 286 613 265 592 c 256,32,33
 244 571 244 571 214 571 c 2,34,-1
 71 571 l 2,17,18
71 857 m 2,35,36
 42 857 42 857 21 878 c 0,37,38
 0 899 0 899 0 929 c 256,39,40
 0 959 0 959 21 979 c 0,41,42
 42 1000 42 1000 71 1000 c 2,43,-1
 214 1000 l 2,44,45
 244 1000 244 1000 265 979 c 256,46,47
 286 958 286 958 286 929 c 256,48,49
 286 899 286 899 265 878 c 256,50,51
 244 857 244 857 214 857 c 2,52,-1
 71 857 l 2,35,36
EndSplineSet
Validated: 33
EndChar

StartChar: one
Encoding: 49 49 13
Width: 999
VWidth: 714
Flags: W
LayerCount: 2
Fore
SplineSet
643 286 m 2,0,1
 613 286 613 286 592 306 c 256,2,3
 571 327 571 327 571 357 c 0,4,5
 571 386 571 386 592 407 c 256,6,7
 613 428 613 428 643 429 c 2,8,-1
 786 429 l 2,9,10
 816 429 816 429 836 407 c 256,11,12
 857 386 857 386 857 357 c 0,13,14
 857 327 857 327 836 306 c 256,15,16
 815 285 815 285 786 286 c 2,17,-1
 643 286 l 2,0,1
214 571 m 1,18,19
 184 571 184 571 164 592 c 256,20,21
 143 613 143 613 143 643 c 0,22,23
 143 672 143 672 164 694 c 0,24,25
 185 715 185 715 214 714 c 256,26,27
 244 714 244 714 265 694 c 0,28,29
 286 673 286 673 286 643 c 0,30,31
 286 613 286 613 265 592 c 256,32,33
 244 571 244 571 214 571 c 1,34,-1
 214 571 l 1,18,19
214 714 m 1,35,36
 184 714 184 714 164 735 c 0,37,38
 143 756 143 756 143 786 c 0,39,40
 143 816 143 816 164 836 c 256,41,42
 185 857 185 857 214 857 c 256,43,44
 244 857 244 857 265 836 c 256,45,46
 286 815 286 815 286 786 c 0,47,48
 286 757 286 757 265 735 c 0,49,50
 244 714 244 714 214 714 c 1,51,-1
 214 714 l 1,35,36
214 857 m 1,52,53
 184 857 184 857 164 878 c 256,54,55
 143 899 143 899 143 929 c 256,56,57
 143 959 143 959 164 979 c 256,58,59
 185 1000 185 1000 214 1000 c 256,60,61
 244 1000 244 1000 265 979 c 256,62,63
 286 958 286 958 286 929 c 256,64,65
 286 899 286 899 265 878 c 256,66,67
 244 857 244 857 214 857 c 1,68,-1
 214 857 l 1,52,53
EndSplineSet
Validated: 37
EndChar

StartChar: two
Encoding: 50 50 14
Width: 999
VWidth: 714
Flags: W
LayerCount: 2
Fore
SplineSet
786 143 m 1,0,1
 757 143 757 143 735 164 c 0,2,3
 714 185 714 185 714 214 c 256,4,5
 714 244 714 244 735 265 c 0,6,7
 756 286 756 286 786 286 c 0,8,9
 816 286 816 286 836 265 c 256,10,11
 857 244 857 244 857 214 c 256,12,13
 857 184 857 184 836 164 c 256,14,15
 815 143 815 143 786 143 c 1,16,-1
 786 143 l 1,0,1
643 286 m 2,17,18
 613 286 613 286 592 306 c 256,19,20
 571 327 571 327 571 357 c 0,21,22
 571 386 571 386 592 407 c 256,23,24
 613 428 613 428 643 429 c 2,25,-1
 786 429 l 2,26,27
 816 429 816 429 836 407 c 256,28,29
 857 386 857 386 857 357 c 0,30,31
 857 327 857 327 836 306 c 256,32,33
 815 285 815 285 786 286 c 2,34,-1
 643 286 l 2,17,18
71 571 m 2,35,36
 42 571 42 571 21 592 c 0,37,38
 0 613 0 613 0 643 c 0,39,40
 0 672 0 672 21 694 c 0,41,42
 42 715 42 715 71 714 c 2,43,-1
 214 714 l 2,44,45
 244 714 244 714 265 694 c 0,46,47
 286 673 286 673 286 643 c 0,48,49
 286 613 286 613 265 592 c 256,50,51
 244 571 244 571 214 571 c 2,52,-1
 71 571 l 2,35,36
214 714 m 1,53,54
 184 714 184 714 164 735 c 0,55,56
 143 756 143 756 143 786 c 0,57,58
 143 816 143 816 164 836 c 256,59,60
 185 857 185 857 214 857 c 256,61,62
 244 857 244 857 265 836 c 256,63,64
 286 815 286 815 286 786 c 0,65,66
 286 757 286 757 265 735 c 0,67,68
 244 714 244 714 214 714 c 1,69,-1
 214 714 l 1,53,54
71 857 m 1,70,71
 42 857 42 857 21 878 c 0,72,73
 0 899 0 899 0 929 c 256,74,75
 0 959 0 959 21 979 c 0,76,77
 42 1000 42 1000 71 1000 c 0,78,79
 101 1000 101 1000 121 979 c 256,80,81
 142 958 142 958 143 929 c 256,82,83
 143 899 143 899 121 878 c 256,84,85
 100 857 100 857 71 857 c 1,86,-1
 71 857 l 1,70,71
EndSplineSet
Validated: 37
EndChar

StartChar: three
Encoding: 51 51 15
Width: 999
VWidth: 714
Flags: W
LayerCount: 2
Fore
SplineSet
786 0 m 1,0,1
 757 0 757 0 735 21 c 0,2,3
 714 42 714 42 714 71 c 0,4,5
 714 101 714 101 735 121 c 0,6,7
 756 142 756 142 786 143 c 0,8,9
 816 143 816 143 836 121 c 256,10,11
 857 100 857 100 857 71 c 0,12,13
 857 42 857 42 836 21 c 0,14,15
 815 0 815 0 786 0 c 1,16,-1
 786 0 l 1,0,1
786 143 m 1,17,18
 757 143 757 143 735 164 c 0,19,20
 714 185 714 185 714 214 c 256,21,22
 714 244 714 244 735 265 c 0,23,24
 756 286 756 286 786 286 c 0,25,26
 816 286 816 286 836 265 c 256,27,28
 857 244 857 244 857 214 c 256,29,30
 857 184 857 184 836 164 c 256,31,32
 815 143 815 143 786 143 c 1,33,-1
 786 143 l 1,17,18
643 286 m 2,34,35
 613 286 613 286 592 306 c 256,36,37
 571 327 571 327 571 357 c 0,38,39
 571 386 571 386 592 407 c 256,40,41
 613 428 613 428 643 429 c 2,42,-1
 786 429 l 2,43,44
 816 429 816 429 836 407 c 256,45,46
 857 386 857 386 857 357 c 0,47,48
 857 327 857 327 836 306 c 256,49,50
 815 285 815 285 786 286 c 2,51,-1
 643 286 l 2,34,35
71 571 m 2,52,53
 42 571 42 571 21 592 c 0,54,55
 0 613 0 613 0 643 c 0,56,57
 0 672 0 672 21 694 c 0,58,59
 42 715 42 715 71 714 c 2,60,-1
 214 714 l 2,61,62
 244 714 244 714 265 694 c 0,63,64
 286 673 286 673 286 643 c 0,65,66
 286 613 286 613 265 592 c 256,67,68
 244 571 244 571 214 571 c 2,69,-1
 71 571 l 2,52,53
214 714 m 1,70,71
 184 714 184 714 164 735 c 0,72,73
 143 756 143 756 143 786 c 0,74,75
 143 816 143 816 164 836 c 256,76,77
 185 857 185 857 214 857 c 256,78,79
 244 857 244 857 265 836 c 256,80,81
 286 815 286 815 286 786 c 0,82,83
 286 757 286 757 265 735 c 0,84,85
 244 714 244 714 214 714 c 1,86,-1
 214 714 l 1,70,71
71 857 m 2,87,88
 42 857 42 857 21 878 c 0,89,90
 0 899 0 899 0 929 c 256,91,92
 0 959 0 959 21 979 c 0,93,94
 42 1000 42 1000 71 1000 c 2,95,-1
 214 1000 l 2,96,97
 244 1000 244 1000 265 979 c 256,98,99
 286 958 286 958 286 929 c 256,100,101
 286 899 286 899 265 878 c 256,102,103
 244 857 244 857 214 857 c 2,104,-1
 71 857 l 2,87,88
EndSplineSet
Validated: 37
EndChar

StartChar: four
Encoding: 52 52 16
Width: 999
VWidth: 714
Flags: W
LayerCount: 2
Fore
SplineSet
643 143 m 1,0,1
 613 143 613 143 592 164 c 256,2,3
 571 185 571 185 571 214 c 256,4,5
 571 244 571 244 592 265 c 256,6,7
 613 286 613 286 643 286 c 0,8,9
 672 286 672 286 694 265 c 0,10,11
 715 244 715 244 714 214 c 256,12,13
 714 184 714 184 694 164 c 0,14,15
 673 143 673 143 643 143 c 1,16,-1
 643 143 l 1,0,1
643 286 m 2,17,18
 613 286 613 286 592 306 c 256,19,20
 571 327 571 327 571 357 c 0,21,22
 571 386 571 386 592 407 c 256,23,24
 613 428 613 428 643 429 c 2,25,-1
 786 429 l 2,26,27
 816 429 816 429 836 407 c 256,28,29
 857 386 857 386 857 357 c 0,30,31
 857 327 857 327 836 306 c 256,32,33
 815 285 815 285 786 286 c 2,34,-1
 643 286 l 2,17,18
214 571 m 1,35,36
 184 571 184 571 164 592 c 256,37,38
 143 613 143 613 143 643 c 0,39,40
 143 672 143 672 164 694 c 0,41,42
 185 715 185 715 214 714 c 256,43,44
 244 714 244 714 265 694 c 0,45,46
 286 673 286 673 286 643 c 0,47,48
 286 613 286 613 265 592 c 256,49,50
 244 571 244 571 214 571 c 1,51,-1
 214 571 l 1,35,36
71 714 m 2,52,53
 42 714 42 714 21 735 c 0,54,55
 0 756 0 756 0 786 c 0,56,57
 0 816 0 816 21 836 c 0,58,59
 42 857 42 857 71 857 c 2,60,-1
 214 857 l 2,61,62
 244 857 244 857 265 836 c 256,63,64
 286 815 286 815 286 786 c 0,65,66
 286 757 286 757 265 735 c 0,67,68
 244 714 244 714 214 714 c 2,69,-1
 71 714 l 2,52,53
71 857 m 1,70,71
 42 857 42 857 21 878 c 0,72,73
 0 899 0 899 0 929 c 256,74,75
 0 959 0 959 21 979 c 0,76,77
 42 1000 42 1000 71 1000 c 0,78,79
 101 1000 101 1000 121 979 c 256,80,81
 142 958 142 958 143 929 c 256,82,83
 143 899 143 899 121 878 c 256,84,85
 100 857 100 857 71 857 c 1,86,-1
 71 857 l 1,70,71
EndSplineSet
Validated: 37
EndChar

StartChar: five
Encoding: 53 53 17
Width: 999
VWidth: 714
Flags: W
LayerCount: 2
Fore
SplineSet
643 143 m 2,0,1
 613 143 613 143 592 164 c 256,2,3
 571 185 571 185 571 214 c 256,4,5
 571 244 571 244 592 265 c 256,6,7
 613 286 613 286 643 286 c 1,8,9
 613 286 613 286 592 306 c 256,10,11
 571 327 571 327 571 357 c 0,12,13
 571 386 571 386 592 407 c 256,14,15
 613 428 613 428 643 429 c 2,16,-1
 786 429 l 2,17,18
 816 429 816 429 836 407 c 256,19,20
 857 386 857 386 857 357 c 0,21,22
 857 327 857 327 836 306 c 256,23,24
 815 285 815 285 786 286 c 1,25,26
 816 286 816 286 836 265 c 256,27,28
 857 244 857 244 857 214 c 256,29,30
 857 184 857 184 836 164 c 256,31,32
 815 143 815 143 786 143 c 2,33,-1
 643 143 l 2,0,1
214 571 m 1,34,35
 184 571 184 571 164 592 c 256,36,37
 143 613 143 613 143 643 c 0,38,39
 143 672 143 672 164 694 c 0,40,41
 185 715 185 715 214 714 c 256,42,43
 244 714 244 714 265 694 c 0,44,45
 286 673 286 673 286 643 c 0,46,47
 286 613 286 613 265 592 c 256,48,49
 244 571 244 571 214 571 c 1,50,-1
 214 571 l 1,34,35
71 714 m 1,51,52
 42 714 42 714 21 735 c 0,53,54
 0 756 0 756 0 786 c 0,55,56
 0 816 0 816 21 836 c 0,57,58
 42 857 42 857 71 857 c 0,59,60
 101 857 101 857 121 836 c 256,61,62
 142 815 142 815 143 786 c 0,63,64
 143 757 143 757 121 735 c 0,65,66
 100 714 100 714 71 714 c 1,67,-1
 71 714 l 1,51,52
71 857 m 2,68,69
 42 857 42 857 21 878 c 0,70,71
 0 899 0 899 0 929 c 256,72,73
 0 959 0 959 21 979 c 0,74,75
 42 1000 42 1000 71 1000 c 2,76,-1
 214 1000 l 2,77,78
 244 1000 244 1000 265 979 c 256,79,80
 286 958 286 958 286 929 c 256,81,82
 286 899 286 899 265 878 c 256,83,84
 244 857 244 857 214 857 c 2,85,-1
 71 857 l 2,68,69
EndSplineSet
Validated: 37
EndChar

StartChar: six
Encoding: 54 54 18
Width: 999
VWidth: 714
Flags: W
LayerCount: 2
Fore
SplineSet
786 0 m 1,0,1
 757 0 757 0 735 21 c 0,2,3
 714 42 714 42 714 71 c 0,4,5
 714 101 714 101 735 121 c 0,6,7
 756 142 756 142 786 143 c 0,8,9
 816 143 816 143 836 121 c 256,10,11
 857 100 857 100 857 71 c 0,12,13
 857 42 857 42 836 21 c 0,14,15
 815 0 815 0 786 0 c 1,16,-1
 786 0 l 1,0,1
643 143 m 2,17,18
 613 143 613 143 592 164 c 256,19,20
 571 185 571 185 571 214 c 256,21,22
 571 244 571 244 592 265 c 256,23,24
 613 286 613 286 643 286 c 1,25,26
 613 286 613 286 592 306 c 256,27,28
 571 327 571 327 571 357 c 0,29,30
 571 386 571 386 592 407 c 256,31,32
 613 428 613 428 643 429 c 2,33,-1
 786 429 l 2,34,35
 816 429 816 429 836 407 c 256,36,37
 857 386 857 386 857 357 c 0,38,39
 857 327 857 327 836 306 c 256,40,41
 815 285 815 285 786 286 c 1,42,43
 816 286 816 286 836 265 c 256,44,45
 857 244 857 244 857 214 c 256,46,47
 857 184 857 184 836 164 c 256,48,49
 815 143 815 143 786 143 c 2,50,-1
 643 143 l 2,17,18
71 571 m 2,51,52
 42 571 42 571 21 592 c 0,53,54
 0 613 0 613 0 643 c 0,55,56
 0 672 0 672 21 694 c 0,57,58
 42 715 42 715 71 714 c 1,59,60
 42 714 42 714 21 735 c 0,61,62
 0 756 0 756 0 786 c 0,63,64
 0 816 0 816 21 836 c 0,65,66
 42 857 42 857 71 857 c 2,67,-1
 214 857 l 2,68,69
 244 857 244 857 265 836 c 256,70,71
 286 815 286 815 286 786 c 0,72,73
 286 757 286 757 265 735 c 0,74,75
 244 714 244 714 214 714 c 1,76,77
 244 714 244 714 265 694 c 0,78,79
 286 673 286 673 286 643 c 0,80,81
 286 613 286 613 265 592 c 256,82,83
 244 571 244 571 214 571 c 2,84,-1
 71 571 l 2,51,52
71 857 m 1,85,86
 42 857 42 857 21 878 c 0,87,88
 0 899 0 899 0 929 c 256,89,90
 0 959 0 959 21 979 c 0,91,92
 42 1000 42 1000 71 1000 c 0,93,94
 101 1000 101 1000 121 979 c 256,95,96
 142 958 142 958 143 929 c 256,97,98
 143 899 143 899 121 878 c 256,99,100
 100 857 100 857 71 857 c 1,101,-1
 71 857 l 1,85,86
EndSplineSet
Validated: 37
EndChar

StartChar: seven
Encoding: 55 55 19
Width: 999
VWidth: 714
Flags: W
LayerCount: 2
Fore
SplineSet
643 0 m 1,0,1
 613 0 613 0 592 21 c 0,2,3
 571 42 571 42 571 71 c 0,4,5
 571 101 571 101 592 121 c 256,6,7
 613 142 613 142 643 143 c 0,8,9
 672 143 672 143 694 121 c 0,10,11
 715 100 715 100 714 71 c 0,12,13
 714 42 714 42 694 21 c 0,14,15
 673 0 673 0 643 0 c 1,16,-1
 643 0 l 1,0,1
643 143 m 1,17,18
 613 143 613 143 592 164 c 256,19,20
 571 185 571 185 571 214 c 256,21,22
 571 244 571 244 592 265 c 256,23,24
 613 286 613 286 643 286 c 0,25,26
 672 286 672 286 694 265 c 0,27,28
 715 244 715 244 714 214 c 256,29,30
 714 184 714 184 694 164 c 0,31,32
 673 143 673 143 643 143 c 1,33,-1
 643 143 l 1,17,18
643 286 m 2,34,35
 613 286 613 286 592 306 c 256,36,37
 571 327 571 327 571 357 c 0,38,39
 571 386 571 386 592 407 c 256,40,41
 613 428 613 428 643 429 c 2,42,-1
 786 429 l 2,43,44
 816 429 816 429 836 407 c 256,45,46
 857 386 857 386 857 357 c 0,47,48
 857 327 857 327 836 306 c 256,49,50
 815 285 815 285 786 286 c 2,51,-1
 643 286 l 2,34,35
71 571 m 1,52,53
 42 571 42 571 21 592 c 0,54,55
 0 613 0 613 0 643 c 0,56,57
 0 672 0 672 21 694 c 0,58,59
 42 715 42 715 71 714 c 0,60,61
 101 714 101 714 121 694 c 0,62,63
 142 673 142 673 143 643 c 0,64,65
 143 613 143 613 121 592 c 256,66,67
 100 571 100 571 71 571 c 1,68,-1
 71 571 l 1,52,53
214 714 m 1,69,70
 184 714 184 714 164 735 c 0,71,72
 143 756 143 756 143 786 c 0,73,74
 143 816 143 816 164 836 c 256,75,76
 185 857 185 857 214 857 c 256,77,78
 244 857 244 857 265 836 c 256,79,80
 286 815 286 815 286 786 c 0,81,82
 286 757 286 757 265 735 c 0,83,84
 244 714 244 714 214 714 c 1,85,-1
 214 714 l 1,69,70
71 857 m 2,86,87
 42 857 42 857 21 878 c 0,88,89
 0 899 0 899 0 929 c 256,90,91
 0 959 0 959 21 979 c 0,92,93
 42 1000 42 1000 71 1000 c 2,94,-1
 214 1000 l 2,95,96
 244 1000 244 1000 265 979 c 256,97,98
 286 958 286 958 286 929 c 256,99,100
 286 899 286 899 265 878 c 256,101,102
 244 857 244 857 214 857 c 2,103,-1
 71 857 l 2,86,87
EndSplineSet
Validated: 37
EndChar

StartChar: eight
Encoding: 56 56 20
Width: 999
VWidth: 714
Flags: W
LayerCount: 2
Fore
SplineSet
643 0 m 1,0,1
 613 0 613 0 592 21 c 0,2,3
 571 42 571 42 571 71 c 0,4,5
 571 101 571 101 592 121 c 256,6,7
 613 142 613 142 643 143 c 0,8,9
 672 143 672 143 694 121 c 0,10,11
 715 100 715 100 714 71 c 0,12,13
 714 42 714 42 694 21 c 0,14,15
 673 0 673 0 643 0 c 1,16,-1
 643 0 l 1,0,1
643 143 m 2,17,18
 613 143 613 143 592 164 c 256,19,20
 571 185 571 185 571 214 c 256,21,22
 571 244 571 244 592 265 c 256,23,24
 613 286 613 286 643 286 c 1,25,26
 613 286 613 286 592 306 c 256,27,28
 571 327 571 327 571 357 c 0,29,30
 571 386 571 386 592 407 c 256,31,32
 613 428 613 428 643 429 c 2,33,-1
 786 429 l 2,34,35
 816 429 816 429 836 407 c 256,36,37
 857 386 857 386 857 357 c 0,38,39
 857 327 857 327 836 306 c 256,40,41
 815 285 815 285 786 286 c 1,42,43
 816 286 816 286 836 265 c 256,44,45
 857 244 857 244 857 214 c 256,46,47
 857 184 857 184 836 164 c 256,48,49
 815 143 815 143 786 143 c 2,50,-1
 643 143 l 2,17,18
71 571 m 2,51,52
 42 571 42 571 21 592 c 0,53,54
 0 613 0 613 0 643 c 0,55,56
 0 672 0 672 21 694 c 0,57,58
 42 715 42 715 71 714 c 1,59,60
 42 714 42 714 21 735 c 0,61,62
 0 756 0 756 0 786 c 0,63,64
 0 816 0 816 21 836 c 0,65,66
 42 857 42 857 71 857 c 1,67,68
 42 857 42 857 21 878 c 0,69,70
 0 899 0 899 0 929 c 256,71,72
 0 959 0 959 21 979 c 0,73,74
 42 1000 42 1000 71 1000 c 2,75,-1
 214 1000 l 2,76,77
 244 1000 244 1000 265 979 c 256,78,79
 286 958 286 958 286 929 c 256,80,81
 286 899 286 899 265 878 c 256,82,83
 244 857 244 857 214 857 c 1,84,85
 244 857 244 857 265 836 c 256,86,87
 286 815 286 815 286 786 c 0,88,89
 286 757 286 757 265 735 c 0,90,91
 244 714 244 714 214 714 c 1,92,93
 244 714 244 714 265 694 c 0,94,95
 286 673 286 673 286 643 c 0,96,97
 286 613 286 613 265 592 c 256,98,99
 244 571 244 571 214 571 c 2,100,-1
 71 571 l 2,51,52
EndSplineSet
Validated: 37
EndChar

StartChar: nine
Encoding: 57 57 21
Width: 999
VWidth: 714
Flags: W
LayerCount: 2
Fore
SplineSet
643 0 m 2,0,1
 613 0 613 0 592 21 c 0,2,3
 571 42 571 42 571 71 c 0,4,5
 571 101 571 101 592 121 c 256,6,7
 613 142 613 142 643 143 c 1,8,9
 613 143 613 143 592 164 c 256,10,11
 571 185 571 185 571 214 c 256,12,13
 571 244 571 244 592 265 c 256,14,15
 613 286 613 286 643 286 c 1,16,17
 613 286 613 286 592 306 c 256,18,19
 571 327 571 327 571 357 c 0,20,21
 571 386 571 386 592 407 c 256,22,23
 613 428 613 428 643 429 c 2,24,-1
 786 429 l 2,25,26
 816 429 816 429 836 407 c 256,27,28
 857 386 857 386 857 357 c 0,29,30
 857 327 857 327 836 306 c 256,31,32
 815 285 815 285 786 286 c 1,33,34
 816 286 816 286 836 265 c 256,35,36
 857 244 857 244 857 214 c 256,37,38
 857 184 857 184 836 164 c 256,39,40
 815 143 815 143 786 143 c 1,41,42
 816 143 816 143 836 121 c 256,43,44
 857 100 857 100 857 71 c 0,45,46
 857 42 857 42 836 21 c 0,47,48
 815 0 815 0 786 0 c 2,49,-1
 643 0 l 2,0,1
214 571 m 1,50,51
 184 571 184 571 164 592 c 256,52,53
 143 613 143 613 143 643 c 0,54,55
 143 672 143 672 164 694 c 0,56,57
 185 715 185 715 214 714 c 256,58,59
 244 714 244 714 265 694 c 0,60,61
 286 673 286 673 286 643 c 0,62,63
 286 613 286 613 265 592 c 256,64,65
 244 571 244 571 214 571 c 1,66,-1
 214 571 l 1,50,51
71 714 m 2,67,68
 42 714 42 714 21 735 c 0,69,70
 0 756 0 756 0 786 c 0,71,72
 0 816 0 816 21 836 c 0,73,74
 42 857 42 857 71 857 c 1,75,76
 42 857 42 857 21 878 c 0,77,78
 0 899 0 899 0 929 c 256,79,80
 0 959 0 959 21 979 c 0,81,82
 42 1000 42 1000 71 1000 c 2,83,-1
 214 1000 l 2,84,85
 244 1000 244 1000 265 979 c 256,86,87
 286 958 286 958 286 929 c 256,88,89
 286 899 286 899 265 878 c 256,90,91
 244 857 244 857 214 857 c 1,92,93
 244 857 244 857 265 836 c 256,94,95
 286 815 286 815 286 786 c 0,96,97
 286 757 286 757 265 735 c 0,98,99
 244 714 244 714 214 714 c 2,100,-1
 71 714 l 2,67,68
EndSplineSet
Validated: 37
EndChar

StartChar: colon
Encoding: 58 58 22
Width: 999
VWidth: 714
Flags: W
LayerCount: 2
Fore
SplineSet
71 0 m 2,0,1
 42 0 42 0 21 21 c 0,2,3
 0 42 0 42 0 71 c 0,4,5
 0 101 0 101 21 121 c 0,6,7
 42 142 42 142 71 143 c 2,8,-1
 643 143 l 2,9,10
 672 143 672 143 694 121 c 0,11,12
 715 100 715 100 714 71 c 0,13,14
 714 42 714 42 694 21 c 0,15,16
 673 0 673 0 643 0 c 2,17,-1
 71 0 l 2,0,1
500 143 m 1,18,19
 470 143 470 143 449 164 c 256,20,21
 428 185 428 185 429 214 c 256,22,23
 429 244 429 244 449 265 c 256,24,25
 470 286 470 286 500 286 c 256,26,27
 530 286 530 286 551 265 c 256,28,29
 572 244 572 244 571 214 c 256,30,31
 571 184 571 184 551 164 c 256,32,33
 530 143 530 143 500 143 c 1,34,-1
 500 143 l 1,18,19
357 286 m 1,35,36
 327 286 327 286 306 306 c 256,37,38
 285 327 285 327 286 357 c 0,39,40
 286 386 286 386 306 407 c 256,41,42
 327 428 327 428 357 429 c 0,43,44
 386 429 386 429 407 407 c 256,45,46
 428 386 428 386 429 357 c 0,47,48
 429 327 429 327 407 306 c 256,49,50
 386 285 386 285 357 286 c 1,51,-1
 357 286 l 1,35,36
214 429 m 1,52,53
 184 429 184 429 164 449 c 256,54,55
 143 470 143 470 143 500 c 256,56,57
 143 530 143 530 164 551 c 256,58,59
 185 572 185 572 214 571 c 256,60,61
 244 571 244 571 265 551 c 256,62,63
 286 530 286 530 286 500 c 256,64,65
 286 470 286 470 265 449 c 256,66,67
 244 428 244 428 214 429 c 1,68,-1
 214 429 l 1,52,53
71 571 m 1,69,70
 42 571 42 571 21 592 c 0,71,72
 0 613 0 613 0 643 c 0,73,74
 0 672 0 672 21 694 c 0,75,76
 42 715 42 715 71 714 c 0,77,78
 101 714 101 714 121 694 c 0,79,80
 142 673 142 673 143 643 c 0,81,82
 143 613 143 613 121 592 c 256,83,84
 100 571 100 571 71 571 c 1,85,-1
 71 571 l 1,69,70
EndSplineSet
Validated: 37
EndChar

StartChar: semicolon
Encoding: 59 59 23
Width: 999
VWidth: 714
Flags: W
LayerCount: 2
Fore
SplineSet
357 0 m 1,0,1
 327 0 327 0 306 21 c 0,2,3
 285 42 285 42 286 71 c 0,4,5
 286 101 286 101 306 121 c 256,6,7
 327 142 327 142 357 143 c 0,8,9
 386 143 386 143 407 121 c 256,10,11
 428 100 428 100 429 71 c 0,12,13
 429 42 429 42 407 21 c 0,14,15
 386 0 386 0 357 0 c 1,16,-1
 357 0 l 1,0,1
357 143 m 1,17,18
 327 143 327 143 306 164 c 256,19,20
 285 185 285 185 286 214 c 256,21,22
 286 244 286 244 306 265 c 256,23,24
 327 286 327 286 357 286 c 0,25,26
 386 286 386 286 407 265 c 256,27,28
 428 244 428 244 429 214 c 256,29,30
 429 184 429 184 407 164 c 256,31,32
 386 143 386 143 357 143 c 1,33,-1
 357 143 l 1,17,18
357 286 m 1,34,35
 327 286 327 286 306 306 c 256,36,37
 285 327 285 327 286 357 c 0,38,39
 286 386 286 386 306 407 c 256,40,41
 327 428 327 428 357 429 c 0,42,43
 386 429 386 429 407 407 c 256,44,45
 428 386 428 386 429 357 c 0,46,47
 429 327 429 327 407 306 c 256,48,49
 386 285 386 285 357 286 c 1,50,-1
 357 286 l 1,34,35
357 429 m 1,51,52
 327 429 327 429 306 449 c 256,53,54
 285 470 285 470 286 500 c 256,55,56
 286 530 286 530 306 551 c 256,57,58
 327 572 327 572 357 571 c 0,59,60
 386 571 386 571 407 551 c 256,61,62
 428 530 428 530 429 500 c 256,63,64
 429 470 429 470 407 449 c 256,65,66
 386 428 386 428 357 429 c 1,67,-1
 357 429 l 1,51,52
357 571 m 1,68,69
 327 571 327 571 306 592 c 256,70,71
 285 613 285 613 286 643 c 0,72,73
 286 672 286 672 306 694 c 0,74,75
 327 715 327 715 357 714 c 0,76,77
 386 714 386 714 407 694 c 0,78,79
 428 673 428 673 429 643 c 0,80,81
 429 613 429 613 407 592 c 256,82,83
 386 571 386 571 357 571 c 1,84,-1
 357 571 l 1,68,69
357 714 m 1,85,86
 327 714 327 714 306 735 c 0,87,88
 285 756 285 756 286 786 c 0,89,90
 286 816 286 816 306 836 c 256,91,92
 327 857 327 857 357 857 c 0,93,94
 386 857 386 857 407 836 c 256,95,96
 428 815 428 815 429 786 c 0,97,98
 429 757 429 757 407 735 c 0,99,100
 386 714 386 714 357 714 c 1,101,-1
 357 714 l 1,85,86
357 857 m 1,102,103
 327 857 327 857 306 878 c 256,104,105
 285 899 285 899 286 929 c 256,106,107
 286 959 286 959 306 979 c 256,108,109
 327 1000 327 1000 357 1000 c 0,110,111
 386 1000 386 1000 407 979 c 256,112,113
 428 958 428 958 429 929 c 256,114,115
 429 899 429 899 407 878 c 256,116,117
 386 857 386 857 357 857 c 1,118,-1
 357 857 l 1,102,103
EndSplineSet
Validated: 37
EndChar

StartChar: question
Encoding: 63 63 24
Width: 999
VWidth: 714
Flags: W
LayerCount: 2
Fore
SplineSet
357 0 m 1,0,1
 327 0 327 0 306 21 c 0,2,3
 285 42 285 42 286 71 c 0,4,5
 286 101 286 101 306 121 c 256,6,7
 327 142 327 142 357 143 c 0,8,9
 386 143 386 143 407 121 c 256,10,11
 428 100 428 100 429 71 c 0,12,13
 429 42 429 42 407 21 c 0,14,15
 386 0 386 0 357 0 c 1,16,-1
 357 0 l 1,0,1
500 143 m 1,17,18
 470 143 470 143 449 164 c 256,19,20
 428 185 428 185 429 214 c 256,21,22
 429 244 429 244 449 265 c 256,23,24
 470 286 470 286 500 286 c 256,25,26
 530 286 530 286 551 265 c 256,27,28
 572 244 572 244 571 214 c 256,29,30
 571 184 571 184 551 164 c 256,31,32
 530 143 530 143 500 143 c 1,33,-1
 500 143 l 1,17,18
643 286 m 1,34,35
 613 286 613 286 592 306 c 256,36,37
 571 327 571 327 571 357 c 0,38,39
 571 386 571 386 592 407 c 256,40,41
 613 428 613 428 643 429 c 0,42,43
 672 429 672 429 694 407 c 0,44,45
 715 386 715 386 714 357 c 0,46,47
 714 327 714 327 694 306 c 0,48,49
 673 285 673 285 643 286 c 1,50,-1
 643 286 l 1,34,35
643 429 m 1,51,52
 613 429 613 429 592 449 c 256,53,54
 571 470 571 470 571 500 c 256,55,56
 571 530 571 530 592 551 c 256,57,58
 613 572 613 572 643 571 c 0,59,60
 672 571 672 571 694 551 c 0,61,62
 715 530 715 530 714 500 c 256,63,64
 714 470 714 470 694 449 c 0,65,66
 673 428 673 428 643 429 c 1,67,-1
 643 429 l 1,51,52
214 571 m 1,68,69
 184 571 184 571 164 592 c 256,70,71
 143 613 143 613 143 643 c 0,72,73
 143 672 143 672 164 694 c 0,74,75
 185 715 185 715 214 714 c 256,76,77
 244 714 244 714 265 694 c 0,78,79
 286 673 286 673 286 643 c 0,80,81
 286 613 286 613 265 592 c 256,82,83
 244 571 244 571 214 571 c 1,84,-1
 214 571 l 1,68,69
643 571 m 1,85,86
 613 571 613 571 592 592 c 256,87,88
 571 613 571 613 571 643 c 0,89,90
 571 672 571 672 592 694 c 0,91,92
 613 715 613 715 643 714 c 0,93,94
 672 714 672 714 694 694 c 0,95,96
 715 673 715 673 714 643 c 0,97,98
 714 613 714 613 694 592 c 0,99,100
 673 571 673 571 643 571 c 1,101,-1
 643 571 l 1,85,86
214 714 m 1,102,103
 184 714 184 714 164 735 c 0,104,105
 143 756 143 756 143 786 c 0,106,107
 143 816 143 816 164 836 c 256,108,109
 185 857 185 857 214 857 c 256,110,111
 244 857 244 857 265 836 c 256,112,113
 286 815 286 815 286 786 c 0,114,115
 286 757 286 757 265 735 c 0,116,117
 244 714 244 714 214 714 c 1,118,-1
 214 714 l 1,102,103
643 714 m 1,119,120
 613 714 613 714 592 735 c 0,121,122
 571 756 571 756 571 786 c 0,123,124
 571 816 571 816 592 836 c 256,125,126
 613 857 613 857 643 857 c 0,127,128
 672 857 672 857 694 836 c 0,129,130
 715 815 715 815 714 786 c 0,131,132
 714 757 714 757 694 735 c 0,133,134
 673 714 673 714 643 714 c 1,135,-1
 643 714 l 1,119,120
357 857 m 2,136,137
 327 857 327 857 306 878 c 256,138,139
 285 899 285 899 286 929 c 256,140,141
 286 959 286 959 306 979 c 256,142,143
 327 1000 327 1000 357 1000 c 2,144,-1
 500 1000 l 2,145,146
 530 1000 530 1000 551 979 c 256,147,148
 572 958 572 958 571 929 c 256,149,150
 571 899 571 899 551 878 c 256,151,152
 530 857 530 857 500 857 c 2,153,-1
 357 857 l 2,136,137
EndSplineSet
Validated: 37
EndChar

StartChar: A
Encoding: 65 65 25
Width: 999
VWidth: 714
Flags: W
LayerCount: 2
Fore
SplineSet
71 0 m 1,0,1
 42 0 42 0 21 21 c 0,2,3
 0 42 0 42 0 71 c 0,4,5
 0 101 0 101 21 121 c 0,6,7
 42 142 42 142 71 143 c 0,8,9
 101 143 101 143 121 121 c 256,10,11
 142 100 142 100 143 71 c 0,12,13
 143 42 143 42 121 21 c 0,14,15
 100 0 100 0 71 0 c 1,16,-1
 71 0 l 1,0,1
786 0 m 1,17,18
 757 0 757 0 735 21 c 0,19,20
 714 42 714 42 714 71 c 0,21,22
 714 101 714 101 735 121 c 0,23,24
 756 142 756 142 786 143 c 0,25,26
 816 143 816 143 836 121 c 256,27,28
 857 100 857 100 857 71 c 0,29,30
 857 42 857 42 836 21 c 0,31,32
 815 0 815 0 786 0 c 1,33,-1
 786 0 l 1,17,18
71 143 m 1,34,35
 42 143 42 143 21 164 c 0,36,37
 0 185 0 185 0 214 c 256,38,39
 0 244 0 244 21 265 c 0,40,41
 42 286 42 286 71 286 c 0,42,43
 101 286 101 286 121 265 c 256,44,45
 142 244 142 244 143 214 c 256,46,47
 143 184 143 184 121 164 c 256,48,49
 100 143 100 143 71 143 c 1,50,-1
 71 143 l 1,34,35
643 143 m 1,51,52
 613 143 613 143 592 164 c 256,53,54
 571 185 571 185 571 214 c 256,55,56
 571 244 571 244 592 265 c 256,57,58
 613 286 613 286 643 286 c 0,59,60
 672 286 672 286 694 265 c 0,61,62
 715 244 715 244 714 214 c 256,63,64
 714 184 714 184 694 164 c 0,65,66
 673 143 673 143 643 143 c 1,67,-1
 643 143 l 1,51,52
71 286 m 2,68,69
 42 286 42 286 21 306 c 0,70,71
 0 327 0 327 0 357 c 0,72,73
 0 386 0 386 21 407 c 0,74,75
 42 428 42 428 71 429 c 2,76,-1
 500 429 l 2,77,78
 530 429 530 429 551 407 c 256,79,80
 572 386 572 386 571 357 c 0,81,82
 571 327 571 327 551 306 c 256,83,84
 530 285 530 285 500 286 c 2,85,-1
 71 286 l 2,68,69
71 571 m 2,86,87
 42 571 42 571 21 592 c 0,88,89
 0 613 0 613 0 643 c 0,90,91
 0 672 0 672 21 694 c 0,92,93
 42 715 42 715 71 714 c 2,94,-1
 500 714 l 2,95,96
 530 714 530 714 551 694 c 0,97,98
 572 673 572 673 571 643 c 0,99,100
 571 613 571 613 551 592 c 256,101,102
 530 571 530 571 500 571 c 2,103,-1
 71 571 l 2,86,87
71 714 m 1,104,105
 42 714 42 714 21 735 c 0,106,107
 0 756 0 756 0 786 c 0,108,109
 0 816 0 816 21 836 c 0,110,111
 42 857 42 857 71 857 c 0,112,113
 101 857 101 857 121 836 c 256,114,115
 142 815 142 815 143 786 c 0,116,117
 143 757 143 757 121 735 c 0,118,119
 100 714 100 714 71 714 c 1,120,-1
 71 714 l 1,104,105
643 714 m 1,121,122
 613 714 613 714 592 735 c 0,123,124
 571 756 571 756 571 786 c 0,125,126
 571 816 571 816 592 836 c 256,127,128
 613 857 613 857 643 857 c 0,129,130
 672 857 672 857 694 836 c 0,131,132
 715 815 715 815 714 786 c 0,133,134
 714 757 714 757 694 735 c 0,135,136
 673 714 673 714 643 714 c 1,137,-1
 643 714 l 1,121,122
71 857 m 1,138,139
 42 857 42 857 21 878 c 0,140,141
 0 899 0 899 0 929 c 256,142,143
 0 959 0 959 21 979 c 0,144,145
 42 1000 42 1000 71 1000 c 0,146,147
 101 1000 101 1000 121 979 c 256,148,149
 142 958 142 958 143 929 c 256,150,151
 143 899 143 899 121 878 c 256,152,153
 100 857 100 857 71 857 c 1,154,-1
 71 857 l 1,138,139
786 857 m 1,155,156
 757 857 757 857 735 878 c 0,157,158
 714 899 714 899 714 929 c 256,159,160
 714 959 714 959 735 979 c 0,161,162
 756 1000 756 1000 786 1000 c 0,163,164
 816 1000 816 1000 836 979 c 256,165,166
 857 958 857 958 857 929 c 256,167,168
 857 899 857 899 836 878 c 256,169,170
 815 857 815 857 786 857 c 1,171,-1
 786 857 l 1,155,156
EndSplineSet
Validated: 37
EndChar

StartChar: B
Encoding: 66 66 26
Width: 999
VWidth: 714
Flags: W
LayerCount: 2
Fore
SplineSet
214 0 m 2,0,1
 184 0 184 0 164 21 c 0,2,3
 143 42 143 42 143 71 c 0,4,5
 143 101 143 101 164 121 c 256,6,7
 185 142 185 142 214 143 c 2,8,-1
 643 143 l 2,9,10
 672 143 672 143 694 121 c 0,11,12
 715 100 715 100 714 71 c 0,13,14
 714 42 714 42 694 21 c 0,15,16
 673 0 673 0 643 0 c 2,17,-1
 214 0 l 2,0,1
71 143 m 1,18,19
 42 143 42 143 21 164 c 0,20,21
 0 185 0 185 0 214 c 256,22,23
 0 244 0 244 21 265 c 0,24,25
 42 286 42 286 71 286 c 0,26,27
 101 286 101 286 121 265 c 256,28,29
 142 244 142 244 143 214 c 256,30,31
 143 184 143 184 121 164 c 256,32,33
 100 143 100 143 71 143 c 1,34,-1
 71 143 l 1,18,19
786 143 m 1,35,36
 757 143 757 143 735 164 c 0,37,38
 714 185 714 185 714 214 c 256,39,40
 714 244 714 244 735 265 c 0,41,42
 756 286 756 286 786 286 c 0,43,44
 816 286 816 286 836 265 c 256,45,46
 857 244 857 244 857 214 c 256,47,48
 857 184 857 184 836 164 c 256,49,50
 815 143 815 143 786 143 c 1,51,-1
 786 143 l 1,35,36
214 429 m 2,52,53
 184 429 184 429 164 449 c 256,54,55
 143 470 143 470 143 500 c 256,56,57
 143 530 143 530 164 551 c 256,58,59
 185 572 185 572 214 571 c 2,60,-1
 643 571 l 2,61,62
 672 571 672 571 694 551 c 0,63,64
 715 530 715 530 714 500 c 256,65,66
 714 470 714 470 694 449 c 0,67,68
 673 428 673 428 643 429 c 2,69,-1
 214 429 l 2,52,53
71 714 m 1,70,71
 42 714 42 714 21 735 c 0,72,73
 0 756 0 756 0 786 c 0,74,75
 0 816 0 816 21 836 c 0,76,77
 42 857 42 857 71 857 c 0,78,79
 101 857 101 857 121 836 c 256,80,81
 142 815 142 815 143 786 c 0,82,83
 143 757 143 757 121 735 c 0,84,85
 100 714 100 714 71 714 c 1,86,-1
 71 714 l 1,70,71
786 714 m 1,87,88
 757 714 757 714 735 735 c 0,89,90
 714 756 714 756 714 786 c 0,91,92
 714 816 714 816 735 836 c 0,93,94
 756 857 756 857 786 857 c 0,95,96
 816 857 816 857 836 836 c 256,97,98
 857 815 857 815 857 786 c 0,99,100
 857 757 857 757 836 735 c 0,101,102
 815 714 815 714 786 714 c 1,103,-1
 786 714 l 1,87,88
214 857 m 2,104,105
 184 857 184 857 164 878 c 256,106,107
 143 899 143 899 143 929 c 256,108,109
 143 959 143 959 164 979 c 256,110,111
 185 1000 185 1000 214 1000 c 2,112,-1
 643 1000 l 2,113,114
 672 1000 672 1000 694 979 c 0,115,116
 715 958 715 958 714 929 c 256,117,118
 714 899 714 899 694 878 c 0,119,120
 673 857 673 857 643 857 c 2,121,-1
 214 857 l 2,104,105
EndSplineSet
Validated: 37
EndChar

StartChar: C
Encoding: 67 67 27
Width: 999
VWidth: 714
Flags: W
LayerCount: 2
Fore
SplineSet
786 0 m 1,0,1
 757 0 757 0 735 21 c 0,2,3
 714 42 714 42 714 71 c 0,4,5
 714 101 714 101 735 121 c 0,6,7
 756 142 756 142 786 143 c 0,8,9
 816 143 816 143 836 121 c 256,10,11
 857 100 857 100 857 71 c 0,12,13
 857 42 857 42 836 21 c 0,14,15
 815 0 815 0 786 0 c 1,16,-1
 786 0 l 1,0,1
786 143 m 1,17,18
 757 143 757 143 735 164 c 0,19,20
 714 185 714 185 714 214 c 256,21,22
 714 244 714 244 735 265 c 0,23,24
 756 286 756 286 786 286 c 0,25,26
 816 286 816 286 836 265 c 256,27,28
 857 244 857 244 857 214 c 256,29,30
 857 184 857 184 836 164 c 256,31,32
 815 143 815 143 786 143 c 1,33,-1
 786 143 l 1,17,18
214 286 m 1,34,35
 184 286 184 286 164 306 c 256,36,37
 143 327 143 327 143 357 c 0,38,39
 143 386 143 386 164 407 c 256,40,41
 185 428 185 428 214 429 c 256,42,43
 244 429 244 429 265 407 c 256,44,45
 286 386 286 386 286 357 c 0,46,47
 286 327 286 327 265 306 c 256,48,49
 244 285 244 285 214 286 c 1,50,-1
 214 286 l 1,34,35
500 286 m 1,51,52
 470 286 470 286 449 306 c 256,53,54
 428 327 428 327 429 357 c 0,55,56
 429 386 429 386 449 407 c 256,57,58
 470 428 470 428 500 429 c 256,59,60
 530 429 530 429 551 407 c 256,61,62
 572 386 572 386 571 357 c 0,63,64
 571 327 571 327 551 306 c 256,65,66
 530 285 530 285 500 286 c 1,67,-1
 500 286 l 1,51,52
786 286 m 1,68,69
 757 286 757 286 735 306 c 0,70,71
 714 327 714 327 714 357 c 0,72,73
 714 386 714 386 735 407 c 0,74,75
 756 428 756 428 786 429 c 0,76,77
 816 429 816 429 836 407 c 256,78,79
 857 386 857 386 857 357 c 0,80,81
 857 327 857 327 836 306 c 256,82,83
 815 285 815 285 786 286 c 1,84,-1
 786 286 l 1,68,69
214 429 m 1,85,86
 184 429 184 429 164 449 c 256,87,88
 143 470 143 470 143 500 c 256,89,90
 143 530 143 530 164 551 c 256,91,92
 185 572 185 572 214 571 c 256,93,94
 244 571 244 571 265 551 c 256,95,96
 286 530 286 530 286 500 c 256,97,98
 286 470 286 470 265 449 c 256,99,100
 244 428 244 428 214 429 c 1,101,-1
 214 429 l 1,85,86
500 429 m 1,102,103
 470 429 470 429 449 449 c 256,104,105
 428 470 428 470 429 500 c 256,106,107
 429 530 429 530 449 551 c 256,108,109
 470 572 470 572 500 571 c 256,110,111
 530 571 530 571 551 551 c 256,112,113
 572 530 572 530 571 500 c 256,114,115
 571 470 571 470 551 449 c 256,116,117
 530 428 530 428 500 429 c 1,118,-1
 500 429 l 1,102,103
786 429 m 1,119,120
 757 429 757 429 735 449 c 0,121,122
 714 470 714 470 714 500 c 256,123,124
 714 530 714 530 735 551 c 0,125,126
 756 572 756 572 786 571 c 0,127,128
 816 571 816 571 836 551 c 256,129,130
 857 530 857 530 857 500 c 256,131,132
 857 470 857 470 836 449 c 256,133,134
 815 428 815 428 786 429 c 1,135,-1
 786 429 l 1,119,120
214 571 m 1,136,137
 184 571 184 571 164 592 c 256,138,139
 143 613 143 613 143 643 c 0,140,141
 143 672 143 672 164 694 c 0,142,143
 185 715 185 715 214 714 c 256,144,145
 244 714 244 714 265 694 c 0,146,147
 286 673 286 673 286 643 c 0,148,149
 286 613 286 613 265 592 c 256,150,151
 244 571 244 571 214 571 c 1,152,-1
 214 571 l 1,136,137
500 571 m 1,153,154
 470 571 470 571 449 592 c 256,155,156
 428 613 428 613 429 643 c 0,157,158
 429 672 429 672 449 694 c 0,159,160
 470 715 470 715 500 714 c 256,161,162
 530 714 530 714 551 694 c 0,163,164
 572 673 572 673 571 643 c 0,165,166
 571 613 571 613 551 592 c 256,167,168
 530 571 530 571 500 571 c 1,169,-1
 500 571 l 1,153,154
786 571 m 1,170,171
 757 571 757 571 735 592 c 0,172,173
 714 613 714 613 714 643 c 0,174,175
 714 672 714 672 735 694 c 0,176,177
 756 715 756 715 786 714 c 0,178,179
 816 714 816 714 836 694 c 0,180,181
 857 673 857 673 857 643 c 0,182,183
 857 613 857 613 836 592 c 256,184,185
 815 571 815 571 786 571 c 1,186,-1
 786 571 l 1,170,171
214 714 m 1,187,188
 184 714 184 714 164 735 c 0,189,190
 143 756 143 756 143 786 c 0,191,192
 143 816 143 816 164 836 c 256,193,194
 185 857 185 857 214 857 c 256,195,196
 244 857 244 857 265 836 c 256,197,198
 286 815 286 815 286 786 c 0,199,200
 286 757 286 757 265 735 c 0,201,202
 244 714 244 714 214 714 c 1,203,-1
 214 714 l 1,187,188
71 857 m 2,204,205
 42 857 42 857 21 878 c 0,206,207
 0 899 0 899 0 929 c 256,208,209
 0 959 0 959 21 979 c 0,210,211
 42 1000 42 1000 71 1000 c 2,212,-1
 214 1000 l 2,213,214
 244 1000 244 1000 265 979 c 256,215,216
 286 958 286 958 286 929 c 256,217,218
 286 899 286 899 265 878 c 256,219,220
 244 857 244 857 214 857 c 2,221,-1
 71 857 l 2,204,205
EndSplineSet
Validated: 37
EndChar

StartChar: D
Encoding: 68 68 28
Width: 999
VWidth: 714
Flags: W
LayerCount: 2
Fore
SplineSet
357 0 m 1,0,1
 327 0 327 0 306 21 c 0,2,3
 285 42 285 42 286 71 c 0,4,5
 286 101 286 101 306 121 c 256,6,7
 327 142 327 142 357 143 c 0,8,9
 386 143 386 143 407 121 c 256,10,11
 428 100 428 100 429 71 c 0,12,13
 429 42 429 42 407 21 c 0,14,15
 386 0 386 0 357 0 c 1,16,-1
 357 0 l 1,0,1
357 143 m 1,17,18
 327 143 327 143 306 164 c 256,19,20
 285 185 285 185 286 214 c 256,21,22
 286 244 286 244 306 265 c 256,23,24
 327 286 327 286 357 286 c 0,25,26
 386 286 386 286 407 265 c 256,27,28
 428 244 428 244 429 214 c 256,29,30
 429 184 429 184 407 164 c 256,31,32
 386 143 386 143 357 143 c 1,33,-1
 357 143 l 1,17,18
500 286 m 1,34,35
 470 286 470 286 449 306 c 256,36,37
 428 327 428 327 429 357 c 0,38,39
 429 386 429 386 449 407 c 256,40,41
 470 428 470 428 500 429 c 256,42,43
 530 429 530 429 551 407 c 256,44,45
 572 386 572 386 571 357 c 0,46,47
 571 327 571 327 551 306 c 256,48,49
 530 285 530 285 500 286 c 1,50,-1
 500 286 l 1,34,35
214 429 m 2,51,52
 184 429 184 429 164 449 c 256,53,54
 143 470 143 470 143 500 c 256,55,56
 143 530 143 530 164 551 c 256,57,58
 185 572 185 572 214 571 c 2,59,-1
 500 571 l 2,60,61
 530 571 530 571 551 551 c 256,62,63
 572 530 572 530 571 500 c 256,64,65
 571 470 571 470 551 449 c 256,66,67
 530 428 530 428 500 429 c 2,68,-1
 214 429 l 2,51,52
643 571 m 1,69,70
 613 571 613 571 592 592 c 256,71,72
 571 613 571 613 571 643 c 0,73,74
 571 672 571 672 592 694 c 0,75,76
 613 715 613 715 643 714 c 0,77,78
 672 714 672 714 694 694 c 0,79,80
 715 673 715 673 714 643 c 0,81,82
 714 613 714 613 694 592 c 0,83,84
 673 571 673 571 643 571 c 1,85,-1
 643 571 l 1,69,70
643 714 m 1,86,87
 613 714 613 714 592 735 c 0,88,89
 571 756 571 756 571 786 c 0,90,91
 571 816 571 816 592 836 c 256,92,93
 613 857 613 857 643 857 c 0,94,95
 672 857 672 857 694 836 c 0,96,97
 715 815 715 815 714 786 c 0,98,99
 714 757 714 757 694 735 c 0,100,101
 673 714 673 714 643 714 c 1,102,-1
 643 714 l 1,86,87
71 857 m 2,103,104
 42 857 42 857 21 878 c 0,105,106
 0 899 0 899 0 929 c 256,107,108
 0 959 0 959 21 979 c 0,109,110
 42 1000 42 1000 71 1000 c 2,111,-1
 786 1000 l 2,112,113
 816 1000 816 1000 836 979 c 256,114,115
 857 958 857 958 857 929 c 256,116,117
 857 899 857 899 836 878 c 256,118,119
 815 857 815 857 786 857 c 2,120,-1
 71 857 l 2,103,104
EndSplineSet
Validated: 37
EndChar

StartChar: E
Encoding: 69 69 29
Width: 999
VWidth: 714
Flags: W
LayerCount: 2
Fore
SplineSet
214 0 m 1,0,1
 184 0 184 0 164 21 c 0,2,3
 143 42 143 42 143 71 c 0,4,5
 143 101 143 101 164 121 c 256,6,7
 185 142 185 142 214 143 c 256,8,9
 244 143 244 143 265 121 c 256,10,11
 286 100 286 100 286 71 c 0,12,13
 286 42 286 42 265 21 c 0,14,15
 244 0 244 0 214 0 c 1,16,-1
 214 0 l 1,0,1
643 0 m 1,17,18
 613 0 613 0 592 21 c 0,19,20
 571 42 571 42 571 71 c 0,21,22
 571 101 571 101 592 121 c 256,23,24
 613 142 613 142 643 143 c 0,25,26
 672 143 672 143 694 121 c 0,27,28
 715 100 715 100 714 71 c 0,29,30
 714 42 714 42 694 21 c 0,31,32
 673 0 673 0 643 0 c 1,33,-1
 643 0 l 1,17,18
214 143 m 1,34,35
 184 143 184 143 164 164 c 256,36,37
 143 185 143 185 143 214 c 256,38,39
 143 244 143 244 164 265 c 256,40,41
 185 286 185 286 214 286 c 256,42,43
 244 286 244 286 265 265 c 256,44,45
 286 244 286 244 286 214 c 256,46,47
 286 184 286 184 265 164 c 256,48,49
 244 143 244 143 214 143 c 1,50,-1
 214 143 l 1,34,35
643 143 m 1,51,52
 613 143 613 143 592 164 c 256,53,54
 571 185 571 185 571 214 c 256,55,56
 571 244 571 244 592 265 c 256,57,58
 613 286 613 286 643 286 c 0,59,60
 672 286 672 286 694 265 c 0,61,62
 715 244 715 244 714 214 c 256,63,64
 714 184 714 184 694 164 c 0,65,66
 673 143 673 143 643 143 c 1,67,-1
 643 143 l 1,51,52
71 286 m 1,68,69
 42 286 42 286 21 306 c 0,70,71
 0 327 0 327 0 357 c 0,72,73
 0 386 0 386 21 407 c 0,74,75
 42 428 42 428 71 429 c 0,76,77
 101 429 101 429 121 407 c 256,78,79
 142 386 142 386 143 357 c 0,80,81
 143 327 143 327 121 306 c 256,82,83
 100 285 100 285 71 286 c 1,84,-1
 71 286 l 1,68,69
357 286 m 1,85,86
 327 286 327 286 306 306 c 256,87,88
 285 327 285 327 286 357 c 0,89,90
 286 386 286 386 306 407 c 256,91,92
 327 428 327 428 357 429 c 0,93,94
 386 429 386 429 407 407 c 256,95,96
 428 386 428 386 429 357 c 0,97,98
 429 327 429 327 407 306 c 256,99,100
 386 285 386 285 357 286 c 1,101,-1
 357 286 l 1,85,86
643 286 m 1,102,103
 613 286 613 286 592 306 c 256,104,105
 571 327 571 327 571 357 c 0,106,107
 571 386 571 386 592 407 c 256,108,109
 613 428 613 428 643 429 c 0,110,111
 672 429 672 429 694 407 c 0,112,113
 715 386 715 386 714 357 c 0,114,115
 714 327 714 327 694 306 c 0,116,117
 673 285 673 285 643 286 c 1,118,-1
 643 286 l 1,102,103
71 429 m 1,119,120
 42 429 42 429 21 449 c 0,121,122
 0 470 0 470 0 500 c 256,123,124
 0 530 0 530 21 551 c 0,125,126
 42 572 42 572 71 571 c 0,127,128
 101 571 101 571 121 551 c 256,129,130
 142 530 142 530 143 500 c 256,131,132
 143 470 143 470 121 449 c 256,133,134
 100 428 100 428 71 429 c 1,135,-1
 71 429 l 1,119,120
357 429 m 1,136,137
 327 429 327 429 306 449 c 256,138,139
 285 470 285 470 286 500 c 256,140,141
 286 530 286 530 306 551 c 256,142,143
 327 572 327 572 357 571 c 0,144,145
 386 571 386 571 407 551 c 256,146,147
 428 530 428 530 429 500 c 256,148,149
 429 470 429 470 407 449 c 256,150,151
 386 428 386 428 357 429 c 1,152,-1
 357 429 l 1,136,137
643 429 m 1,153,154
 613 429 613 429 592 449 c 256,155,156
 571 470 571 470 571 500 c 256,157,158
 571 530 571 530 592 551 c 256,159,160
 613 572 613 572 643 571 c 0,161,162
 672 571 672 571 694 551 c 0,163,164
 715 530 715 530 714 500 c 256,165,166
 714 470 714 470 694 449 c 0,167,168
 673 428 673 428 643 429 c 1,169,-1
 643 429 l 1,153,154
71 571 m 1,170,171
 42 571 42 571 21 592 c 0,172,173
 0 613 0 613 0 643 c 0,174,175
 0 672 0 672 21 694 c 0,176,177
 42 715 42 715 71 714 c 0,178,179
 101 714 101 714 121 694 c 0,180,181
 142 673 142 673 143 643 c 0,182,183
 143 613 143 613 121 592 c 256,184,185
 100 571 100 571 71 571 c 1,186,-1
 71 571 l 1,170,171
357 571 m 1,187,188
 327 571 327 571 306 592 c 256,189,190
 285 613 285 613 286 643 c 0,191,192
 286 672 286 672 306 694 c 0,193,194
 327 715 327 715 357 714 c 0,195,196
 386 714 386 714 407 694 c 0,197,198
 428 673 428 673 429 643 c 0,199,200
 429 613 429 613 407 592 c 256,201,202
 386 571 386 571 357 571 c 1,203,-1
 357 571 l 1,187,188
643 571 m 1,204,205
 613 571 613 571 592 592 c 256,206,207
 571 613 571 613 571 643 c 0,208,209
 571 672 571 672 592 694 c 0,210,211
 613 715 613 715 643 714 c 0,212,213
 672 714 672 714 694 694 c 0,214,215
 715 673 715 673 714 643 c 0,216,217
 714 613 714 613 694 592 c 0,218,219
 673 571 673 571 643 571 c 1,220,-1
 643 571 l 1,204,205
71 714 m 1,221,222
 42 714 42 714 21 735 c 0,223,224
 0 756 0 756 0 786 c 0,225,226
 0 816 0 816 21 836 c 0,227,228
 42 857 42 857 71 857 c 0,229,230
 101 857 101 857 121 836 c 256,231,232
 142 815 142 815 143 786 c 0,233,234
 143 757 143 757 121 735 c 0,235,236
 100 714 100 714 71 714 c 1,237,-1
 71 714 l 1,221,222
357 714 m 1,238,239
 327 714 327 714 306 735 c 0,240,241
 285 756 285 756 286 786 c 0,242,243
 286 816 286 816 306 836 c 256,244,245
 327 857 327 857 357 857 c 0,246,247
 386 857 386 857 407 836 c 256,248,249
 428 815 428 815 429 786 c 0,250,251
 429 757 429 757 407 735 c 0,252,253
 386 714 386 714 357 714 c 1,254,-1
 357 714 l 1,238,239
643 714 m 1,255,256
 613 714 613 714 592 735 c 0,257,258
 571 756 571 756 571 786 c 0,259,260
 571 816 571 816 592 836 c 256,261,262
 613 857 613 857 643 857 c 0,263,264
 672 857 672 857 694 836 c 0,265,266
 715 815 715 815 714 786 c 0,267,268
 714 757 714 757 694 735 c 0,269,270
 673 714 673 714 643 714 c 1,271,-1
 643 714 l 1,255,256
71 857 m 1,272,273
 42 857 42 857 21 878 c 0,274,275
 0 899 0 899 0 929 c 256,276,277
 0 959 0 959 21 979 c 0,278,279
 42 1000 42 1000 71 1000 c 0,280,281
 101 1000 101 1000 121 979 c 256,282,283
 142 958 142 958 143 929 c 256,284,285
 143 899 143 899 121 878 c 256,286,287
 100 857 100 857 71 857 c 1,288,-1
 71 857 l 1,272,273
357 857 m 2,289,290
 327 857 327 857 306 878 c 256,291,292
 285 899 285 899 286 929 c 256,293,294
 286 959 286 959 306 979 c 256,295,296
 327 1000 327 1000 357 1000 c 2,297,-1
 786 1000 l 2,298,299
 816 1000 816 1000 836 979 c 256,300,301
 857 958 857 958 857 929 c 256,302,303
 857 899 857 899 836 878 c 256,304,305
 815 857 815 857 786 857 c 2,306,-1
 357 857 l 2,289,290
EndSplineSet
Validated: 37
EndChar

StartChar: F
Encoding: 70 70 30
Width: 999
VWidth: 714
Flags: W
LayerCount: 2
Fore
SplineSet
214 0 m 2,0,1
 184 0 184 0 164 21 c 0,2,3
 143 42 143 42 143 71 c 0,4,5
 143 101 143 101 164 121 c 256,6,7
 185 142 185 142 214 143 c 2,8,-1
 357 143 l 2,9,10
 386 143 386 143 407 121 c 256,11,12
 428 100 428 100 429 71 c 0,13,14
 429 42 429 42 407 21 c 0,15,16
 386 0 386 0 357 0 c 2,17,-1
 214 0 l 2,0,1
643 0 m 2,18,19
 613 0 613 0 592 21 c 0,20,21
 571 42 571 42 571 71 c 0,22,23
 571 101 571 101 592 121 c 256,24,25
 613 142 613 142 643 143 c 2,26,-1
 786 143 l 2,27,28
 816 143 816 143 836 121 c 256,29,30
 857 100 857 100 857 71 c 0,31,32
 857 42 857 42 836 21 c 0,33,34
 815 0 815 0 786 0 c 2,35,-1
 643 0 l 2,18,19
71 143 m 1,36,37
 42 143 42 143 21 164 c 0,38,39
 0 185 0 185 0 214 c 256,40,41
 0 244 0 244 21 265 c 0,42,43
 42 286 42 286 71 286 c 0,44,45
 101 286 101 286 121 265 c 256,46,47
 142 244 142 244 143 214 c 256,48,49
 143 184 143 184 121 164 c 256,50,51
 100 143 100 143 71 143 c 1,52,-1
 71 143 l 1,36,37
500 143 m 1,53,54
 470 143 470 143 449 164 c 256,55,56
 428 185 428 185 429 214 c 256,57,58
 429 244 429 244 449 265 c 256,59,60
 470 286 470 286 500 286 c 256,61,62
 530 286 530 286 551 265 c 256,63,64
 572 244 572 244 571 214 c 256,65,66
 571 184 571 184 551 164 c 256,67,68
 530 143 530 143 500 143 c 1,69,-1
 500 143 l 1,53,54
71 286 m 1,70,71
 42 286 42 286 21 306 c 0,72,73
 0 327 0 327 0 357 c 0,74,75
 0 386 0 386 21 407 c 0,76,77
 42 428 42 428 71 429 c 0,78,79
 101 429 101 429 121 407 c 256,80,81
 142 386 142 386 143 357 c 0,82,83
 143 327 143 327 121 306 c 256,84,85
 100 285 100 285 71 286 c 1,86,-1
 71 286 l 1,70,71
500 286 m 1,87,88
 470 286 470 286 449 306 c 256,89,90
 428 327 428 327 429 357 c 0,91,92
 429 386 429 386 449 407 c 256,93,94
 470 428 470 428 500 429 c 256,95,96
 530 429 530 429 551 407 c 256,97,98
 572 386 572 386 571 357 c 0,99,100
 571 327 571 327 551 306 c 256,101,102
 530 285 530 285 500 286 c 1,103,-1
 500 286 l 1,87,88
71 429 m 2,104,105
 42 429 42 429 21 449 c 0,106,107
 0 470 0 470 0 500 c 256,108,109
 0 530 0 530 21 551 c 0,110,111
 42 572 42 572 71 571 c 2,112,-1
 643 571 l 2,113,114
 672 571 672 571 694 551 c 0,115,116
 715 530 715 530 714 500 c 256,117,118
 714 470 714 470 694 449 c 0,119,120
 673 428 673 428 643 429 c 2,121,-1
 71 429 l 2,104,105
500 571 m 1,122,123
 470 571 470 571 449 592 c 256,124,125
 428 613 428 613 429 643 c 0,126,127
 429 672 429 672 449 694 c 0,128,129
 470 715 470 715 500 714 c 256,130,131
 530 714 530 714 551 694 c 0,132,133
 572 673 572 673 571 643 c 0,134,135
 571 613 571 613 551 592 c 256,136,137
 530 571 530 571 500 571 c 1,138,-1
 500 571 l 1,122,123
786 571 m 1,139,140
 757 571 757 571 735 592 c 0,141,142
 714 613 714 613 714 643 c 0,143,144
 714 672 714 672 735 694 c 0,145,146
 756 715 756 715 786 714 c 0,147,148
 816 714 816 714 836 694 c 0,149,150
 857 673 857 673 857 643 c 0,151,152
 857 613 857 613 836 592 c 256,153,154
 815 571 815 571 786 571 c 1,155,-1
 786 571 l 1,139,140
500 714 m 1,156,157
 470 714 470 714 449 735 c 0,158,159
 428 756 428 756 429 786 c 0,160,161
 429 816 429 816 449 836 c 256,162,163
 470 857 470 857 500 857 c 256,164,165
 530 857 530 857 551 836 c 256,166,167
 572 815 572 815 571 786 c 0,168,169
 571 757 571 757 551 735 c 0,170,171
 530 714 530 714 500 714 c 1,172,-1
 500 714 l 1,156,157
500 857 m 1,173,174
 470 857 470 857 449 878 c 256,175,176
 428 899 428 899 429 929 c 256,177,178
 429 959 429 959 449 979 c 256,179,180
 470 1000 470 1000 500 1000 c 256,181,182
 530 1000 530 1000 551 979 c 256,183,184
 572 958 572 958 571 929 c 256,185,186
 571 899 571 899 551 878 c 256,187,188
 530 857 530 857 500 857 c 1,189,-1
 500 857 l 1,173,174
EndSplineSet
Validated: 37
EndChar

StartChar: G
Encoding: 71 71 31
Width: 999
VWidth: 714
Flags: W
LayerCount: 2
Fore
SplineSet
71 0 m 2,0,1
 42 0 42 0 21 21 c 0,2,3
 0 42 0 42 0 71 c 0,4,5
 0 101 0 101 21 121 c 0,6,7
 42 142 42 142 71 143 c 2,8,-1
 357 143 l 2,9,10
 386 143 386 143 407 121 c 256,11,12
 428 100 428 100 429 71 c 0,13,14
 429 42 429 42 407 21 c 0,15,16
 386 0 386 0 357 0 c 2,17,-1
 71 0 l 2,0,1
71 143 m 1,18,19
 42 143 42 143 21 164 c 0,20,21
 0 185 0 185 0 214 c 256,22,23
 0 244 0 244 21 265 c 0,24,25
 42 286 42 286 71 286 c 0,26,27
 101 286 101 286 121 265 c 256,28,29
 142 244 142 244 143 214 c 256,30,31
 143 184 143 184 121 164 c 256,32,33
 100 143 100 143 71 143 c 1,34,-1
 71 143 l 1,18,19
500 143 m 1,35,36
 470 143 470 143 449 164 c 256,37,38
 428 185 428 185 429 214 c 256,39,40
 429 244 429 244 449 265 c 256,41,42
 470 286 470 286 500 286 c 256,43,44
 530 286 530 286 551 265 c 256,45,46
 572 244 572 244 571 214 c 256,47,48
 571 184 571 184 551 164 c 256,49,50
 530 143 530 143 500 143 c 1,51,-1
 500 143 l 1,35,36
71 286 m 1,52,53
 42 286 42 286 21 306 c 0,54,55
 0 327 0 327 0 357 c 0,56,57
 0 386 0 386 21 407 c 0,58,59
 42 428 42 428 71 429 c 0,60,61
 101 429 101 429 121 407 c 256,62,63
 142 386 142 386 143 357 c 0,64,65
 143 327 143 327 121 306 c 256,66,67
 100 285 100 285 71 286 c 1,68,-1
 71 286 l 1,52,53
643 286 m 1,69,70
 613 286 613 286 592 306 c 256,71,72
 571 327 571 327 571 357 c 0,73,74
 571 386 571 386 592 407 c 256,75,76
 613 428 613 428 643 429 c 0,77,78
 672 429 672 429 694 407 c 0,79,80
 715 386 715 386 714 357 c 0,81,82
 714 327 714 327 694 306 c 0,83,84
 673 285 673 285 643 286 c 1,85,-1
 643 286 l 1,69,70
71 429 m 1,86,87
 42 429 42 429 21 449 c 0,88,89
 0 470 0 470 0 500 c 256,90,91
 0 530 0 530 21 551 c 0,92,93
 42 572 42 572 71 571 c 0,94,95
 101 571 101 571 121 551 c 256,96,97
 142 530 142 530 143 500 c 256,98,99
 143 470 143 470 121 449 c 256,100,101
 100 428 100 428 71 429 c 1,102,-1
 71 429 l 1,86,87
786 429 m 1,103,104
 757 429 757 429 735 449 c 0,105,106
 714 470 714 470 714 500 c 256,107,108
 714 530 714 530 735 551 c 0,109,110
 756 572 756 572 786 571 c 0,111,112
 816 571 816 571 836 551 c 256,113,114
 857 530 857 530 857 500 c 256,115,116
 857 470 857 470 836 449 c 256,117,118
 815 428 815 428 786 429 c 1,119,-1
 786 429 l 1,103,104
71 571 m 1,120,121
 42 571 42 571 21 592 c 0,122,123
 0 613 0 613 0 643 c 0,124,125
 0 672 0 672 21 694 c 0,126,127
 42 715 42 715 71 714 c 0,128,129
 101 714 101 714 121 694 c 0,130,131
 142 673 142 673 143 643 c 0,132,133
 143 613 143 613 121 592 c 256,134,135
 100 571 100 571 71 571 c 1,136,-1
 71 571 l 1,120,121
357 571 m 1,137,138
 327 571 327 571 306 592 c 256,139,140
 285 613 285 613 286 643 c 0,141,142
 286 672 286 672 306 694 c 0,143,144
 327 715 327 715 357 714 c 0,145,146
 386 714 386 714 407 694 c 0,147,148
 428 673 428 673 429 643 c 0,149,150
 429 613 429 613 407 592 c 256,151,152
 386 571 386 571 357 571 c 1,153,-1
 357 571 l 1,137,138
786 571 m 1,154,155
 757 571 757 571 735 592 c 0,156,157
 714 613 714 613 714 643 c 0,158,159
 714 672 714 672 735 694 c 0,160,161
 756 715 756 715 786 714 c 0,162,163
 816 714 816 714 836 694 c 0,164,165
 857 673 857 673 857 643 c 0,166,167
 857 613 857 613 836 592 c 256,168,169
 815 571 815 571 786 571 c 1,170,-1
 786 571 l 1,154,155
71 714 m 1,171,172
 42 714 42 714 21 735 c 0,173,174
 0 756 0 756 0 786 c 0,175,176
 0 816 0 816 21 836 c 0,177,178
 42 857 42 857 71 857 c 0,179,180
 101 857 101 857 121 836 c 256,181,182
 142 815 142 815 143 786 c 0,183,184
 143 757 143 757 121 735 c 0,185,186
 100 714 100 714 71 714 c 1,187,-1
 71 714 l 1,171,172
357 714 m 1,188,189
 327 714 327 714 306 735 c 0,190,191
 285 756 285 756 286 786 c 0,192,193
 286 816 286 816 306 836 c 256,194,195
 327 857 327 857 357 857 c 0,196,197
 386 857 386 857 407 836 c 256,198,199
 428 815 428 815 429 786 c 0,200,201
 429 757 429 757 407 735 c 0,202,203
 386 714 386 714 357 714 c 1,204,-1
 357 714 l 1,188,189
786 714 m 1,205,206
 757 714 757 714 735 735 c 0,207,208
 714 756 714 756 714 786 c 0,209,210
 714 816 714 816 735 836 c 0,211,212
 756 857 756 857 786 857 c 0,213,214
 816 857 816 857 836 836 c 256,215,216
 857 815 857 815 857 786 c 0,217,218
 857 757 857 757 836 735 c 0,219,220
 815 714 815 714 786 714 c 1,221,-1
 786 714 l 1,205,206
71 857 m 1,222,223
 42 857 42 857 21 878 c 0,224,225
 0 899 0 899 0 929 c 256,226,227
 0 959 0 959 21 979 c 0,228,229
 42 1000 42 1000 71 1000 c 0,230,231
 101 1000 101 1000 121 979 c 256,232,233
 142 958 142 958 143 929 c 256,234,235
 143 899 143 899 121 878 c 256,236,237
 100 857 100 857 71 857 c 1,238,-1
 71 857 l 1,222,223
357 857 m 2,239,240
 327 857 327 857 306 878 c 256,241,242
 285 899 285 899 286 929 c 256,243,244
 286 959 286 959 306 979 c 256,245,246
 327 1000 327 1000 357 1000 c 2,247,-1
 786 1000 l 2,248,249
 816 1000 816 1000 836 979 c 256,250,251
 857 958 857 958 857 929 c 256,252,253
 857 899 857 899 836 878 c 256,254,255
 815 857 815 857 786 857 c 2,256,-1
 357 857 l 2,239,240
EndSplineSet
Validated: 37
EndChar

StartChar: H
Encoding: 72 72 32
Width: 999
VWidth: 714
Flags: W
LayerCount: 2
Fore
SplineSet
71 0 m 2,0,1
 42 0 42 0 21 21 c 0,2,3
 0 42 0 42 0 71 c 0,4,5
 0 101 0 101 21 121 c 0,6,7
 42 142 42 142 71 143 c 2,8,-1
 786 143 l 2,9,10
 816 143 816 143 836 121 c 256,11,12
 857 100 857 100 857 71 c 0,13,14
 857 42 857 42 836 21 c 0,15,16
 815 0 815 0 786 0 c 2,17,-1
 71 0 l 2,0,1
214 429 m 2,18,19
 184 429 184 429 164 449 c 256,20,21
 143 470 143 470 143 500 c 256,22,23
 143 530 143 530 164 551 c 256,24,25
 185 572 185 572 214 571 c 2,26,-1
 643 571 l 2,27,28
 672 571 672 571 694 551 c 0,29,30
 715 530 715 530 714 500 c 256,31,32
 714 470 714 470 694 449 c 0,33,34
 673 428 673 428 643 429 c 2,35,-1
 214 429 l 2,18,19
71 857 m 2,36,37
 42 857 42 857 21 878 c 0,38,39
 0 899 0 899 0 929 c 256,40,41
 0 959 0 959 21 979 c 0,42,43
 42 1000 42 1000 71 1000 c 2,44,-1
 786 1000 l 2,45,46
 816 1000 816 1000 836 979 c 256,47,48
 857 958 857 958 857 929 c 256,49,50
 857 899 857 899 836 878 c 256,51,52
 815 857 815 857 786 857 c 2,53,-1
 71 857 l 2,36,37
EndSplineSet
Validated: 33
EndChar

StartChar: I
Encoding: 73 73 33
Width: 999
VWidth: 714
Flags: W
LayerCount: 2
Fore
SplineSet
500 0 m 1,0,1
 470 0 470 0 449 21 c 0,2,3
 428 42 428 42 429 71 c 0,4,5
 429 101 429 101 449 121 c 256,6,7
 470 142 470 142 500 143 c 256,8,9
 530 143 530 143 551 121 c 256,10,11
 572 100 572 100 571 71 c 0,12,13
 571 42 571 42 551 21 c 0,14,15
 530 0 530 0 500 0 c 1,16,-1
 500 0 l 1,0,1
500 143 m 1,17,18
 470 143 470 143 449 164 c 256,19,20
 428 185 428 185 429 214 c 256,21,22
 429 244 429 244 449 265 c 256,23,24
 470 286 470 286 500 286 c 256,25,26
 530 286 530 286 551 265 c 256,27,28
 572 244 572 244 571 214 c 256,29,30
 571 184 571 184 551 164 c 256,31,32
 530 143 530 143 500 143 c 1,33,-1
 500 143 l 1,17,18
500 286 m 1,34,35
 470 286 470 286 449 306 c 256,36,37
 428 327 428 327 429 357 c 0,38,39
 429 386 429 386 449 407 c 256,40,41
 470 428 470 428 500 429 c 256,42,43
 530 429 530 429 551 407 c 256,44,45
 572 386 572 386 571 357 c 0,46,47
 571 327 571 327 551 306 c 256,48,49
 530 285 530 285 500 286 c 1,50,-1
 500 286 l 1,34,35
500 429 m 1,51,52
 470 429 470 429 449 449 c 256,53,54
 428 470 428 470 429 500 c 256,55,56
 429 530 429 530 449 551 c 256,57,58
 470 572 470 572 500 571 c 256,59,60
 530 571 530 571 551 551 c 256,61,62
 572 530 572 530 571 500 c 256,63,64
 571 470 571 470 551 449 c 256,65,66
 530 428 530 428 500 429 c 1,67,-1
 500 429 l 1,51,52
71 571 m 1,68,69
 42 571 42 571 21 592 c 0,70,71
 0 613 0 613 0 643 c 0,72,73
 0 672 0 672 21 694 c 0,74,75
 42 715 42 715 71 714 c 0,76,77
 101 714 101 714 121 694 c 0,78,79
 142 673 142 673 143 643 c 0,80,81
 143 613 143 613 121 592 c 256,82,83
 100 571 100 571 71 571 c 1,84,-1
 71 571 l 1,68,69
500 571 m 1,85,86
 470 571 470 571 449 592 c 256,87,88
 428 613 428 613 429 643 c 0,89,90
 429 672 429 672 449 694 c 0,91,92
 470 715 470 715 500 714 c 256,93,94
 530 714 530 714 551 694 c 0,95,96
 572 673 572 673 571 643 c 0,97,98
 571 613 571 613 551 592 c 256,99,100
 530 571 530 571 500 571 c 1,101,-1
 500 571 l 1,85,86
214 714 m 1,102,103
 184 714 184 714 164 735 c 0,104,105
 143 756 143 756 143 786 c 0,106,107
 143 816 143 816 164 836 c 256,108,109
 185 857 185 857 214 857 c 256,110,111
 244 857 244 857 265 836 c 256,112,113
 286 815 286 815 286 786 c 0,114,115
 286 757 286 757 265 735 c 0,116,117
 244 714 244 714 214 714 c 1,118,-1
 214 714 l 1,102,103
500 714 m 1,119,120
 470 714 470 714 449 735 c 0,121,122
 428 756 428 756 429 786 c 0,123,124
 429 816 429 816 449 836 c 256,125,126
 470 857 470 857 500 857 c 256,127,128
 530 857 530 857 551 836 c 256,129,130
 572 815 572 815 571 786 c 0,131,132
 571 757 571 757 551 735 c 0,133,134
 530 714 530 714 500 714 c 1,135,-1
 500 714 l 1,119,120
357 857 m 2,136,137
 327 857 327 857 306 878 c 256,138,139
 285 899 285 899 286 929 c 256,140,141
 286 959 286 959 306 979 c 256,142,143
 327 1000 327 1000 357 1000 c 2,144,-1
 500 1000 l 2,145,146
 530 1000 530 1000 551 979 c 256,147,148
 572 958 572 958 571 929 c 256,149,150
 571 899 571 899 551 878 c 256,151,152
 530 857 530 857 500 857 c 2,153,-1
 357 857 l 2,136,137
EndSplineSet
Validated: 37
EndChar

StartChar: J
Encoding: 74 74 34
Width: 999
VWidth: 714
Flags: W
LayerCount: 2
Fore
SplineSet
71 0 m 2,0,1
 42 0 42 0 21 21 c 0,2,3
 0 42 0 42 0 71 c 0,4,5
 0 101 0 101 21 121 c 0,6,7
 42 142 42 142 71 143 c 2,8,-1
 500 143 l 2,9,10
 530 143 530 143 551 121 c 256,11,12
 572 100 572 100 571 71 c 0,13,14
 571 42 571 42 551 21 c 0,15,16
 530 0 530 0 500 0 c 2,17,-1
 71 0 l 2,0,1
643 143 m 1,18,19
 613 143 613 143 592 164 c 256,20,21
 571 185 571 185 571 214 c 256,22,23
 571 244 571 244 592 265 c 256,24,25
 613 286 613 286 643 286 c 0,26,27
 672 286 672 286 694 265 c 0,28,29
 715 244 715 244 714 214 c 256,30,31
 714 184 714 184 694 164 c 0,32,33
 673 143 673 143 643 143 c 1,34,-1
 643 143 l 1,18,19
786 286 m 1,35,36
 757 286 757 286 735 306 c 0,37,38
 714 327 714 327 714 357 c 0,39,40
 714 386 714 386 735 407 c 0,41,42
 756 428 756 428 786 429 c 0,43,44
 816 429 816 429 836 407 c 256,45,46
 857 386 857 386 857 357 c 0,47,48
 857 327 857 327 836 306 c 256,49,50
 815 285 815 285 786 286 c 1,51,-1
 786 286 l 1,35,36
786 429 m 1,52,53
 757 429 757 429 735 449 c 0,54,55
 714 470 714 470 714 500 c 256,56,57
 714 530 714 530 735 551 c 0,58,59
 756 572 756 572 786 571 c 0,60,61
 816 571 816 571 836 551 c 256,62,63
 857 530 857 530 857 500 c 256,64,65
 857 470 857 470 836 449 c 256,66,67
 815 428 815 428 786 429 c 1,68,-1
 786 429 l 1,52,53
71 571 m 2,69,70
 42 571 42 571 21 592 c 0,71,72
 0 613 0 613 0 643 c 0,73,74
 0 672 0 672 21 694 c 0,75,76
 42 715 42 715 71 714 c 2,77,-1
 500 714 l 2,78,79
 530 714 530 714 551 694 c 0,80,81
 572 673 572 673 571 643 c 0,82,83
 571 613 571 613 551 592 c 256,84,85
 530 571 530 571 500 571 c 2,86,-1
 71 571 l 2,69,70
786 571 m 1,87,88
 757 571 757 571 735 592 c 0,89,90
 714 613 714 613 714 643 c 0,91,92
 714 672 714 672 735 694 c 0,93,94
 756 715 756 715 786 714 c 0,95,96
 816 714 816 714 836 694 c 0,97,98
 857 673 857 673 857 643 c 0,99,100
 857 613 857 613 836 592 c 256,101,102
 815 571 815 571 786 571 c 1,103,-1
 786 571 l 1,87,88
643 714 m 2,104,105
 613 714 613 714 592 735 c 0,106,107
 571 756 571 756 571 786 c 0,108,109
 571 816 571 816 592 836 c 256,110,111
 613 857 613 857 643 857 c 2,112,-1
 786 857 l 2,113,114
 816 857 816 857 836 836 c 256,115,116
 857 815 857 815 857 786 c 0,117,118
 857 757 857 757 836 735 c 0,119,120
 815 714 815 714 786 714 c 2,121,-1
 643 714 l 2,104,105
786 857 m 1,122,123
 757 857 757 857 735 878 c 0,124,125
 714 899 714 899 714 929 c 256,126,127
 714 959 714 959 735 979 c 0,128,129
 756 1000 756 1000 786 1000 c 0,130,131
 816 1000 816 1000 836 979 c 256,132,133
 857 958 857 958 857 929 c 256,134,135
 857 899 857 899 836 878 c 256,136,137
 815 857 815 857 786 857 c 1,138,-1
 786 857 l 1,122,123
EndSplineSet
Validated: 37
EndChar

StartChar: K
Encoding: 75 75 35
Width: 999
VWidth: 714
Flags: W
LayerCount: 2
Fore
SplineSet
71 0 m 2,0,1
 42 0 42 0 21 21 c 0,2,3
 0 42 0 42 0 71 c 0,4,5
 0 101 0 101 21 121 c 0,6,7
 42 142 42 142 71 143 c 2,8,-1
 786 143 l 2,9,10
 816 143 816 143 836 121 c 256,11,12
 857 100 857 100 857 71 c 0,13,14
 857 42 857 42 836 21 c 0,15,16
 815 0 815 0 786 0 c 2,17,-1
 71 0 l 2,0,1
786 143 m 1,18,19
 757 143 757 143 735 164 c 0,20,21
 714 185 714 185 714 214 c 256,22,23
 714 244 714 244 735 265 c 0,24,25
 756 286 756 286 786 286 c 0,26,27
 816 286 816 286 836 265 c 256,28,29
 857 244 857 244 857 214 c 256,30,31
 857 184 857 184 836 164 c 256,32,33
 815 143 815 143 786 143 c 1,34,-1
 786 143 l 1,18,19
786 286 m 1,35,36
 757 286 757 286 735 306 c 0,37,38
 714 327 714 327 714 357 c 0,39,40
 714 386 714 386 735 407 c 0,41,42
 756 428 756 428 786 429 c 0,43,44
 816 429 816 429 836 407 c 256,45,46
 857 386 857 386 857 357 c 0,47,48
 857 327 857 327 836 306 c 256,49,50
 815 285 815 285 786 286 c 1,51,-1
 786 286 l 1,35,36
786 429 m 1,52,53
 757 429 757 429 735 449 c 0,54,55
 714 470 714 470 714 500 c 256,56,57
 714 530 714 530 735 551 c 0,58,59
 756 572 756 572 786 571 c 0,60,61
 816 571 816 571 836 551 c 256,62,63
 857 530 857 530 857 500 c 256,64,65
 857 470 857 470 836 449 c 256,66,67
 815 428 815 428 786 429 c 1,68,-1
 786 429 l 1,52,53
786 571 m 1,69,70
 757 571 757 571 735 592 c 0,71,72
 714 613 714 613 714 643 c 0,73,74
 714 672 714 672 735 694 c 0,75,76
 756 715 756 715 786 714 c 0,77,78
 816 714 816 714 836 694 c 0,79,80
 857 673 857 673 857 643 c 0,81,82
 857 613 857 613 836 592 c 256,83,84
 815 571 815 571 786 571 c 1,85,-1
 786 571 l 1,69,70
786 714 m 1,86,87
 757 714 757 714 735 735 c 0,88,89
 714 756 714 756 714 786 c 0,90,91
 714 816 714 816 735 836 c 0,92,93
 756 857 756 857 786 857 c 0,94,95
 816 857 816 857 836 836 c 256,96,97
 857 815 857 815 857 786 c 0,98,99
 857 757 857 757 836 735 c 0,100,101
 815 714 815 714 786 714 c 1,102,-1
 786 714 l 1,86,87
71 857 m 2,103,104
 42 857 42 857 21 878 c 0,105,106
 0 899 0 899 0 929 c 256,107,108
 0 959 0 959 21 979 c 0,109,110
 42 1000 42 1000 71 1000 c 2,111,-1
 786 1000 l 2,112,113
 816 1000 816 1000 836 979 c 256,114,115
 857 958 857 958 857 929 c 256,116,117
 857 899 857 899 836 878 c 256,118,119
 815 857 815 857 786 857 c 2,120,-1
 71 857 l 2,103,104
EndSplineSet
Validated: 37
EndChar

StartChar: L
Encoding: 76 76 36
Width: 999
VWidth: 714
Flags: W
LayerCount: 2
Fore
SplineSet
500 0 m 2,0,1
 470 0 470 0 449 21 c 0,2,3
 428 42 428 42 429 71 c 0,4,5
 429 101 429 101 449 121 c 256,6,7
 470 142 470 142 500 143 c 2,8,-1
 643 143 l 2,9,10
 672 143 672 143 694 121 c 0,11,12
 715 100 715 100 714 71 c 0,13,14
 714 42 714 42 694 21 c 0,15,16
 673 0 673 0 643 0 c 2,17,-1
 500 0 l 2,0,1
357 143 m 1,18,19
 327 143 327 143 306 164 c 256,20,21
 285 185 285 185 286 214 c 256,22,23
 286 244 286 244 306 265 c 256,24,25
 327 286 327 286 357 286 c 0,26,27
 386 286 386 286 407 265 c 256,28,29
 428 244 428 244 429 214 c 256,30,31
 429 184 429 184 407 164 c 256,32,33
 386 143 386 143 357 143 c 1,34,-1
 357 143 l 1,18,19
643 143 m 1,35,36
 613 143 613 143 592 164 c 256,37,38
 571 185 571 185 571 214 c 256,39,40
 571 244 571 244 592 265 c 256,41,42
 613 286 613 286 643 286 c 0,43,44
 672 286 672 286 694 265 c 0,45,46
 715 244 715 244 714 214 c 256,47,48
 714 184 714 184 694 164 c 0,49,50
 673 143 673 143 643 143 c 1,51,-1
 643 143 l 1,35,36
214 286 m 1,52,53
 184 286 184 286 164 306 c 256,54,55
 143 327 143 327 143 357 c 0,56,57
 143 386 143 386 164 407 c 256,58,59
 185 428 185 428 214 429 c 256,60,61
 244 429 244 429 265 407 c 256,62,63
 286 386 286 386 286 357 c 0,64,65
 286 327 286 327 265 306 c 256,66,67
 244 285 244 285 214 286 c 1,68,-1
 214 286 l 1,52,53
643 286 m 1,69,70
 613 286 613 286 592 306 c 256,71,72
 571 327 571 327 571 357 c 0,73,74
 571 386 571 386 592 407 c 256,75,76
 613 428 613 428 643 429 c 0,77,78
 672 429 672 429 694 407 c 0,79,80
 715 386 715 386 714 357 c 0,81,82
 714 327 714 327 694 306 c 0,83,84
 673 285 673 285 643 286 c 1,85,-1
 643 286 l 1,69,70
71 429 m 1,86,87
 42 429 42 429 21 449 c 0,88,89
 0 470 0 470 0 500 c 256,90,91
 0 530 0 530 21 551 c 0,92,93
 42 572 42 572 71 571 c 0,94,95
 101 571 101 571 121 551 c 256,96,97
 142 530 142 530 143 500 c 256,98,99
 143 470 143 470 121 449 c 256,100,101
 100 428 100 428 71 429 c 1,102,-1
 71 429 l 1,86,87
643 429 m 1,103,104
 613 429 613 429 592 449 c 256,105,106
 571 470 571 470 571 500 c 256,107,108
 571 530 571 530 592 551 c 256,109,110
 613 572 613 572 643 571 c 0,111,112
 672 571 672 571 694 551 c 0,113,114
 715 530 715 530 714 500 c 256,115,116
 714 470 714 470 694 449 c 0,117,118
 673 428 673 428 643 429 c 1,119,-1
 643 429 l 1,103,104
643 571 m 1,120,121
 613 571 613 571 592 592 c 256,122,123
 571 613 571 613 571 643 c 0,124,125
 571 672 571 672 592 694 c 0,126,127
 613 715 613 715 643 714 c 0,128,129
 672 714 672 714 694 694 c 0,130,131
 715 673 715 673 714 643 c 0,132,133
 714 613 714 613 694 592 c 0,134,135
 673 571 673 571 643 571 c 1,136,-1
 643 571 l 1,120,121
643 714 m 1,137,138
 613 714 613 714 592 735 c 0,139,140
 571 756 571 756 571 786 c 0,141,142
 571 816 571 816 592 836 c 256,143,144
 613 857 613 857 643 857 c 0,145,146
 672 857 672 857 694 836 c 0,147,148
 715 815 715 815 714 786 c 0,149,150
 714 757 714 757 694 735 c 0,151,152
 673 714 673 714 643 714 c 1,153,-1
 643 714 l 1,137,138
643 857 m 2,154,155
 613 857 613 857 592 878 c 256,156,157
 571 899 571 899 571 929 c 256,158,159
 571 959 571 959 592 979 c 256,160,161
 613 1000 613 1000 643 1000 c 2,162,-1
 786 1000 l 2,163,164
 816 1000 816 1000 836 979 c 256,165,166
 857 958 857 958 857 929 c 256,167,168
 857 899 857 899 836 878 c 256,169,170
 815 857 815 857 786 857 c 2,171,-1
 643 857 l 2,154,155
EndSplineSet
Validated: 37
EndChar

StartChar: M
Encoding: 77 77 37
Width: 999
VWidth: 714
Flags: W
LayerCount: 2
Fore
SplineSet
71 0 m 2,0,1
 42 0 42 0 21 21 c 0,2,3
 0 42 0 42 0 71 c 0,4,5
 0 101 0 101 21 121 c 0,6,7
 42 142 42 142 71 143 c 2,8,-1
 786 143 l 2,9,10
 816 143 816 143 836 121 c 256,11,12
 857 100 857 100 857 71 c 0,13,14
 857 42 857 42 836 21 c 0,15,16
 815 0 815 0 786 0 c 2,17,-1
 71 0 l 2,0,1
214 143 m 1,18,19
 184 143 184 143 164 164 c 256,20,21
 143 185 143 185 143 214 c 256,22,23
 143 244 143 244 164 265 c 256,24,25
 185 286 185 286 214 286 c 256,26,27
 244 286 244 286 265 265 c 256,28,29
 286 244 286 244 286 214 c 256,30,31
 286 184 286 184 265 164 c 256,32,33
 244 143 244 143 214 143 c 1,34,-1
 214 143 l 1,18,19
214 286 m 1,35,36
 184 286 184 286 164 306 c 256,37,38
 143 327 143 327 143 357 c 0,39,40
 143 386 143 386 164 407 c 256,41,42
 185 428 185 428 214 429 c 256,43,44
 244 429 244 429 265 407 c 256,45,46
 286 386 286 386 286 357 c 0,47,48
 286 327 286 327 265 306 c 256,49,50
 244 285 244 285 214 286 c 1,51,-1
 214 286 l 1,35,36
214 429 m 1,52,53
 184 429 184 429 164 449 c 256,54,55
 143 470 143 470 143 500 c 256,56,57
 143 530 143 530 164 551 c 256,58,59
 185 572 185 572 214 571 c 256,60,61
 244 571 244 571 265 551 c 256,62,63
 286 530 286 530 286 500 c 256,64,65
 286 470 286 470 265 449 c 256,66,67
 244 428 244 428 214 429 c 1,68,-1
 214 429 l 1,52,53
357 571 m 1,69,70
 327 571 327 571 306 592 c 256,71,72
 285 613 285 613 286 643 c 0,73,74
 286 672 286 672 306 694 c 0,75,76
 327 715 327 715 357 714 c 0,77,78
 386 714 386 714 407 694 c 0,79,80
 428 673 428 673 429 643 c 0,81,82
 429 613 429 613 407 592 c 256,83,84
 386 571 386 571 357 571 c 1,85,-1
 357 571 l 1,69,70
500 714 m 1,86,87
 470 714 470 714 449 735 c 0,88,89
 428 756 428 756 429 786 c 0,90,91
 429 816 429 816 449 836 c 256,92,93
 470 857 470 857 500 857 c 256,94,95
 530 857 530 857 551 836 c 256,96,97
 572 815 572 815 571 786 c 0,98,99
 571 757 571 757 551 735 c 0,100,101
 530 714 530 714 500 714 c 1,102,-1
 500 714 l 1,86,87
643 857 m 2,103,104
 613 857 613 857 592 878 c 256,105,106
 571 899 571 899 571 929 c 256,107,108
 571 959 571 959 592 979 c 256,109,110
 613 1000 613 1000 643 1000 c 2,111,-1
 786 1000 l 2,112,113
 816 1000 816 1000 836 979 c 256,114,115
 857 958 857 958 857 929 c 256,116,117
 857 899 857 899 836 878 c 256,118,119
 815 857 815 857 786 857 c 2,120,-1
 643 857 l 2,103,104
EndSplineSet
Validated: 37
EndChar

StartChar: N
Encoding: 78 78 38
Width: 999
VWidth: 714
Flags: W
LayerCount: 2
Fore
SplineSet
214 0 m 1,0,1
 184 0 184 0 164 21 c 0,2,3
 143 42 143 42 143 71 c 0,4,5
 143 101 143 101 164 121 c 256,6,7
 185 142 185 142 214 143 c 256,8,9
 244 143 244 143 265 121 c 256,10,11
 286 100 286 100 286 71 c 0,12,13
 286 42 286 42 265 21 c 0,14,15
 244 0 244 0 214 0 c 1,16,-1
 214 0 l 1,0,1
786 0 m 1,17,18
 757 0 757 0 735 21 c 0,19,20
 714 42 714 42 714 71 c 0,21,22
 714 101 714 101 735 121 c 0,23,24
 756 142 756 142 786 143 c 0,25,26
 816 143 816 143 836 121 c 256,27,28
 857 100 857 100 857 71 c 0,29,30
 857 42 857 42 836 21 c 0,31,32
 815 0 815 0 786 0 c 1,33,-1
 786 0 l 1,17,18
71 143 m 1,34,35
 42 143 42 143 21 164 c 0,36,37
 0 185 0 185 0 214 c 256,38,39
 0 244 0 244 21 265 c 0,40,41
 42 286 42 286 71 286 c 0,42,43
 101 286 101 286 121 265 c 256,44,45
 142 244 142 244 143 214 c 256,46,47
 143 184 143 184 121 164 c 256,48,49
 100 143 100 143 71 143 c 1,50,-1
 71 143 l 1,34,35
357 143 m 1,51,52
 327 143 327 143 306 164 c 256,53,54
 285 185 285 185 286 214 c 256,55,56
 286 244 286 244 306 265 c 256,57,58
 327 286 327 286 357 286 c 0,59,60
 386 286 386 286 407 265 c 256,61,62
 428 244 428 244 429 214 c 256,63,64
 429 184 429 184 407 164 c 256,65,66
 386 143 386 143 357 143 c 1,67,-1
 357 143 l 1,51,52
786 143 m 1,68,69
 757 143 757 143 735 164 c 0,70,71
 714 185 714 185 714 214 c 256,72,73
 714 244 714 244 735 265 c 0,74,75
 756 286 756 286 786 286 c 0,76,77
 816 286 816 286 836 265 c 256,78,79
 857 244 857 244 857 214 c 256,80,81
 857 184 857 184 836 164 c 256,82,83
 815 143 815 143 786 143 c 1,84,-1
 786 143 l 1,68,69
71 286 m 1,85,86
 42 286 42 286 21 306 c 0,87,88
 0 327 0 327 0 357 c 0,89,90
 0 386 0 386 21 407 c 0,91,92
 42 428 42 428 71 429 c 0,93,94
 101 429 101 429 121 407 c 256,95,96
 142 386 142 386 143 357 c 0,97,98
 143 327 143 327 121 306 c 256,99,100
 100 285 100 285 71 286 c 1,101,-1
 71 286 l 1,85,86
357 286 m 1,102,103
 327 286 327 286 306 306 c 256,104,105
 285 327 285 327 286 357 c 0,106,107
 286 386 286 386 306 407 c 256,108,109
 327 428 327 428 357 429 c 0,110,111
 386 429 386 429 407 407 c 256,112,113
 428 386 428 386 429 357 c 0,114,115
 429 327 429 327 407 306 c 256,116,117
 386 285 386 285 357 286 c 1,118,-1
 357 286 l 1,102,103
786 286 m 1,119,120
 757 286 757 286 735 306 c 0,121,122
 714 327 714 327 714 357 c 0,123,124
 714 386 714 386 735 407 c 0,125,126
 756 428 756 428 786 429 c 0,127,128
 816 429 816 429 836 407 c 256,129,130
 857 386 857 386 857 357 c 0,131,132
 857 327 857 327 836 306 c 256,133,134
 815 285 815 285 786 286 c 1,135,-1
 786 286 l 1,119,120
71 429 m 1,136,137
 42 429 42 429 21 449 c 0,138,139
 0 470 0 470 0 500 c 256,140,141
 0 530 0 530 21 551 c 0,142,143
 42 572 42 572 71 571 c 0,144,145
 101 571 101 571 121 551 c 256,146,147
 142 530 142 530 143 500 c 256,148,149
 143 470 143 470 121 449 c 256,150,151
 100 428 100 428 71 429 c 1,152,-1
 71 429 l 1,136,137
357 429 m 1,153,154
 327 429 327 429 306 449 c 256,155,156
 285 470 285 470 286 500 c 256,157,158
 286 530 286 530 306 551 c 256,159,160
 327 572 327 572 357 571 c 0,161,162
 386 571 386 571 407 551 c 256,163,164
 428 530 428 530 429 500 c 256,165,166
 429 470 429 470 407 449 c 256,167,168
 386 428 386 428 357 429 c 1,169,-1
 357 429 l 1,153,154
786 429 m 1,170,171
 757 429 757 429 735 449 c 0,172,173
 714 470 714 470 714 500 c 256,174,175
 714 530 714 530 735 551 c 0,176,177
 756 572 756 572 786 571 c 0,178,179
 816 571 816 571 836 551 c 256,180,181
 857 530 857 530 857 500 c 256,182,183
 857 470 857 470 836 449 c 256,184,185
 815 428 815 428 786 429 c 1,186,-1
 786 429 l 1,170,171
71 571 m 1,187,188
 42 571 42 571 21 592 c 0,189,190
 0 613 0 613 0 643 c 0,191,192
 0 672 0 672 21 694 c 0,193,194
 42 715 42 715 71 714 c 0,195,196
 101 714 101 714 121 694 c 0,197,198
 142 673 142 673 143 643 c 0,199,200
 143 613 143 613 121 592 c 256,201,202
 100 571 100 571 71 571 c 1,203,-1
 71 571 l 1,187,188
500 571 m 1,204,205
 470 571 470 571 449 592 c 256,206,207
 428 613 428 613 429 643 c 0,208,209
 429 672 429 672 449 694 c 0,210,211
 470 715 470 715 500 714 c 256,212,213
 530 714 530 714 551 694 c 0,214,215
 572 673 572 673 571 643 c 0,216,217
 571 613 571 613 551 592 c 256,218,219
 530 571 530 571 500 571 c 1,220,-1
 500 571 l 1,204,205
786 571 m 1,221,222
 757 571 757 571 735 592 c 0,223,224
 714 613 714 613 714 643 c 0,225,226
 714 672 714 672 735 694 c 0,227,228
 756 715 756 715 786 714 c 0,229,230
 816 714 816 714 836 694 c 0,231,232
 857 673 857 673 857 643 c 0,233,234
 857 613 857 613 836 592 c 256,235,236
 815 571 815 571 786 571 c 1,237,-1
 786 571 l 1,221,222
71 714 m 1,238,239
 42 714 42 714 21 735 c 0,240,241
 0 756 0 756 0 786 c 0,242,243
 0 816 0 816 21 836 c 0,244,245
 42 857 42 857 71 857 c 0,246,247
 101 857 101 857 121 836 c 256,248,249
 142 815 142 815 143 786 c 0,250,251
 143 757 143 757 121 735 c 0,252,253
 100 714 100 714 71 714 c 1,254,-1
 71 714 l 1,238,239
643 714 m 1,255,256
 613 714 613 714 592 735 c 0,257,258
 571 756 571 756 571 786 c 0,259,260
 571 816 571 816 592 836 c 256,261,262
 613 857 613 857 643 857 c 0,263,264
 672 857 672 857 694 836 c 0,265,266
 715 815 715 815 714 786 c 0,267,268
 714 757 714 757 694 735 c 0,269,270
 673 714 673 714 643 714 c 1,271,-1
 643 714 l 1,255,256
214 857 m 1,272,273
 184 857 184 857 164 878 c 256,274,275
 143 899 143 899 143 929 c 256,276,277
 143 959 143 959 164 979 c 256,278,279
 185 1000 185 1000 214 1000 c 256,280,281
 244 1000 244 1000 265 979 c 256,282,283
 286 958 286 958 286 929 c 256,284,285
 286 899 286 899 265 878 c 256,286,287
 244 857 244 857 214 857 c 1,288,-1
 214 857 l 1,272,273
643 857 m 1,289,290
 613 857 613 857 592 878 c 256,291,292
 571 899 571 899 571 929 c 256,293,294
 571 959 571 959 592 979 c 256,295,296
 613 1000 613 1000 643 1000 c 0,297,298
 672 1000 672 1000 694 979 c 0,299,300
 715 958 715 958 714 929 c 256,301,302
 714 899 714 899 694 878 c 0,303,304
 673 857 673 857 643 857 c 1,305,-1
 643 857 l 1,289,290
EndSplineSet
Validated: 37
EndChar

StartChar: O
Encoding: 79 79 39
Width: 999
VWidth: 714
Flags: W
LayerCount: 2
Fore
SplineSet
71 0 m 2,0,1
 42 0 42 0 21 21 c 0,2,3
 0 42 0 42 0 71 c 0,4,5
 0 101 0 101 21 121 c 0,6,7
 42 142 42 142 71 143 c 2,8,-1
 786 143 l 2,9,10
 816 143 816 143 836 121 c 256,11,12
 857 100 857 100 857 71 c 0,13,14
 857 42 857 42 836 21 c 0,15,16
 815 0 815 0 786 0 c 2,17,-1
 71 0 l 2,0,1
71 143 m 1,18,19
 42 143 42 143 21 164 c 0,20,21
 0 185 0 185 0 214 c 256,22,23
 0 244 0 244 21 265 c 0,24,25
 42 286 42 286 71 286 c 0,26,27
 101 286 101 286 121 265 c 256,28,29
 142 244 142 244 143 214 c 256,30,31
 143 184 143 184 121 164 c 256,32,33
 100 143 100 143 71 143 c 1,34,-1
 71 143 l 1,18,19
786 143 m 1,35,36
 757 143 757 143 735 164 c 0,37,38
 714 185 714 185 714 214 c 256,39,40
 714 244 714 244 735 265 c 0,41,42
 756 286 756 286 786 286 c 0,43,44
 816 286 816 286 836 265 c 256,45,46
 857 244 857 244 857 214 c 256,47,48
 857 184 857 184 836 164 c 256,49,50
 815 143 815 143 786 143 c 1,51,-1
 786 143 l 1,35,36
71 286 m 1,52,53
 42 286 42 286 21 306 c 0,54,55
 0 327 0 327 0 357 c 0,56,57
 0 386 0 386 21 407 c 0,58,59
 42 428 42 428 71 429 c 0,60,61
 101 429 101 429 121 407 c 256,62,63
 142 386 142 386 143 357 c 0,64,65
 143 327 143 327 121 306 c 256,66,67
 100 285 100 285 71 286 c 1,68,-1
 71 286 l 1,52,53
786 286 m 1,69,70
 757 286 757 286 735 306 c 0,71,72
 714 327 714 327 714 357 c 0,73,74
 714 386 714 386 735 407 c 0,75,76
 756 428 756 428 786 429 c 0,77,78
 816 429 816 429 836 407 c 256,79,80
 857 386 857 386 857 357 c 0,81,82
 857 327 857 327 836 306 c 256,83,84
 815 285 815 285 786 286 c 1,85,-1
 786 286 l 1,69,70
71 429 m 1,86,87
 42 429 42 429 21 449 c 0,88,89
 0 470 0 470 0 500 c 256,90,91
 0 530 0 530 21 551 c 0,92,93
 42 572 42 572 71 571 c 0,94,95
 101 571 101 571 121 551 c 256,96,97
 142 530 142 530 143 500 c 256,98,99
 143 470 143 470 121 449 c 256,100,101
 100 428 100 428 71 429 c 1,102,-1
 71 429 l 1,86,87
786 429 m 1,103,104
 757 429 757 429 735 449 c 0,105,106
 714 470 714 470 714 500 c 256,107,108
 714 530 714 530 735 551 c 0,109,110
 756 572 756 572 786 571 c 0,111,112
 816 571 816 571 836 551 c 256,113,114
 857 530 857 530 857 500 c 256,115,116
 857 470 857 470 836 449 c 256,117,118
 815 428 815 428 786 429 c 1,119,-1
 786 429 l 1,103,104
71 571 m 1,120,121
 42 571 42 571 21 592 c 0,122,123
 0 613 0 613 0 643 c 0,124,125
 0 672 0 672 21 694 c 0,126,127
 42 715 42 715 71 714 c 0,128,129
 101 714 101 714 121 694 c 0,130,131
 142 673 142 673 143 643 c 0,132,133
 143 613 143 613 121 592 c 256,134,135
 100 571 100 571 71 571 c 1,136,-1
 71 571 l 1,120,121
786 571 m 1,137,138
 757 571 757 571 735 592 c 0,139,140
 714 613 714 613 714 643 c 0,141,142
 714 672 714 672 735 694 c 0,143,144
 756 715 756 715 786 714 c 0,145,146
 816 714 816 714 836 694 c 0,147,148
 857 673 857 673 857 643 c 0,149,150
 857 613 857 613 836 592 c 256,151,152
 815 571 815 571 786 571 c 1,153,-1
 786 571 l 1,137,138
214 714 m 1,154,155
 184 714 184 714 164 735 c 0,156,157
 143 756 143 756 143 786 c 0,158,159
 143 816 143 816 164 836 c 256,160,161
 185 857 185 857 214 857 c 256,162,163
 244 857 244 857 265 836 c 256,164,165
 286 815 286 815 286 786 c 0,166,167
 286 757 286 757 265 735 c 0,168,169
 244 714 244 714 214 714 c 1,170,-1
 214 714 l 1,154,155
643 714 m 1,171,172
 613 714 613 714 592 735 c 0,173,174
 571 756 571 756 571 786 c 0,175,176
 571 816 571 816 592 836 c 256,177,178
 613 857 613 857 643 857 c 0,179,180
 672 857 672 857 694 836 c 0,181,182
 715 815 715 815 714 786 c 0,183,184
 714 757 714 757 694 735 c 0,185,186
 673 714 673 714 643 714 c 1,187,-1
 643 714 l 1,171,172
357 857 m 2,188,189
 327 857 327 857 306 878 c 256,190,191
 285 899 285 899 286 929 c 256,192,193
 286 959 286 959 306 979 c 256,194,195
 327 1000 327 1000 357 1000 c 2,196,-1
 500 1000 l 2,197,198
 530 1000 530 1000 551 979 c 256,199,200
 572 958 572 958 571 929 c 256,201,202
 571 899 571 899 551 878 c 256,203,204
 530 857 530 857 500 857 c 2,205,-1
 357 857 l 2,188,189
EndSplineSet
Validated: 37
EndChar

StartChar: P
Encoding: 80 80 40
Width: 999
VWidth: 714
Flags: W
LayerCount: 2
Fore
SplineSet
214 0 m 2,0,1
 184 0 184 0 164 21 c 0,2,3
 143 42 143 42 143 71 c 0,4,5
 143 101 143 101 164 121 c 256,6,7
 185 142 185 142 214 143 c 2,8,-1
 643 143 l 2,9,10
 672 143 672 143 694 121 c 0,11,12
 715 100 715 100 714 71 c 0,13,14
 714 42 714 42 694 21 c 0,15,16
 673 0 673 0 643 0 c 2,17,-1
 214 0 l 2,0,1
71 143 m 1,18,19
 42 143 42 143 21 164 c 0,20,21
 0 185 0 185 0 214 c 256,22,23
 0 244 0 244 21 265 c 0,24,25
 42 286 42 286 71 286 c 0,26,27
 101 286 101 286 121 265 c 256,28,29
 142 244 142 244 143 214 c 256,30,31
 143 184 143 184 121 164 c 256,32,33
 100 143 100 143 71 143 c 1,34,-1
 71 143 l 1,18,19
643 143 m 1,35,36
 613 143 613 143 592 164 c 256,37,38
 571 185 571 185 571 214 c 256,39,40
 571 244 571 244 592 265 c 256,41,42
 613 286 613 286 643 286 c 0,43,44
 672 286 672 286 694 265 c 0,45,46
 715 244 715 244 714 214 c 256,47,48
 714 184 714 184 694 164 c 0,49,50
 673 143 673 143 643 143 c 1,51,-1
 643 143 l 1,35,36
71 286 m 1,52,53
 42 286 42 286 21 306 c 0,54,55
 0 327 0 327 0 357 c 0,56,57
 0 386 0 386 21 407 c 0,58,59
 42 428 42 428 71 429 c 0,60,61
 101 429 101 429 121 407 c 256,62,63
 142 386 142 386 143 357 c 0,64,65
 143 327 143 327 121 306 c 256,66,67
 100 285 100 285 71 286 c 1,68,-1
 71 286 l 1,52,53
643 286 m 1,69,70
 613 286 613 286 592 306 c 256,71,72
 571 327 571 327 571 357 c 0,73,74
 571 386 571 386 592 407 c 256,75,76
 613 428 613 428 643 429 c 0,77,78
 672 429 672 429 694 407 c 0,79,80
 715 386 715 386 714 357 c 0,81,82
 714 327 714 327 694 306 c 0,83,84
 673 285 673 285 643 286 c 1,85,-1
 643 286 l 1,69,70
71 429 m 1,86,87
 42 429 42 429 21 449 c 0,88,89
 0 470 0 470 0 500 c 256,90,91
 0 530 0 530 21 551 c 0,92,93
 42 572 42 572 71 571 c 0,94,95
 101 571 101 571 121 551 c 256,96,97
 142 530 142 530 143 500 c 256,98,99
 143 470 143 470 121 449 c 256,100,101
 100 428 100 428 71 429 c 1,102,-1
 71 429 l 1,86,87
643 429 m 1,103,104
 613 429 613 429 592 449 c 256,105,106
 571 470 571 470 571 500 c 256,107,108
 571 530 571 530 592 551 c 256,109,110
 613 572 613 572 643 571 c 0,111,112
 672 571 672 571 694 551 c 0,113,114
 715 530 715 530 714 500 c 256,115,116
 714 470 714 470 694 449 c 0,117,118
 673 428 673 428 643 429 c 1,119,-1
 643 429 l 1,103,104
71 571 m 1,120,121
 42 571 42 571 21 592 c 0,122,123
 0 613 0 613 0 643 c 0,124,125
 0 672 0 672 21 694 c 0,126,127
 42 715 42 715 71 714 c 0,128,129
 101 714 101 714 121 694 c 0,130,131
 142 673 142 673 143 643 c 0,132,133
 143 613 143 613 121 592 c 256,134,135
 100 571 100 571 71 571 c 1,136,-1
 71 571 l 1,120,121
357 571 m 1,137,138
 327 571 327 571 306 592 c 256,139,140
 285 613 285 613 286 643 c 0,141,142
 286 672 286 672 306 694 c 0,143,144
 327 715 327 715 357 714 c 0,145,146
 386 714 386 714 407 694 c 0,147,148
 428 673 428 673 429 643 c 0,149,150
 429 613 429 613 407 592 c 256,151,152
 386 571 386 571 357 571 c 1,153,-1
 357 571 l 1,137,138
643 571 m 1,154,155
 613 571 613 571 592 592 c 256,156,157
 571 613 571 613 571 643 c 0,158,159
 571 672 571 672 592 694 c 0,160,161
 613 715 613 715 643 714 c 0,162,163
 672 714 672 714 694 694 c 0,164,165
 715 673 715 673 714 643 c 0,166,167
 714 613 714 613 694 592 c 0,168,169
 673 571 673 571 643 571 c 1,170,-1
 643 571 l 1,154,155
71 714 m 1,171,172
 42 714 42 714 21 735 c 0,173,174
 0 756 0 756 0 786 c 0,175,176
 0 816 0 816 21 836 c 0,177,178
 42 857 42 857 71 857 c 0,179,180
 101 857 101 857 121 836 c 256,181,182
 142 815 142 815 143 786 c 0,183,184
 143 757 143 757 121 735 c 0,185,186
 100 714 100 714 71 714 c 1,187,-1
 71 714 l 1,171,172
357 714 m 1,188,189
 327 714 327 714 306 735 c 0,190,191
 285 756 285 756 286 786 c 0,192,193
 286 816 286 816 306 836 c 256,194,195
 327 857 327 857 357 857 c 0,196,197
 386 857 386 857 407 836 c 256,198,199
 428 815 428 815 429 786 c 0,200,201
 429 757 429 757 407 735 c 0,202,203
 386 714 386 714 357 714 c 1,204,-1
 357 714 l 1,188,189
643 714 m 1,205,206
 613 714 613 714 592 735 c 0,207,208
 571 756 571 756 571 786 c 0,209,210
 571 816 571 816 592 836 c 256,211,212
 613 857 613 857 643 857 c 0,213,214
 672 857 672 857 694 836 c 0,215,216
 715 815 715 815 714 786 c 0,217,218
 714 757 714 757 694 735 c 0,219,220
 673 714 673 714 643 714 c 1,221,-1
 643 714 l 1,205,206
214 857 m 2,222,223
 184 857 184 857 164 878 c 256,224,225
 143 899 143 899 143 929 c 256,226,227
 143 959 143 959 164 979 c 256,228,229
 185 1000 185 1000 214 1000 c 2,230,-1
 357 1000 l 2,231,232
 386 1000 386 1000 407 979 c 256,233,234
 428 958 428 958 429 929 c 256,235,236
 429 899 429 899 407 878 c 256,237,238
 386 857 386 857 357 857 c 2,239,-1
 214 857 l 2,222,223
643 857 m 2,240,241
 613 857 613 857 592 878 c 256,242,243
 571 899 571 899 571 929 c 256,244,245
 571 959 571 959 592 979 c 256,246,247
 613 1000 613 1000 643 1000 c 2,248,-1
 786 1000 l 2,249,250
 816 1000 816 1000 836 979 c 256,251,252
 857 958 857 958 857 929 c 256,253,254
 857 899 857 899 836 878 c 256,255,256
 815 857 815 857 786 857 c 2,257,-1
 643 857 l 2,240,241
EndSplineSet
Validated: 37
EndChar

StartChar: Q
Encoding: 81 81 41
Width: 999
VWidth: 714
Flags: W
LayerCount: 2
Fore
SplineSet
71 0 m 2,0,1
 42 0 42 0 21 21 c 0,2,3
 0 42 0 42 0 71 c 0,4,5
 0 101 0 101 21 121 c 0,6,7
 42 142 42 142 71 143 c 2,8,-1
 500 143 l 2,9,10
 530 143 530 143 551 121 c 256,11,12
 572 100 572 100 571 71 c 0,13,14
 571 42 571 42 551 21 c 0,15,16
 530 0 530 0 500 0 c 2,17,-1
 71 0 l 2,0,1
71 143 m 1,18,19
 42 143 42 143 21 164 c 0,20,21
 0 185 0 185 0 214 c 256,22,23
 0 244 0 244 21 265 c 0,24,25
 42 286 42 286 71 286 c 0,26,27
 101 286 101 286 121 265 c 256,28,29
 142 244 142 244 143 214 c 256,30,31
 143 184 143 184 121 164 c 256,32,33
 100 143 100 143 71 143 c 1,34,-1
 71 143 l 1,18,19
71 286 m 1,35,36
 42 286 42 286 21 306 c 0,37,38
 0 327 0 327 0 357 c 0,39,40
 0 386 0 386 21 407 c 0,41,42
 42 428 42 428 71 429 c 0,43,44
 101 429 101 429 121 407 c 256,45,46
 142 386 142 386 143 357 c 0,47,48
 143 327 143 327 121 306 c 256,49,50
 100 285 100 285 71 286 c 1,51,-1
 71 286 l 1,35,36
71 429 m 1,52,53
 42 429 42 429 21 449 c 0,54,55
 0 470 0 470 0 500 c 256,56,57
 0 530 0 530 21 551 c 0,58,59
 42 572 42 572 71 571 c 0,60,61
 101 571 101 571 121 551 c 256,62,63
 142 530 142 530 143 500 c 256,64,65
 143 470 143 470 121 449 c 256,66,67
 100 428 100 428 71 429 c 1,68,-1
 71 429 l 1,52,53
786 429 m 1,69,70
 757 429 757 429 735 449 c 0,71,72
 714 470 714 470 714 500 c 256,73,74
 714 530 714 530 735 551 c 0,75,76
 756 572 756 572 786 571 c 0,77,78
 816 571 816 571 836 551 c 256,79,80
 857 530 857 530 857 500 c 256,81,82
 857 470 857 470 836 449 c 256,83,84
 815 428 815 428 786 429 c 1,85,-1
 786 429 l 1,69,70
71 571 m 1,86,87
 42 571 42 571 21 592 c 0,88,89
 0 613 0 613 0 643 c 0,90,91
 0 672 0 672 21 694 c 0,92,93
 42 715 42 715 71 714 c 0,94,95
 101 714 101 714 121 694 c 0,96,97
 142 673 142 673 143 643 c 0,98,99
 143 613 143 613 121 592 c 256,100,101
 100 571 100 571 71 571 c 1,102,-1
 71 571 l 1,86,87
786 571 m 1,103,104
 757 571 757 571 735 592 c 0,105,106
 714 613 714 613 714 643 c 0,107,108
 714 672 714 672 735 694 c 0,109,110
 756 715 756 715 786 714 c 0,111,112
 816 714 816 714 836 694 c 0,113,114
 857 673 857 673 857 643 c 0,115,116
 857 613 857 613 836 592 c 256,117,118
 815 571 815 571 786 571 c 1,119,-1
 786 571 l 1,103,104
71 714 m 1,120,121
 42 714 42 714 21 735 c 0,122,123
 0 756 0 756 0 786 c 0,124,125
 0 816 0 816 21 836 c 0,126,127
 42 857 42 857 71 857 c 0,128,129
 101 857 101 857 121 836 c 256,130,131
 142 815 142 815 143 786 c 0,132,133
 143 757 143 757 121 735 c 0,134,135
 100 714 100 714 71 714 c 1,136,-1
 71 714 l 1,120,121
786 714 m 1,137,138
 757 714 757 714 735 735 c 0,139,140
 714 756 714 756 714 786 c 0,141,142
 714 816 714 816 735 836 c 0,143,144
 756 857 756 857 786 857 c 0,145,146
 816 857 816 857 836 836 c 256,147,148
 857 815 857 815 857 786 c 0,149,150
 857 757 857 757 836 735 c 0,151,152
 815 714 815 714 786 714 c 1,153,-1
 786 714 l 1,137,138
71 857 m 2,154,155
 42 857 42 857 21 878 c 0,156,157
 0 899 0 899 0 929 c 256,158,159
 0 959 0 959 21 979 c 0,160,161
 42 1000 42 1000 71 1000 c 2,162,-1
 786 1000 l 2,163,164
 816 1000 816 1000 836 979 c 256,165,166
 857 958 857 958 857 929 c 256,167,168
 857 899 857 899 836 878 c 256,169,170
 815 857 815 857 786 857 c 2,171,-1
 71 857 l 2,154,155
EndSplineSet
Validated: 37
EndChar

StartChar: R
Encoding: 82 82 42
Width: 999
VWidth: 714
Flags: W
LayerCount: 2
Fore
SplineSet
357 0 m 1,0,1
 327 0 327 0 306 21 c 0,2,3
 285 42 285 42 286 71 c 0,4,5
 286 101 286 101 306 121 c 256,6,7
 327 142 327 142 357 143 c 0,8,9
 386 143 386 143 407 121 c 256,10,11
 428 100 428 100 429 71 c 0,12,13
 429 42 429 42 407 21 c 0,14,15
 386 0 386 0 357 0 c 1,16,-1
 357 0 l 1,0,1
357 143 m 1,17,18
 327 143 327 143 306 164 c 256,19,20
 285 185 285 185 286 214 c 256,21,22
 286 244 286 244 306 265 c 256,23,24
 327 286 327 286 357 286 c 0,25,26
 386 286 386 286 407 265 c 256,27,28
 428 244 428 244 429 214 c 256,29,30
 429 184 429 184 407 164 c 256,31,32
 386 143 386 143 357 143 c 1,33,-1
 357 143 l 1,17,18
500 286 m 1,34,35
 470 286 470 286 449 306 c 256,36,37
 428 327 428 327 429 357 c 0,38,39
 429 386 429 386 449 407 c 256,40,41
 470 428 470 428 500 429 c 256,42,43
 530 429 530 429 551 407 c 256,44,45
 572 386 572 386 571 357 c 0,46,47
 571 327 571 327 551 306 c 256,48,49
 530 285 530 285 500 286 c 1,50,-1
 500 286 l 1,34,35
500 429 m 1,51,52
 470 429 470 429 449 449 c 256,53,54
 428 470 428 470 429 500 c 256,55,56
 429 530 429 530 449 551 c 256,57,58
 470 572 470 572 500 571 c 256,59,60
 530 571 530 571 551 551 c 256,61,62
 572 530 572 530 571 500 c 256,63,64
 571 470 571 470 551 449 c 256,65,66
 530 428 530 428 500 429 c 1,67,-1
 500 429 l 1,51,52
643 571 m 1,68,69
 613 571 613 571 592 592 c 256,70,71
 571 613 571 613 571 643 c 0,72,73
 571 672 571 672 592 694 c 0,74,75
 613 715 613 715 643 714 c 0,76,77
 672 714 672 714 694 694 c 0,78,79
 715 673 715 673 714 643 c 0,80,81
 714 613 714 613 694 592 c 0,82,83
 673 571 673 571 643 571 c 1,84,-1
 643 571 l 1,68,69
643 714 m 1,85,86
 613 714 613 714 592 735 c 0,87,88
 571 756 571 756 571 786 c 0,89,90
 571 816 571 816 592 836 c 256,91,92
 613 857 613 857 643 857 c 0,93,94
 672 857 672 857 694 836 c 0,95,96
 715 815 715 815 714 786 c 0,97,98
 714 757 714 757 694 735 c 0,99,100
 673 714 673 714 643 714 c 1,101,-1
 643 714 l 1,85,86
71 857 m 2,102,103
 42 857 42 857 21 878 c 0,104,105
 0 899 0 899 0 929 c 256,106,107
 0 959 0 959 21 979 c 0,108,109
 42 1000 42 1000 71 1000 c 2,110,-1
 786 1000 l 2,111,112
 816 1000 816 1000 836 979 c 256,113,114
 857 958 857 958 857 929 c 256,115,116
 857 899 857 899 836 878 c 256,117,118
 815 857 815 857 786 857 c 2,119,-1
 71 857 l 2,102,103
EndSplineSet
Validated: 37
EndChar

StartChar: S
Encoding: 83 83 43
Width: 999
VWidth: 714
Flags: W
LayerCount: 2
Fore
SplineSet
357 0 m 2,0,1
 327 0 327 0 306 21 c 0,2,3
 285 42 285 42 286 71 c 0,4,5
 286 101 286 101 306 121 c 256,6,7
 327 142 327 142 357 143 c 2,8,-1
 500 143 l 2,9,10
 530 143 530 143 551 121 c 256,11,12
 572 100 572 100 571 71 c 0,13,14
 571 42 571 42 551 21 c 0,15,16
 530 0 530 0 500 0 c 2,17,-1
 357 0 l 2,0,1
786 0 m 1,18,19
 757 0 757 0 735 21 c 0,20,21
 714 42 714 42 714 71 c 0,22,23
 714 101 714 101 735 121 c 0,24,25
 756 142 756 142 786 143 c 0,26,27
 816 143 816 143 836 121 c 256,28,29
 857 100 857 100 857 71 c 0,30,31
 857 42 857 42 836 21 c 0,32,33
 815 0 815 0 786 0 c 1,34,-1
 786 0 l 1,18,19
71 143 m 2,35,36
 42 143 42 143 21 164 c 0,37,38
 0 185 0 185 0 214 c 256,39,40
 0 244 0 244 21 265 c 0,41,42
 42 286 42 286 71 286 c 2,43,-1
 214 286 l 2,44,45
 244 286 244 286 265 265 c 256,46,47
 286 244 286 244 286 214 c 256,48,49
 286 184 286 184 265 164 c 256,50,51
 244 143 244 143 214 143 c 2,52,-1
 71 143 l 2,35,36
786 143 m 1,53,54
 757 143 757 143 735 164 c 0,55,56
 714 185 714 185 714 214 c 256,57,58
 714 244 714 244 735 265 c 0,59,60
 756 286 756 286 786 286 c 0,61,62
 816 286 816 286 836 265 c 256,63,64
 857 244 857 244 857 214 c 256,65,66
 857 184 857 184 836 164 c 256,67,68
 815 143 815 143 786 143 c 1,69,-1
 786 143 l 1,53,54
643 286 m 2,70,71
 613 286 613 286 592 306 c 256,72,73
 571 327 571 327 571 357 c 0,74,75
 571 386 571 386 592 407 c 256,76,77
 613 428 613 428 643 429 c 2,78,-1
 786 429 l 2,79,80
 816 429 816 429 836 407 c 256,81,82
 857 386 857 386 857 357 c 0,83,84
 857 327 857 327 836 306 c 256,85,86
 815 285 815 285 786 286 c 2,87,-1
 643 286 l 2,70,71
500 429 m 1,88,89
 470 429 470 429 449 449 c 256,90,91
 428 470 428 470 429 500 c 256,92,93
 429 530 429 530 449 551 c 256,94,95
 470 572 470 572 500 571 c 256,96,97
 530 571 530 571 551 551 c 256,98,99
 572 530 572 530 571 500 c 256,100,101
 571 470 571 470 551 449 c 256,102,103
 530 428 530 428 500 429 c 1,104,-1
 500 429 l 1,88,89
786 429 m 1,105,106
 757 429 757 429 735 449 c 0,107,108
 714 470 714 470 714 500 c 256,109,110
 714 530 714 530 735 551 c 0,111,112
 756 572 756 572 786 571 c 0,113,114
 816 571 816 571 836 551 c 256,115,116
 857 530 857 530 857 500 c 256,117,118
 857 470 857 470 836 449 c 256,119,120
 815 428 815 428 786 429 c 1,121,-1
 786 429 l 1,105,106
357 571 m 1,122,123
 327 571 327 571 306 592 c 256,124,125
 285 613 285 613 286 643 c 0,126,127
 286 672 286 672 306 694 c 0,128,129
 327 715 327 715 357 714 c 0,130,131
 386 714 386 714 407 694 c 0,132,133
 428 673 428 673 429 643 c 0,134,135
 429 613 429 613 407 592 c 256,136,137
 386 571 386 571 357 571 c 1,138,-1
 357 571 l 1,122,123
786 571 m 1,139,140
 757 571 757 571 735 592 c 0,141,142
 714 613 714 613 714 643 c 0,143,144
 714 672 714 672 735 694 c 0,145,146
 756 715 756 715 786 714 c 0,147,148
 816 714 816 714 836 694 c 0,149,150
 857 673 857 673 857 643 c 0,151,152
 857 613 857 613 836 592 c 256,153,154
 815 571 815 571 786 571 c 1,155,-1
 786 571 l 1,139,140
214 714 m 1,156,157
 184 714 184 714 164 735 c 0,158,159
 143 756 143 756 143 786 c 0,160,161
 143 816 143 816 164 836 c 256,162,163
 185 857 185 857 214 857 c 256,164,165
 244 857 244 857 265 836 c 256,166,167
 286 815 286 815 286 786 c 0,168,169
 286 757 286 757 265 735 c 0,170,171
 244 714 244 714 214 714 c 1,172,-1
 214 714 l 1,156,157
786 714 m 1,173,174
 757 714 757 714 735 735 c 0,175,176
 714 756 714 756 714 786 c 0,177,178
 714 816 714 816 735 836 c 0,179,180
 756 857 756 857 786 857 c 0,181,182
 816 857 816 857 836 836 c 256,183,184
 857 815 857 815 857 786 c 0,185,186
 857 757 857 757 836 735 c 0,187,188
 815 714 815 714 786 714 c 1,189,-1
 786 714 l 1,173,174
71 857 m 1,190,191
 42 857 42 857 21 878 c 0,192,193
 0 899 0 899 0 929 c 256,194,195
 0 959 0 959 21 979 c 0,196,197
 42 1000 42 1000 71 1000 c 0,198,199
 101 1000 101 1000 121 979 c 256,200,201
 142 958 142 958 143 929 c 256,202,203
 143 899 143 899 121 878 c 256,204,205
 100 857 100 857 71 857 c 1,206,-1
 71 857 l 1,190,191
786 857 m 1,207,208
 757 857 757 857 735 878 c 0,209,210
 714 899 714 899 714 929 c 256,211,212
 714 959 714 959 735 979 c 0,213,214
 756 1000 756 1000 786 1000 c 0,215,216
 816 1000 816 1000 836 979 c 256,217,218
 857 958 857 958 857 929 c 256,219,220
 857 899 857 899 836 878 c 256,221,222
 815 857 815 857 786 857 c 1,223,-1
 786 857 l 1,207,208
EndSplineSet
Validated: 37
EndChar

StartChar: T
Encoding: 84 84 44
Width: 999
VWidth: 714
Flags: W
LayerCount: 2
Fore
SplineSet
214 0 m 2,0,1
 184 0 184 0 164 21 c 0,2,3
 143 42 143 42 143 71 c 0,4,5
 143 101 143 101 164 121 c 256,6,7
 185 142 185 142 214 143 c 2,8,-1
 500 143 l 2,9,10
 530 143 530 143 551 121 c 256,11,12
 572 100 572 100 571 71 c 0,13,14
 571 42 571 42 551 21 c 0,15,16
 530 0 530 0 500 0 c 2,17,-1
 214 0 l 2,0,1
71 143 m 1,18,19
 42 143 42 143 21 164 c 0,20,21
 0 185 0 185 0 214 c 256,22,23
 0 244 0 244 21 265 c 0,24,25
 42 286 42 286 71 286 c 0,26,27
 101 286 101 286 121 265 c 256,28,29
 142 244 142 244 143 214 c 256,30,31
 143 184 143 184 121 164 c 256,32,33
 100 143 100 143 71 143 c 1,34,-1
 71 143 l 1,18,19
357 143 m 1,35,36
 327 143 327 143 306 164 c 256,37,38
 285 185 285 185 286 214 c 256,39,40
 286 244 286 244 306 265 c 256,41,42
 327 286 327 286 357 286 c 0,43,44
 386 286 386 286 407 265 c 256,45,46
 428 244 428 244 429 214 c 256,47,48
 429 184 429 184 407 164 c 256,49,50
 386 143 386 143 357 143 c 1,51,-1
 357 143 l 1,35,36
643 143 m 1,52,53
 613 143 613 143 592 164 c 256,54,55
 571 185 571 185 571 214 c 256,56,57
 571 244 571 244 592 265 c 256,58,59
 613 286 613 286 643 286 c 0,60,61
 672 286 672 286 694 265 c 0,62,63
 715 244 715 244 714 214 c 256,64,65
 714 184 714 184 694 164 c 0,66,67
 673 143 673 143 643 143 c 1,68,-1
 643 143 l 1,52,53
71 286 m 1,69,70
 42 286 42 286 21 306 c 0,71,72
 0 327 0 327 0 357 c 0,73,74
 0 386 0 386 21 407 c 0,75,76
 42 428 42 428 71 429 c 0,77,78
 101 429 101 429 121 407 c 256,79,80
 142 386 142 386 143 357 c 0,81,82
 143 327 143 327 121 306 c 256,83,84
 100 285 100 285 71 286 c 1,85,-1
 71 286 l 1,69,70
357 286 m 1,86,87
 327 286 327 286 306 306 c 256,88,89
 285 327 285 327 286 357 c 0,90,91
 286 386 286 386 306 407 c 256,92,93
 327 428 327 428 357 429 c 0,94,95
 386 429 386 429 407 407 c 256,96,97
 428 386 428 386 429 357 c 0,98,99
 429 327 429 327 407 306 c 256,100,101
 386 285 386 285 357 286 c 1,102,-1
 357 286 l 1,86,87
643 286 m 1,103,104
 613 286 613 286 592 306 c 256,105,106
 571 327 571 327 571 357 c 0,107,108
 571 386 571 386 592 407 c 256,109,110
 613 428 613 428 643 429 c 0,111,112
 672 429 672 429 694 407 c 0,113,114
 715 386 715 386 714 357 c 0,115,116
 714 327 714 327 694 306 c 0,117,118
 673 285 673 285 643 286 c 1,119,-1
 643 286 l 1,103,104
357 429 m 1,120,121
 327 429 327 429 306 449 c 256,122,123
 285 470 285 470 286 500 c 256,124,125
 286 530 286 530 306 551 c 256,126,127
 327 572 327 572 357 571 c 0,128,129
 386 571 386 571 407 551 c 256,130,131
 428 530 428 530 429 500 c 256,132,133
 429 470 429 470 407 449 c 256,134,135
 386 428 386 428 357 429 c 1,136,-1
 357 429 l 1,120,121
357 571 m 1,137,138
 327 571 327 571 306 592 c 256,139,140
 285 613 285 613 286 643 c 0,141,142
 286 672 286 672 306 694 c 0,143,144
 327 715 327 715 357 714 c 0,145,146
 386 714 386 714 407 694 c 0,147,148
 428 673 428 673 429 643 c 0,149,150
 429 613 429 613 407 592 c 256,151,152
 386 571 386 571 357 571 c 1,153,-1
 357 571 l 1,137,138
357 714 m 1,154,155
 327 714 327 714 306 735 c 0,156,157
 285 756 285 756 286 786 c 0,158,159
 286 816 286 816 306 836 c 256,160,161
 327 857 327 857 357 857 c 0,162,163
 386 857 386 857 407 836 c 256,164,165
 428 815 428 815 429 786 c 0,166,167
 429 757 429 757 407 735 c 0,168,169
 386 714 386 714 357 714 c 1,170,-1
 357 714 l 1,154,155
357 857 m 1,171,172
 327 857 327 857 306 878 c 256,173,174
 285 899 285 899 286 929 c 256,175,176
 286 959 286 959 306 979 c 256,177,178
 327 1000 327 1000 357 1000 c 0,179,180
 386 1000 386 1000 407 979 c 256,181,182
 428 958 428 958 429 929 c 256,183,184
 429 899 429 899 407 878 c 256,185,186
 386 857 386 857 357 857 c 1,187,-1
 357 857 l 1,171,172
EndSplineSet
Validated: 37
EndChar

StartChar: U
Encoding: 85 85 45
Width: 999
VWidth: 714
Flags: W
LayerCount: 2
Fore
SplineSet
71 0 m 2,0,1
 42 0 42 0 21 21 c 0,2,3
 0 42 0 42 0 71 c 0,4,5
 0 101 0 101 21 121 c 0,6,7
 42 142 42 142 71 143 c 2,8,-1
 786 143 l 2,9,10
 816 143 816 143 836 121 c 256,11,12
 857 100 857 100 857 71 c 0,13,14
 857 42 857 42 836 21 c 0,15,16
 815 0 815 0 786 0 c 2,17,-1
 71 0 l 2,0,1
71 143 m 1,18,19
 42 143 42 143 21 164 c 0,20,21
 0 185 0 185 0 214 c 256,22,23
 0 244 0 244 21 265 c 0,24,25
 42 286 42 286 71 286 c 0,26,27
 101 286 101 286 121 265 c 256,28,29
 142 244 142 244 143 214 c 256,30,31
 143 184 143 184 121 164 c 256,32,33
 100 143 100 143 71 143 c 1,34,-1
 71 143 l 1,18,19
786 143 m 1,35,36
 757 143 757 143 735 164 c 0,37,38
 714 185 714 185 714 214 c 256,39,40
 714 244 714 244 735 265 c 0,41,42
 756 286 756 286 786 286 c 0,43,44
 816 286 816 286 836 265 c 256,45,46
 857 244 857 244 857 214 c 256,47,48
 857 184 857 184 836 164 c 256,49,50
 815 143 815 143 786 143 c 1,51,-1
 786 143 l 1,35,36
71 286 m 1,52,53
 42 286 42 286 21 306 c 0,54,55
 0 327 0 327 0 357 c 0,56,57
 0 386 0 386 21 407 c 0,58,59
 42 428 42 428 71 429 c 0,60,61
 101 429 101 429 121 407 c 256,62,63
 142 386 142 386 143 357 c 0,64,65
 143 327 143 327 121 306 c 256,66,67
 100 285 100 285 71 286 c 1,68,-1
 71 286 l 1,52,53
786 286 m 1,69,70
 757 286 757 286 735 306 c 0,71,72
 714 327 714 327 714 357 c 0,73,74
 714 386 714 386 735 407 c 0,75,76
 756 428 756 428 786 429 c 0,77,78
 816 429 816 429 836 407 c 256,79,80
 857 386 857 386 857 357 c 0,81,82
 857 327 857 327 836 306 c 256,83,84
 815 285 815 285 786 286 c 1,85,-1
 786 286 l 1,69,70
71 429 m 1,86,87
 42 429 42 429 21 449 c 0,88,89
 0 470 0 470 0 500 c 256,90,91
 0 530 0 530 21 551 c 0,92,93
 42 572 42 572 71 571 c 0,94,95
 101 571 101 571 121 551 c 256,96,97
 142 530 142 530 143 500 c 256,98,99
 143 470 143 470 121 449 c 256,100,101
 100 428 100 428 71 429 c 1,102,-1
 71 429 l 1,86,87
786 429 m 1,103,104
 757 429 757 429 735 449 c 0,105,106
 714 470 714 470 714 500 c 256,107,108
 714 530 714 530 735 551 c 0,109,110
 756 572 756 572 786 571 c 0,111,112
 816 571 816 571 836 551 c 256,113,114
 857 530 857 530 857 500 c 256,115,116
 857 470 857 470 836 449 c 256,117,118
 815 428 815 428 786 429 c 1,119,-1
 786 429 l 1,103,104
71 571 m 1,120,121
 42 571 42 571 21 592 c 0,122,123
 0 613 0 613 0 643 c 0,124,125
 0 672 0 672 21 694 c 0,126,127
 42 715 42 715 71 714 c 0,128,129
 101 714 101 714 121 694 c 0,130,131
 142 673 142 673 143 643 c 0,132,133
 143 613 143 613 121 592 c 256,134,135
 100 571 100 571 71 571 c 1,136,-1
 71 571 l 1,120,121
357 571 m 1,137,138
 327 571 327 571 306 592 c 256,139,140
 285 613 285 613 286 643 c 0,141,142
 286 672 286 672 306 694 c 0,143,144
 327 715 327 715 357 714 c 0,145,146
 386 714 386 714 407 694 c 0,147,148
 428 673 428 673 429 643 c 0,149,150
 429 613 429 613 407 592 c 256,151,152
 386 571 386 571 357 571 c 1,153,-1
 357 571 l 1,137,138
786 571 m 1,154,155
 757 571 757 571 735 592 c 0,156,157
 714 613 714 613 714 643 c 0,158,159
 714 672 714 672 735 694 c 0,160,161
 756 715 756 715 786 714 c 0,162,163
 816 714 816 714 836 694 c 0,164,165
 857 673 857 673 857 643 c 0,166,167
 857 613 857 613 836 592 c 256,168,169
 815 571 815 571 786 571 c 1,170,-1
 786 571 l 1,154,155
71 714 m 1,171,172
 42 714 42 714 21 735 c 0,173,174
 0 756 0 756 0 786 c 0,175,176
 0 816 0 816 21 836 c 0,177,178
 42 857 42 857 71 857 c 0,179,180
 101 857 101 857 121 836 c 256,181,182
 142 815 142 815 143 786 c 0,183,184
 143 757 143 757 121 735 c 0,185,186
 100 714 100 714 71 714 c 1,187,-1
 71 714 l 1,171,172
500 714 m 1,188,189
 470 714 470 714 449 735 c 0,190,191
 428 756 428 756 429 786 c 0,192,193
 429 816 429 816 449 836 c 256,194,195
 470 857 470 857 500 857 c 256,196,197
 530 857 530 857 551 836 c 256,198,199
 572 815 572 815 571 786 c 0,200,201
 571 757 571 757 551 735 c 0,202,203
 530 714 530 714 500 714 c 1,204,-1
 500 714 l 1,188,189
786 714 m 1,205,206
 757 714 757 714 735 735 c 0,207,208
 714 756 714 756 714 786 c 0,209,210
 714 816 714 816 735 836 c 0,211,212
 756 857 756 857 786 857 c 0,213,214
 816 857 816 857 836 836 c 256,215,216
 857 815 857 815 857 786 c 0,217,218
 857 757 857 757 836 735 c 0,219,220
 815 714 815 714 786 714 c 1,221,-1
 786 714 l 1,205,206
71 857 m 1,222,223
 42 857 42 857 21 878 c 0,224,225
 0 899 0 899 0 929 c 256,226,227
 0 959 0 959 21 979 c 0,228,229
 42 1000 42 1000 71 1000 c 0,230,231
 101 1000 101 1000 121 979 c 256,232,233
 142 958 142 958 143 929 c 256,234,235
 143 899 143 899 121 878 c 256,236,237
 100 857 100 857 71 857 c 1,238,-1
 71 857 l 1,222,223
643 857 m 2,239,240
 613 857 613 857 592 878 c 256,241,242
 571 899 571 899 571 929 c 256,243,244
 571 959 571 959 592 979 c 256,245,246
 613 1000 613 1000 643 1000 c 2,247,-1
 786 1000 l 2,248,249
 816 1000 816 1000 836 979 c 256,250,251
 857 958 857 958 857 929 c 256,252,253
 857 899 857 899 836 878 c 256,254,255
 815 857 815 857 786 857 c 2,256,-1
 643 857 l 2,239,240
EndSplineSet
Validated: 37
EndChar

StartChar: V
Encoding: 86 86 46
Width: 999
VWidth: 714
Flags: W
LayerCount: 2
Fore
SplineSet
357 0 m 1,0,1
 327 0 327 0 306 21 c 0,2,3
 285 42 285 42 286 71 c 0,4,5
 286 101 286 101 306 121 c 256,6,7
 327 142 327 142 357 143 c 0,8,9
 386 143 386 143 407 121 c 256,10,11
 428 100 428 100 429 71 c 0,12,13
 429 42 429 42 407 21 c 0,14,15
 386 0 386 0 357 0 c 1,16,-1
 357 0 l 1,0,1
357 143 m 1,17,18
 327 143 327 143 306 164 c 256,19,20
 285 185 285 185 286 214 c 256,21,22
 286 244 286 244 306 265 c 256,23,24
 327 286 327 286 357 286 c 0,25,26
 386 286 386 286 407 265 c 256,27,28
 428 244 428 244 429 214 c 256,29,30
 429 184 429 184 407 164 c 256,31,32
 386 143 386 143 357 143 c 1,33,-1
 357 143 l 1,17,18
357 286 m 1,34,35
 327 286 327 286 306 306 c 256,36,37
 285 327 285 327 286 357 c 0,38,39
 286 386 286 386 306 407 c 256,40,41
 327 428 327 428 357 429 c 0,42,43
 386 429 386 429 407 407 c 256,44,45
 428 386 428 386 429 357 c 0,46,47
 429 327 429 327 407 306 c 256,48,49
 386 285 386 285 357 286 c 1,50,-1
 357 286 l 1,34,35
357 429 m 1,51,52
 327 429 327 429 306 449 c 256,53,54
 285 470 285 470 286 500 c 256,55,56
 286 530 286 530 306 551 c 256,57,58
 327 572 327 572 357 571 c 0,59,60
 386 571 386 571 407 551 c 256,61,62
 428 530 428 530 429 500 c 256,63,64
 429 470 429 470 407 449 c 256,65,66
 386 428 386 428 357 429 c 1,67,-1
 357 429 l 1,51,52
214 571 m 1,68,69
 184 571 184 571 164 592 c 256,70,71
 143 613 143 613 143 643 c 0,72,73
 143 672 143 672 164 694 c 0,74,75
 185 715 185 715 214 714 c 256,76,77
 244 714 244 714 265 694 c 0,78,79
 286 673 286 673 286 643 c 0,80,81
 286 613 286 613 265 592 c 256,82,83
 244 571 244 571 214 571 c 1,84,-1
 214 571 l 1,68,69
500 571 m 1,85,86
 470 571 470 571 449 592 c 256,87,88
 428 613 428 613 429 643 c 0,89,90
 429 672 429 672 449 694 c 0,91,92
 470 715 470 715 500 714 c 256,93,94
 530 714 530 714 551 694 c 0,95,96
 572 673 572 673 571 643 c 0,97,98
 571 613 571 613 551 592 c 256,99,100
 530 571 530 571 500 571 c 1,101,-1
 500 571 l 1,85,86
71 714 m 1,102,103
 42 714 42 714 21 735 c 0,104,105
 0 756 0 756 0 786 c 0,106,107
 0 816 0 816 21 836 c 0,108,109
 42 857 42 857 71 857 c 0,110,111
 101 857 101 857 121 836 c 256,112,113
 142 815 142 815 143 786 c 0,114,115
 143 757 143 757 121 735 c 0,116,117
 100 714 100 714 71 714 c 1,118,-1
 71 714 l 1,102,103
643 714 m 1,119,120
 613 714 613 714 592 735 c 0,121,122
 571 756 571 756 571 786 c 0,123,124
 571 816 571 816 592 836 c 256,125,126
 613 857 613 857 643 857 c 0,127,128
 672 857 672 857 694 836 c 0,129,130
 715 815 715 815 714 786 c 0,131,132
 714 757 714 757 694 735 c 0,133,134
 673 714 673 714 643 714 c 1,135,-1
 643 714 l 1,119,120
71 857 m 1,136,137
 42 857 42 857 21 878 c 0,138,139
 0 899 0 899 0 929 c 256,140,141
 0 959 0 959 21 979 c 0,142,143
 42 1000 42 1000 71 1000 c 0,144,145
 101 1000 101 1000 121 979 c 256,146,147
 142 958 142 958 143 929 c 256,148,149
 143 899 143 899 121 878 c 256,150,151
 100 857 100 857 71 857 c 1,152,-1
 71 857 l 1,136,137
643 857 m 1,153,154
 613 857 613 857 592 878 c 256,155,156
 571 899 571 899 571 929 c 256,157,158
 571 959 571 959 592 979 c 256,159,160
 613 1000 613 1000 643 1000 c 0,161,162
 672 1000 672 1000 694 979 c 0,163,164
 715 958 715 958 714 929 c 256,165,166
 714 899 714 899 694 878 c 0,167,168
 673 857 673 857 643 857 c 1,169,-1
 643 857 l 1,153,154
EndSplineSet
Validated: 37
EndChar

StartChar: W
Encoding: 87 87 47
Width: 999
VWidth: 714
Flags: W
LayerCount: 2
Fore
SplineSet
71 0 m 2,0,1
 42 0 42 0 21 21 c 0,2,3
 0 42 0 42 0 71 c 0,4,5
 0 101 0 101 21 121 c 0,6,7
 42 142 42 142 71 143 c 2,8,-1
 786 143 l 2,9,10
 816 143 816 143 836 121 c 256,11,12
 857 100 857 100 857 71 c 0,13,14
 857 42 857 42 836 21 c 0,15,16
 815 0 815 0 786 0 c 2,17,-1
 71 0 l 2,0,1
71 143 m 1,18,19
 42 143 42 143 21 164 c 0,20,21
 0 185 0 185 0 214 c 256,22,23
 0 244 0 244 21 265 c 0,24,25
 42 286 42 286 71 286 c 0,26,27
 101 286 101 286 121 265 c 256,28,29
 142 244 142 244 143 214 c 256,30,31
 143 184 143 184 121 164 c 256,32,33
 100 143 100 143 71 143 c 1,34,-1
 71 143 l 1,18,19
786 143 m 1,35,36
 757 143 757 143 735 164 c 0,37,38
 714 185 714 185 714 214 c 256,39,40
 714 244 714 244 735 265 c 0,41,42
 756 286 756 286 786 286 c 0,43,44
 816 286 816 286 836 265 c 256,45,46
 857 244 857 244 857 214 c 256,47,48
 857 184 857 184 836 164 c 256,49,50
 815 143 815 143 786 143 c 1,51,-1
 786 143 l 1,35,36
71 286 m 1,52,53
 42 286 42 286 21 306 c 0,54,55
 0 327 0 327 0 357 c 0,56,57
 0 386 0 386 21 407 c 0,58,59
 42 428 42 428 71 429 c 0,60,61
 101 429 101 429 121 407 c 256,62,63
 142 386 142 386 143 357 c 0,64,65
 143 327 143 327 121 306 c 256,66,67
 100 285 100 285 71 286 c 1,68,-1
 71 286 l 1,52,53
786 286 m 1,69,70
 757 286 757 286 735 306 c 0,71,72
 714 327 714 327 714 357 c 0,73,74
 714 386 714 386 735 407 c 0,75,76
 756 428 756 428 786 429 c 0,77,78
 816 429 816 429 836 407 c 256,79,80
 857 386 857 386 857 357 c 0,81,82
 857 327 857 327 836 306 c 256,83,84
 815 285 815 285 786 286 c 1,85,-1
 786 286 l 1,69,70
71 429 m 1,86,87
 42 429 42 429 21 449 c 0,88,89
 0 470 0 470 0 500 c 256,90,91
 0 530 0 530 21 551 c 0,92,93
 42 572 42 572 71 571 c 0,94,95
 101 571 101 571 121 551 c 256,96,97
 142 530 142 530 143 500 c 256,98,99
 143 470 143 470 121 449 c 256,100,101
 100 428 100 428 71 429 c 1,102,-1
 71 429 l 1,86,87
786 429 m 1,103,104
 757 429 757 429 735 449 c 0,105,106
 714 470 714 470 714 500 c 256,107,108
 714 530 714 530 735 551 c 0,109,110
 756 572 756 572 786 571 c 0,111,112
 816 571 816 571 836 551 c 256,113,114
 857 530 857 530 857 500 c 256,115,116
 857 470 857 470 836 449 c 256,117,118
 815 428 815 428 786 429 c 1,119,-1
 786 429 l 1,103,104
71 571 m 1,120,121
 42 571 42 571 21 592 c 0,122,123
 0 613 0 613 0 643 c 0,124,125
 0 672 0 672 21 694 c 0,126,127
 42 715 42 715 71 714 c 0,128,129
 101 714 101 714 121 694 c 0,130,131
 142 673 142 673 143 643 c 0,132,133
 143 613 143 613 121 592 c 256,134,135
 100 571 100 571 71 571 c 1,136,-1
 71 571 l 1,120,121
786 571 m 1,137,138
 757 571 757 571 735 592 c 0,139,140
 714 613 714 613 714 643 c 0,141,142
 714 672 714 672 735 694 c 0,143,144
 756 715 756 715 786 714 c 0,145,146
 816 714 816 714 836 694 c 0,147,148
 857 673 857 673 857 643 c 0,149,150
 857 613 857 613 836 592 c 256,151,152
 815 571 815 571 786 571 c 1,153,-1
 786 571 l 1,137,138
71 714 m 1,154,155
 42 714 42 714 21 735 c 0,156,157
 0 756 0 756 0 786 c 0,158,159
 0 816 0 816 21 836 c 0,160,161
 42 857 42 857 71 857 c 0,162,163
 101 857 101 857 121 836 c 256,164,165
 142 815 142 815 143 786 c 0,166,167
 143 757 143 757 121 735 c 0,168,169
 100 714 100 714 71 714 c 1,170,-1
 71 714 l 1,154,155
786 714 m 1,171,172
 757 714 757 714 735 735 c 0,173,174
 714 756 714 756 714 786 c 0,175,176
 714 816 714 816 735 836 c 0,177,178
 756 857 756 857 786 857 c 0,179,180
 816 857 816 857 836 836 c 256,181,182
 857 815 857 815 857 786 c 0,183,184
 857 757 857 757 836 735 c 0,185,186
 815 714 815 714 786 714 c 1,187,-1
 786 714 l 1,171,172
71 857 m 2,188,189
 42 857 42 857 21 878 c 0,190,191
 0 899 0 899 0 929 c 256,192,193
 0 959 0 959 21 979 c 0,194,195
 42 1000 42 1000 71 1000 c 2,196,-1
 786 1000 l 2,197,198
 816 1000 816 1000 836 979 c 256,199,200
 857 958 857 958 857 929 c 256,201,202
 857 899 857 899 836 878 c 256,203,204
 815 857 815 857 786 857 c 2,205,-1
 71 857 l 2,188,189
EndSplineSet
Validated: 37
EndChar

StartChar: X
Encoding: 88 88 48
Width: 999
VWidth: 714
Flags: W
LayerCount: 2
Fore
SplineSet
71 0 m 2,0,1
 42 0 42 0 21 21 c 0,2,3
 0 42 0 42 0 71 c 0,4,5
 0 101 0 101 21 121 c 0,6,7
 42 142 42 142 71 143 c 2,8,-1
 786 143 l 2,9,10
 816 143 816 143 836 121 c 256,11,12
 857 100 857 100 857 71 c 0,13,14
 857 42 857 42 836 21 c 0,15,16
 815 0 815 0 786 0 c 2,17,-1
 71 0 l 2,0,1
71 143 m 1,18,19
 42 143 42 143 21 164 c 0,20,21
 0 185 0 185 0 214 c 256,22,23
 0 244 0 244 21 265 c 0,24,25
 42 286 42 286 71 286 c 0,26,27
 101 286 101 286 121 265 c 256,28,29
 142 244 142 244 143 214 c 256,30,31
 143 184 143 184 121 164 c 256,32,33
 100 143 100 143 71 143 c 1,34,-1
 71 143 l 1,18,19
643 143 m 1,35,36
 613 143 613 143 592 164 c 256,37,38
 571 185 571 185 571 214 c 256,39,40
 571 244 571 244 592 265 c 256,41,42
 613 286 613 286 643 286 c 0,43,44
 672 286 672 286 694 265 c 0,45,46
 715 244 715 244 714 214 c 256,47,48
 714 184 714 184 694 164 c 0,49,50
 673 143 673 143 643 143 c 1,51,-1
 643 143 l 1,35,36
71 286 m 1,52,53
 42 286 42 286 21 306 c 0,54,55
 0 327 0 327 0 357 c 0,56,57
 0 386 0 386 21 407 c 0,58,59
 42 428 42 428 71 429 c 0,60,61
 101 429 101 429 121 407 c 256,62,63
 142 386 142 386 143 357 c 0,64,65
 143 327 143 327 121 306 c 256,66,67
 100 285 100 285 71 286 c 1,68,-1
 71 286 l 1,52,53
643 286 m 1,69,70
 613 286 613 286 592 306 c 256,71,72
 571 327 571 327 571 357 c 0,73,74
 571 386 571 386 592 407 c 256,75,76
 613 428 613 428 643 429 c 0,77,78
 672 429 672 429 694 407 c 0,79,80
 715 386 715 386 714 357 c 0,81,82
 714 327 714 327 694 306 c 0,83,84
 673 285 673 285 643 286 c 1,85,-1
 643 286 l 1,69,70
214 429 m 1,86,87
 184 429 184 429 164 449 c 256,88,89
 143 470 143 470 143 500 c 256,90,91
 143 530 143 530 164 551 c 256,92,93
 185 572 185 572 214 571 c 256,94,95
 244 571 244 571 265 551 c 256,96,97
 286 530 286 530 286 500 c 256,98,99
 286 470 286 470 265 449 c 256,100,101
 244 428 244 428 214 429 c 1,102,-1
 214 429 l 1,86,87
500 429 m 1,103,104
 470 429 470 429 449 449 c 256,105,106
 428 470 428 470 429 500 c 256,107,108
 429 530 429 530 449 551 c 256,109,110
 470 572 470 572 500 571 c 256,111,112
 530 571 530 571 551 551 c 256,113,114
 572 530 572 530 571 500 c 256,115,116
 571 470 571 470 551 449 c 256,117,118
 530 428 530 428 500 429 c 1,119,-1
 500 429 l 1,103,104
214 571 m 1,120,121
 184 571 184 571 164 592 c 256,122,123
 143 613 143 613 143 643 c 0,124,125
 143 672 143 672 164 694 c 0,126,127
 185 715 185 715 214 714 c 256,128,129
 244 714 244 714 265 694 c 0,130,131
 286 673 286 673 286 643 c 0,132,133
 286 613 286 613 265 592 c 256,134,135
 244 571 244 571 214 571 c 1,136,-1
 214 571 l 1,120,121
500 571 m 1,137,138
 470 571 470 571 449 592 c 256,139,140
 428 613 428 613 429 643 c 0,141,142
 429 672 429 672 449 694 c 0,143,144
 470 715 470 715 500 714 c 256,145,146
 530 714 530 714 551 694 c 0,147,148
 572 673 572 673 571 643 c 0,149,150
 571 613 571 613 551 592 c 256,151,152
 530 571 530 571 500 571 c 1,153,-1
 500 571 l 1,137,138
357 714 m 1,154,155
 327 714 327 714 306 735 c 0,156,157
 285 756 285 756 286 786 c 0,158,159
 286 816 286 816 306 836 c 256,160,161
 327 857 327 857 357 857 c 0,162,163
 386 857 386 857 407 836 c 256,164,165
 428 815 428 815 429 786 c 0,166,167
 429 757 429 757 407 735 c 0,168,169
 386 714 386 714 357 714 c 1,170,-1
 357 714 l 1,154,155
357 857 m 1,171,172
 327 857 327 857 306 878 c 256,173,174
 285 899 285 899 286 929 c 256,175,176
 286 959 286 959 306 979 c 256,177,178
 327 1000 327 1000 357 1000 c 0,179,180
 386 1000 386 1000 407 979 c 256,181,182
 428 958 428 958 429 929 c 256,183,184
 429 899 429 899 407 878 c 256,185,186
 386 857 386 857 357 857 c 1,187,-1
 357 857 l 1,171,172
EndSplineSet
Validated: 37
EndChar

StartChar: Y
Encoding: 89 89 49
Width: 999
VWidth: 714
Flags: W
LayerCount: 2
Fore
SplineSet
357 0 m 1,0,1
 327 0 327 0 306 21 c 0,2,3
 285 42 285 42 286 71 c 0,4,5
 286 101 286 101 306 121 c 256,6,7
 327 142 327 142 357 143 c 0,8,9
 386 143 386 143 407 121 c 256,10,11
 428 100 428 100 429 71 c 0,12,13
 429 42 429 42 407 21 c 0,14,15
 386 0 386 0 357 0 c 1,16,-1
 357 0 l 1,0,1
214 143 m 1,17,18
 184 143 184 143 164 164 c 256,19,20
 143 185 143 185 143 214 c 256,21,22
 143 244 143 244 164 265 c 256,23,24
 185 286 185 286 214 286 c 256,25,26
 244 286 244 286 265 265 c 256,27,28
 286 244 286 244 286 214 c 256,29,30
 286 184 286 184 265 164 c 256,31,32
 244 143 244 143 214 143 c 1,33,-1
 214 143 l 1,17,18
500 143 m 1,34,35
 470 143 470 143 449 164 c 256,36,37
 428 185 428 185 429 214 c 256,38,39
 429 244 429 244 449 265 c 256,40,41
 470 286 470 286 500 286 c 256,42,43
 530 286 530 286 551 265 c 256,44,45
 572 244 572 244 571 214 c 256,46,47
 571 184 571 184 551 164 c 256,48,49
 530 143 530 143 500 143 c 1,50,-1
 500 143 l 1,34,35
71 286 m 1,51,52
 42 286 42 286 21 306 c 0,53,54
 0 327 0 327 0 357 c 0,55,56
 0 386 0 386 21 407 c 0,57,58
 42 428 42 428 71 429 c 0,59,60
 101 429 101 429 121 407 c 256,61,62
 142 386 142 386 143 357 c 0,63,64
 143 327 143 327 121 306 c 256,65,66
 100 285 100 285 71 286 c 1,67,-1
 71 286 l 1,51,52
643 286 m 1,68,69
 613 286 613 286 592 306 c 256,70,71
 571 327 571 327 571 357 c 0,72,73
 571 386 571 386 592 407 c 256,74,75
 613 428 613 428 643 429 c 0,76,77
 672 429 672 429 694 407 c 0,78,79
 715 386 715 386 714 357 c 0,80,81
 714 327 714 327 694 306 c 0,82,83
 673 285 673 285 643 286 c 1,84,-1
 643 286 l 1,68,69
71 429 m 1,85,86
 42 429 42 429 21 449 c 0,87,88
 0 470 0 470 0 500 c 256,89,90
 0 530 0 530 21 551 c 0,91,92
 42 572 42 572 71 571 c 0,93,94
 101 571 101 571 121 551 c 256,95,96
 142 530 142 530 143 500 c 256,97,98
 143 470 143 470 121 449 c 256,99,100
 100 428 100 428 71 429 c 1,101,-1
 71 429 l 1,85,86
643 429 m 1,102,103
 613 429 613 429 592 449 c 256,104,105
 571 470 571 470 571 500 c 256,106,107
 571 530 571 530 592 551 c 256,108,109
 613 572 613 572 643 571 c 0,110,111
 672 571 672 571 694 551 c 0,112,113
 715 530 715 530 714 500 c 256,114,115
 714 470 714 470 694 449 c 0,116,117
 673 428 673 428 643 429 c 1,118,-1
 643 429 l 1,102,103
71 571 m 1,119,120
 42 571 42 571 21 592 c 0,121,122
 0 613 0 613 0 643 c 0,123,124
 0 672 0 672 21 694 c 0,125,126
 42 715 42 715 71 714 c 0,127,128
 101 714 101 714 121 694 c 0,129,130
 142 673 142 673 143 643 c 0,131,132
 143 613 143 613 121 592 c 256,133,134
 100 571 100 571 71 571 c 1,135,-1
 71 571 l 1,119,120
357 571 m 1,136,137
 327 571 327 571 306 592 c 256,138,139
 285 613 285 613 286 643 c 0,140,141
 286 672 286 672 306 694 c 0,142,143
 327 715 327 715 357 714 c 0,144,145
 386 714 386 714 407 694 c 0,146,147
 428 673 428 673 429 643 c 0,148,149
 429 613 429 613 407 592 c 256,150,151
 386 571 386 571 357 571 c 1,152,-1
 357 571 l 1,136,137
643 571 m 1,153,154
 613 571 613 571 592 592 c 256,155,156
 571 613 571 613 571 643 c 0,157,158
 571 672 571 672 592 694 c 0,159,160
 613 715 613 715 643 714 c 0,161,162
 672 714 672 714 694 694 c 0,163,164
 715 673 715 673 714 643 c 0,165,166
 714 613 714 613 694 592 c 0,167,168
 673 571 673 571 643 571 c 1,169,-1
 643 571 l 1,153,154
71 714 m 1,170,171
 42 714 42 714 21 735 c 0,172,173
 0 756 0 756 0 786 c 0,174,175
 0 816 0 816 21 836 c 0,176,177
 42 857 42 857 71 857 c 0,178,179
 101 857 101 857 121 836 c 256,180,181
 142 815 142 815 143 786 c 0,182,183
 143 757 143 757 121 735 c 0,184,185
 100 714 100 714 71 714 c 1,186,-1
 71 714 l 1,170,171
357 714 m 1,187,188
 327 714 327 714 306 735 c 0,189,190
 285 756 285 756 286 786 c 0,191,192
 286 816 286 816 306 836 c 256,193,194
 327 857 327 857 357 857 c 0,195,196
 386 857 386 857 407 836 c 256,197,198
 428 815 428 815 429 786 c 0,199,200
 429 757 429 757 407 735 c 0,201,202
 386 714 386 714 357 714 c 1,203,-1
 357 714 l 1,187,188
643 714 m 1,204,205
 613 714 613 714 592 735 c 0,206,207
 571 756 571 756 571 786 c 0,208,209
 571 816 571 816 592 836 c 256,210,211
 613 857 613 857 643 857 c 0,212,213
 672 857 672 857 694 836 c 0,214,215
 715 815 715 815 714 786 c 0,216,217
 714 757 714 757 694 735 c 0,218,219
 673 714 673 714 643 714 c 1,220,-1
 643 714 l 1,204,205
71 857 m 2,221,222
 42 857 42 857 21 878 c 0,223,224
 0 899 0 899 0 929 c 256,225,226
 0 959 0 959 21 979 c 0,227,228
 42 1000 42 1000 71 1000 c 2,229,-1
 214 1000 l 2,230,231
 244 1000 244 1000 265 979 c 256,232,233
 286 958 286 958 286 929 c 256,234,235
 286 899 286 899 265 878 c 256,236,237
 244 857 244 857 214 857 c 2,238,-1
 71 857 l 2,221,222
643 857 m 2,239,240
 613 857 613 857 592 878 c 256,241,242
 571 899 571 899 571 929 c 256,243,244
 571 959 571 959 592 979 c 256,245,246
 613 1000 613 1000 643 1000 c 2,247,-1
 786 1000 l 2,248,249
 816 1000 816 1000 836 979 c 256,250,251
 857 958 857 958 857 929 c 256,252,253
 857 899 857 899 836 878 c 256,254,255
 815 857 815 857 786 857 c 2,256,-1
 643 857 l 2,239,240
EndSplineSet
Validated: 37
EndChar

StartChar: Z
Encoding: 90 90 50
Width: 999
VWidth: 714
Flags: W
LayerCount: 2
Fore
SplineSet
214 0 m 2,0,1
 184 0 184 0 164 21 c 0,2,3
 143 42 143 42 143 71 c 0,4,5
 143 101 143 101 164 121 c 256,6,7
 185 142 185 142 214 143 c 2,8,-1
 786 143 l 2,9,10
 816 143 816 143 836 121 c 256,11,12
 857 100 857 100 857 71 c 0,13,14
 857 42 857 42 836 21 c 0,15,16
 815 0 815 0 786 0 c 2,17,-1
 214 0 l 2,0,1
71 143 m 1,18,19
 42 143 42 143 21 164 c 0,20,21
 0 185 0 185 0 214 c 256,22,23
 0 244 0 244 21 265 c 0,24,25
 42 286 42 286 71 286 c 0,26,27
 101 286 101 286 121 265 c 256,28,29
 142 244 142 244 143 214 c 256,30,31
 143 184 143 184 121 164 c 256,32,33
 100 143 100 143 71 143 c 1,34,-1
 71 143 l 1,18,19
786 143 m 1,35,36
 757 143 757 143 735 164 c 0,37,38
 714 185 714 185 714 214 c 256,39,40
 714 244 714 244 735 265 c 0,41,42
 756 286 756 286 786 286 c 0,43,44
 816 286 816 286 836 265 c 256,45,46
 857 244 857 244 857 214 c 256,47,48
 857 184 857 184 836 164 c 256,49,50
 815 143 815 143 786 143 c 1,51,-1
 786 143 l 1,35,36
786 286 m 1,52,53
 757 286 757 286 735 306 c 0,54,55
 714 327 714 327 714 357 c 0,56,57
 714 386 714 386 735 407 c 0,58,59
 756 428 756 428 786 429 c 0,60,61
 816 429 816 429 836 407 c 256,62,63
 857 386 857 386 857 357 c 0,64,65
 857 327 857 327 836 306 c 256,66,67
 815 285 815 285 786 286 c 1,68,-1
 786 286 l 1,52,53
214 429 m 1,69,70
 184 429 184 429 164 449 c 256,71,72
 143 470 143 470 143 500 c 256,73,74
 143 530 143 530 164 551 c 256,75,76
 185 572 185 572 214 571 c 256,77,78
 244 571 244 571 265 551 c 256,79,80
 286 530 286 530 286 500 c 256,81,82
 286 470 286 470 265 449 c 256,83,84
 244 428 244 428 214 429 c 1,85,-1
 214 429 l 1,69,70
786 429 m 1,86,87
 757 429 757 429 735 449 c 0,88,89
 714 470 714 470 714 500 c 256,90,91
 714 530 714 530 735 551 c 0,92,93
 756 572 756 572 786 571 c 0,94,95
 816 571 816 571 836 551 c 256,96,97
 857 530 857 530 857 500 c 256,98,99
 857 470 857 470 836 449 c 256,100,101
 815 428 815 428 786 429 c 1,102,-1
 786 429 l 1,86,87
357 571 m 2,103,104
 327 571 327 571 306 592 c 256,105,106
 285 613 285 613 286 643 c 0,107,108
 286 672 286 672 306 694 c 0,109,110
 327 715 327 715 357 714 c 2,111,-1
 786 714 l 2,112,113
 816 714 816 714 836 694 c 0,114,115
 857 673 857 673 857 643 c 0,116,117
 857 613 857 613 836 592 c 256,118,119
 815 571 815 571 786 571 c 2,120,-1
 357 571 l 2,103,104
786 714 m 1,121,122
 757 714 757 714 735 735 c 0,123,124
 714 756 714 756 714 786 c 0,125,126
 714 816 714 816 735 836 c 0,127,128
 756 857 756 857 786 857 c 0,129,130
 816 857 816 857 836 836 c 256,131,132
 857 815 857 815 857 786 c 0,133,134
 857 757 857 757 836 735 c 0,135,136
 815 714 815 714 786 714 c 1,137,-1
 786 714 l 1,121,122
786 857 m 1,138,139
 757 857 757 857 735 878 c 0,140,141
 714 899 714 899 714 929 c 256,142,143
 714 959 714 959 735 979 c 0,144,145
 756 1000 756 1000 786 1000 c 0,146,147
 816 1000 816 1000 836 979 c 256,148,149
 857 958 857 958 857 929 c 256,150,151
 857 899 857 899 836 878 c 256,152,153
 815 857 815 857 786 857 c 1,154,-1
 786 857 l 1,138,139
EndSplineSet
Validated: 37
EndChar

StartChar: underscore
Encoding: 95 95 51
Width: 999
VWidth: 714
Flags: W
LayerCount: 2
Fore
SplineSet
71 0 m 2,0,1
 42 0 42 0 21 21 c 0,2,3
 0 42 0 42 0 71 c 0,4,5
 0 101 0 101 21 121 c 0,6,7
 42 142 42 142 71 143 c 2,8,-1
 786 143 l 2,9,10
 816 143 816 143 836 121 c 256,11,12
 857 100 857 100 857 71 c 0,13,14
 857 42 857 42 836 21 c 0,15,16
 815 0 815 0 786 0 c 2,17,-1
 71 0 l 2,0,1
EndSplineSet
Validated: 1
EndChar

StartChar: a
Encoding: 97 97 52
Width: 999
VWidth: 714
Flags: W
LayerCount: 2
Fore
SplineSet
71 0 m 1,0,1
 42 0 42 0 21 21 c 0,2,3
 0 42 0 42 0 71 c 0,4,5
 0 101 0 101 21 121 c 0,6,7
 42 142 42 142 71 143 c 0,8,9
 101 143 101 143 121 121 c 256,10,11
 142 100 142 100 143 71 c 0,12,13
 143 42 143 42 121 21 c 0,14,15
 100 0 100 0 71 0 c 1,16,-1
 71 0 l 1,0,1
643 0 m 1,17,18
 613 0 613 0 592 21 c 0,19,20
 571 42 571 42 571 71 c 0,21,22
 571 101 571 101 592 121 c 256,23,24
 613 142 613 142 643 143 c 0,25,26
 672 143 672 143 694 121 c 0,27,28
 715 100 715 100 714 71 c 0,29,30
 714 42 714 42 694 21 c 0,31,32
 673 0 673 0 643 0 c 1,33,-1
 643 0 l 1,17,18
786 0 m 1,34,35
 757 0 757 0 735 21 c 0,36,37
 714 42 714 42 714 71 c 0,38,39
 714 101 714 101 735 121 c 0,40,41
 756 142 756 142 786 143 c 0,42,43
 816 143 816 143 836 121 c 256,44,45
 857 100 857 100 857 71 c 0,46,47
 857 42 857 42 836 21 c 0,48,49
 815 0 815 0 786 0 c 1,50,-1
 786 0 l 1,34,35
71 143 m 2,51,52
 42 143 42 143 21 164 c 0,53,54
 0 185 0 185 0 214 c 256,55,56
 0 244 0 244 21 265 c 0,57,58
 42 286 42 286 71 286 c 2,59,-1
 500 286 l 2,60,61
 530 286 530 286 551 265 c 256,62,63
 572 244 572 244 571 214 c 256,64,65
 571 184 571 184 551 164 c 256,66,67
 530 143 530 143 500 143 c 2,68,-1
 71 143 l 2,51,52
71 429 m 2,69,70
 42 429 42 429 21 449 c 0,71,72
 0 470 0 470 0 500 c 256,73,74
 0 530 0 530 21 551 c 0,75,76
 42 572 42 572 71 571 c 2,77,-1
 500 571 l 2,78,79
 530 571 530 571 551 551 c 256,80,81
 572 530 572 530 571 500 c 256,82,83
 571 470 571 470 551 449 c 256,84,85
 530 428 530 428 500 429 c 2,86,-1
 71 429 l 2,69,70
71 571 m 1,87,88
 42 571 42 571 21 592 c 0,89,90
 0 613 0 613 0 643 c 0,91,92
 0 672 0 672 21 694 c 0,93,94
 42 715 42 715 71 714 c 0,95,96
 101 714 101 714 121 694 c 0,97,98
 142 673 142 673 143 643 c 0,99,100
 143 613 143 613 121 592 c 256,101,102
 100 571 100 571 71 571 c 1,103,-1
 71 571 l 1,87,88
643 571 m 1,104,105
 613 571 613 571 592 592 c 256,106,107
 571 613 571 613 571 643 c 0,108,109
 571 672 571 672 592 694 c 0,110,111
 613 715 613 715 643 714 c 0,112,113
 672 714 672 714 694 694 c 0,114,115
 715 673 715 673 714 643 c 0,116,117
 714 613 714 613 694 592 c 0,118,119
 673 571 673 571 643 571 c 1,120,-1
 643 571 l 1,104,105
786 571 m 1,121,122
 757 571 757 571 735 592 c 0,123,124
 714 613 714 613 714 643 c 0,125,126
 714 672 714 672 735 694 c 0,127,128
 756 715 756 715 786 714 c 0,129,130
 816 714 816 714 836 694 c 0,131,132
 857 673 857 673 857 643 c 0,133,134
 857 613 857 613 836 592 c 256,135,136
 815 571 815 571 786 571 c 1,137,-1
 786 571 l 1,121,122
EndSplineSet
Validated: 37
EndChar

StartChar: b
Encoding: 98 98 53
Width: 999
VWidth: 714
Flags: W
LayerCount: 2
Fore
SplineSet
214 0 m 2,0,1
 184 0 184 0 164 21 c 0,2,3
 143 42 143 42 143 71 c 0,4,5
 143 101 143 101 164 121 c 256,6,7
 185 142 185 142 214 143 c 2,8,-1
 643 143 l 2,9,10
 672 143 672 143 694 121 c 0,11,12
 715 100 715 100 714 71 c 0,13,14
 714 42 714 42 694 21 c 0,15,16
 673 0 673 0 643 0 c 2,17,-1
 214 0 l 2,0,1
71 143 m 1,18,19
 42 143 42 143 21 164 c 0,20,21
 0 185 0 185 0 214 c 256,22,23
 0 244 0 244 21 265 c 0,24,25
 42 286 42 286 71 286 c 0,26,27
 101 286 101 286 121 265 c 256,28,29
 142 244 142 244 143 214 c 256,30,31
 143 184 143 184 121 164 c 256,32,33
 100 143 100 143 71 143 c 1,34,-1
 71 143 l 1,18,19
786 143 m 1,35,36
 757 143 757 143 735 164 c 0,37,38
 714 185 714 185 714 214 c 256,39,40
 714 244 714 244 735 265 c 0,41,42
 756 286 756 286 786 286 c 0,43,44
 816 286 816 286 836 265 c 256,45,46
 857 244 857 244 857 214 c 256,47,48
 857 184 857 184 836 164 c 256,49,50
 815 143 815 143 786 143 c 1,51,-1
 786 143 l 1,35,36
357 286 m 2,52,53
 327 286 327 286 306 306 c 256,54,55
 285 327 285 327 286 357 c 0,56,57
 286 386 286 386 306 407 c 256,58,59
 327 428 327 428 357 429 c 2,60,-1
 500 429 l 2,61,62
 530 429 530 429 551 407 c 256,63,64
 572 386 572 386 571 357 c 0,65,66
 571 327 571 327 551 306 c 256,67,68
 530 285 530 285 500 286 c 2,69,-1
 357 286 l 2,52,53
71 429 m 1,70,71
 42 429 42 429 21 449 c 0,72,73
 0 470 0 470 0 500 c 256,74,75
 0 530 0 530 21 551 c 0,76,77
 42 572 42 572 71 571 c 0,78,79
 101 571 101 571 121 551 c 256,80,81
 142 530 142 530 143 500 c 256,82,83
 143 470 143 470 121 449 c 256,84,85
 100 428 100 428 71 429 c 1,86,-1
 71 429 l 1,70,71
786 429 m 1,87,88
 757 429 757 429 735 449 c 0,89,90
 714 470 714 470 714 500 c 256,91,92
 714 530 714 530 735 551 c 0,93,94
 756 572 756 572 786 571 c 0,95,96
 816 571 816 571 836 551 c 256,97,98
 857 530 857 530 857 500 c 256,99,100
 857 470 857 470 836 449 c 256,101,102
 815 428 815 428 786 429 c 1,103,-1
 786 429 l 1,87,88
214 571 m 2,104,105
 184 571 184 571 164 592 c 256,106,107
 143 613 143 613 143 643 c 0,108,109
 143 672 143 672 164 694 c 0,110,111
 185 715 185 715 214 714 c 2,112,-1
 643 714 l 2,113,114
 672 714 672 714 694 694 c 0,115,116
 715 673 715 673 714 643 c 0,117,118
 714 613 714 613 694 592 c 0,119,120
 673 571 673 571 643 571 c 2,121,-1
 214 571 l 2,104,105
EndSplineSet
Validated: 37
EndChar

StartChar: c
Encoding: 99 99 54
Width: 999
VWidth: 714
Flags: W
LayerCount: 2
Fore
SplineSet
643 0 m 1,0,1
 613 0 613 0 592 21 c 0,2,3
 571 42 571 42 571 71 c 0,4,5
 571 101 571 101 592 121 c 256,6,7
 613 142 613 142 643 143 c 0,8,9
 672 143 672 143 694 121 c 0,10,11
 715 100 715 100 714 71 c 0,12,13
 714 42 714 42 694 21 c 0,14,15
 673 0 673 0 643 0 c 1,16,-1
 643 0 l 1,0,1
71 143 m 1,17,18
 42 143 42 143 21 164 c 0,19,20
 0 185 0 185 0 214 c 256,21,22
 0 244 0 244 21 265 c 0,23,24
 42 286 42 286 71 286 c 0,25,26
 101 286 101 286 121 265 c 256,27,28
 142 244 142 244 143 214 c 256,29,30
 143 184 143 184 121 164 c 256,31,32
 100 143 100 143 71 143 c 1,33,-1
 71 143 l 1,17,18
357 143 m 1,34,35
 327 143 327 143 306 164 c 256,36,37
 285 185 285 185 286 214 c 256,38,39
 286 244 286 244 306 265 c 256,40,41
 327 286 327 286 357 286 c 0,42,43
 386 286 386 286 407 265 c 256,44,45
 428 244 428 244 429 214 c 256,46,47
 429 184 429 184 407 164 c 256,48,49
 386 143 386 143 357 143 c 1,50,-1
 357 143 l 1,34,35
643 143 m 1,51,52
 613 143 613 143 592 164 c 256,53,54
 571 185 571 185 571 214 c 256,55,56
 571 244 571 244 592 265 c 256,57,58
 613 286 613 286 643 286 c 0,59,60
 672 286 672 286 694 265 c 0,61,62
 715 244 715 244 714 214 c 256,63,64
 714 184 714 184 694 164 c 0,65,66
 673 143 673 143 643 143 c 1,67,-1
 643 143 l 1,51,52
71 286 m 1,68,69
 42 286 42 286 21 306 c 0,70,71
 0 327 0 327 0 357 c 0,72,73
 0 386 0 386 21 407 c 0,74,75
 42 428 42 428 71 429 c 0,76,77
 101 429 101 429 121 407 c 256,78,79
 142 386 142 386 143 357 c 0,80,81
 143 327 143 327 121 306 c 256,82,83
 100 285 100 285 71 286 c 1,84,-1
 71 286 l 1,68,69
357 286 m 1,85,86
 327 286 327 286 306 306 c 256,87,88
 285 327 285 327 286 357 c 0,89,90
 286 386 286 386 306 407 c 256,91,92
 327 428 327 428 357 429 c 0,93,94
 386 429 386 429 407 407 c 256,95,96
 428 386 428 386 429 357 c 0,97,98
 429 327 429 327 407 306 c 256,99,100
 386 285 386 285 357 286 c 1,101,-1
 357 286 l 1,85,86
643 286 m 1,102,103
 613 286 613 286 592 306 c 256,104,105
 571 327 571 327 571 357 c 0,106,107
 571 386 571 386 592 407 c 256,108,109
 613 428 613 428 643 429 c 0,110,111
 672 429 672 429 694 407 c 0,112,113
 715 386 715 386 714 357 c 0,114,115
 714 327 714 327 694 306 c 0,116,117
 673 285 673 285 643 286 c 1,118,-1
 643 286 l 1,102,103
71 429 m 1,119,120
 42 429 42 429 21 449 c 0,121,122
 0 470 0 470 0 500 c 256,123,124
 0 530 0 530 21 551 c 0,125,126
 42 572 42 572 71 571 c 0,127,128
 101 571 101 571 121 551 c 256,129,130
 142 530 142 530 143 500 c 256,131,132
 143 470 143 470 121 449 c 256,133,134
 100 428 100 428 71 429 c 1,135,-1
 71 429 l 1,119,120
357 429 m 1,136,137
 327 429 327 429 306 449 c 256,138,139
 285 470 285 470 286 500 c 256,140,141
 286 530 286 530 306 551 c 256,142,143
 327 572 327 572 357 571 c 0,144,145
 386 571 386 571 407 551 c 256,146,147
 428 530 428 530 429 500 c 256,148,149
 429 470 429 470 407 449 c 256,150,151
 386 428 386 428 357 429 c 1,152,-1
 357 429 l 1,136,137
643 429 m 1,153,154
 613 429 613 429 592 449 c 256,155,156
 571 470 571 470 571 500 c 256,157,158
 571 530 571 530 592 551 c 256,159,160
 613 572 613 572 643 571 c 0,161,162
 672 571 672 571 694 551 c 0,163,164
 715 530 715 530 714 500 c 256,165,166
 714 470 714 470 694 449 c 0,167,168
 673 428 673 428 643 429 c 1,169,-1
 643 429 l 1,153,154
71 571 m 1,170,171
 42 571 42 571 21 592 c 0,172,173
 0 613 0 613 0 643 c 0,174,175
 0 672 0 672 21 694 c 0,176,177
 42 715 42 715 71 714 c 0,178,179
 101 714 101 714 121 694 c 0,180,181
 142 673 142 673 143 643 c 0,182,183
 143 613 143 613 121 592 c 256,184,185
 100 571 100 571 71 571 c 1,186,-1
 71 571 l 1,170,171
EndSplineSet
Validated: 37
EndChar

StartChar: d
Encoding: 100 100 55
Width: 999
VWidth: 714
Flags: W
LayerCount: 2
Fore
SplineSet
357 0 m 1,0,1
 327 0 327 0 306 21 c 0,2,3
 285 42 285 42 286 71 c 0,4,5
 286 101 286 101 306 121 c 256,6,7
 327 142 327 142 357 143 c 0,8,9
 386 143 386 143 407 121 c 256,10,11
 428 100 428 100 429 71 c 0,12,13
 429 42 429 42 407 21 c 0,14,15
 386 0 386 0 357 0 c 1,16,-1
 357 0 l 1,0,1
500 143 m 1,17,18
 470 143 470 143 449 164 c 256,19,20
 428 185 428 185 429 214 c 256,21,22
 429 244 429 244 449 265 c 256,23,24
 470 286 470 286 500 286 c 256,25,26
 530 286 530 286 551 265 c 256,27,28
 572 244 572 244 571 214 c 256,29,30
 571 184 571 184 551 164 c 256,31,32
 530 143 530 143 500 143 c 1,33,-1
 500 143 l 1,17,18
214 286 m 2,34,35
 184 286 184 286 164 306 c 256,36,37
 143 327 143 327 143 357 c 0,38,39
 143 386 143 386 164 407 c 256,40,41
 185 428 185 428 214 429 c 2,42,-1
 500 429 l 2,43,44
 530 429 530 429 551 407 c 256,45,46
 572 386 572 386 571 357 c 0,47,48
 571 327 571 327 551 306 c 256,49,50
 530 285 530 285 500 286 c 2,51,-1
 214 286 l 2,34,35
643 429 m 1,52,53
 613 429 613 429 592 449 c 256,54,55
 571 470 571 470 571 500 c 256,56,57
 571 530 571 530 592 551 c 256,58,59
 613 572 613 572 643 571 c 0,60,61
 672 571 672 571 694 551 c 0,62,63
 715 530 715 530 714 500 c 256,64,65
 714 470 714 470 694 449 c 0,66,67
 673 428 673 428 643 429 c 1,68,-1
 643 429 l 1,52,53
71 571 m 2,69,70
 42 571 42 571 21 592 c 0,71,72
 0 613 0 613 0 643 c 0,73,74
 0 672 0 672 21 694 c 0,75,76
 42 715 42 715 71 714 c 2,77,-1
 786 714 l 2,78,79
 816 714 816 714 836 694 c 0,80,81
 857 673 857 673 857 643 c 0,82,83
 857 613 857 613 836 592 c 256,84,85
 815 571 815 571 786 571 c 2,86,-1
 71 571 l 2,69,70
EndSplineSet
Validated: 37
EndChar

StartChar: e
Encoding: 101 101 56
Width: 999
VWidth: 714
Flags: W
LayerCount: 2
Fore
SplineSet
214 0 m 1,0,1
 184 0 184 0 164 21 c 0,2,3
 143 42 143 42 143 71 c 0,4,5
 143 101 143 101 164 121 c 256,6,7
 185 142 185 142 214 143 c 256,8,9
 244 143 244 143 265 121 c 256,10,11
 286 100 286 100 286 71 c 0,12,13
 286 42 286 42 265 21 c 0,14,15
 244 0 244 0 214 0 c 1,16,-1
 214 0 l 1,0,1
643 0 m 1,17,18
 613 0 613 0 592 21 c 0,19,20
 571 42 571 42 571 71 c 0,21,22
 571 101 571 101 592 121 c 256,23,24
 613 142 613 142 643 143 c 0,25,26
 672 143 672 143 694 121 c 0,27,28
 715 100 715 100 714 71 c 0,29,30
 714 42 714 42 694 21 c 0,31,32
 673 0 673 0 643 0 c 1,33,-1
 643 0 l 1,17,18
214 143 m 1,34,35
 184 143 184 143 164 164 c 256,36,37
 143 185 143 185 143 214 c 256,38,39
 143 244 143 244 164 265 c 256,40,41
 185 286 185 286 214 286 c 256,42,43
 244 286 244 286 265 265 c 256,44,45
 286 244 286 244 286 214 c 256,46,47
 286 184 286 184 265 164 c 256,48,49
 244 143 244 143 214 143 c 1,50,-1
 214 143 l 1,34,35
643 143 m 1,51,52
 613 143 613 143 592 164 c 256,53,54
 571 185 571 185 571 214 c 256,55,56
 571 244 571 244 592 265 c 256,57,58
 613 286 613 286 643 286 c 0,59,60
 672 286 672 286 694 265 c 0,61,62
 715 244 715 244 714 214 c 256,63,64
 714 184 714 184 694 164 c 0,65,66
 673 143 673 143 643 143 c 1,67,-1
 643 143 l 1,51,52
71 286 m 1,68,69
 42 286 42 286 21 306 c 0,70,71
 0 327 0 327 0 357 c 0,72,73
 0 386 0 386 21 407 c 0,74,75
 42 428 42 428 71 429 c 0,76,77
 101 429 101 429 121 407 c 256,78,79
 142 386 142 386 143 357 c 0,80,81
 143 327 143 327 121 306 c 256,82,83
 100 285 100 285 71 286 c 1,84,-1
 71 286 l 1,68,69
357 286 m 1,85,86
 327 286 327 286 306 306 c 256,87,88
 285 327 285 327 286 357 c 0,89,90
 286 386 286 386 306 407 c 256,91,92
 327 428 327 428 357 429 c 0,93,94
 386 429 386 429 407 407 c 256,95,96
 428 386 428 386 429 357 c 0,97,98
 429 327 429 327 407 306 c 256,99,100
 386 285 386 285 357 286 c 1,101,-1
 357 286 l 1,85,86
643 286 m 1,102,103
 613 286 613 286 592 306 c 256,104,105
 571 327 571 327 571 357 c 0,106,107
 571 386 571 386 592 407 c 256,108,109
 613 428 613 428 643 429 c 0,110,111
 672 429 672 429 694 407 c 0,112,113
 715 386 715 386 714 357 c 0,114,115
 714 327 714 327 694 306 c 0,116,117
 673 285 673 285 643 286 c 1,118,-1
 643 286 l 1,102,103
71 429 m 1,119,120
 42 429 42 429 21 449 c 0,121,122
 0 470 0 470 0 500 c 256,123,124
 0 530 0 530 21 551 c 0,125,126
 42 572 42 572 71 571 c 0,127,128
 101 571 101 571 121 551 c 256,129,130
 142 530 142 530 143 500 c 256,131,132
 143 470 143 470 121 449 c 256,133,134
 100 428 100 428 71 429 c 1,135,-1
 71 429 l 1,119,120
357 429 m 1,136,137
 327 429 327 429 306 449 c 256,138,139
 285 470 285 470 286 500 c 256,140,141
 286 530 286 530 306 551 c 256,142,143
 327 572 327 572 357 571 c 0,144,145
 386 571 386 571 407 551 c 256,146,147
 428 530 428 530 429 500 c 256,148,149
 429 470 429 470 407 449 c 256,150,151
 386 428 386 428 357 429 c 1,152,-1
 357 429 l 1,136,137
643 429 m 1,153,154
 613 429 613 429 592 449 c 256,155,156
 571 470 571 470 571 500 c 256,157,158
 571 530 571 530 592 551 c 256,159,160
 613 572 613 572 643 571 c 0,161,162
 672 571 672 571 694 551 c 0,163,164
 715 530 715 530 714 500 c 256,165,166
 714 470 714 470 694 449 c 0,167,168
 673 428 673 428 643 429 c 1,169,-1
 643 429 l 1,153,154
71 571 m 1,170,171
 42 571 42 571 21 592 c 0,172,173
 0 613 0 613 0 643 c 0,174,175
 0 672 0 672 21 694 c 0,176,177
 42 715 42 715 71 714 c 0,178,179
 101 714 101 714 121 694 c 0,180,181
 142 673 142 673 143 643 c 0,182,183
 143 613 143 613 121 592 c 256,184,185
 100 571 100 571 71 571 c 1,186,-1
 71 571 l 1,170,171
357 571 m 2,187,188
 327 571 327 571 306 592 c 256,189,190
 285 613 285 613 286 643 c 0,191,192
 286 672 286 672 306 694 c 0,193,194
 327 715 327 715 357 714 c 2,195,-1
 786 714 l 2,196,197
 816 714 816 714 836 694 c 0,198,199
 857 673 857 673 857 643 c 0,200,201
 857 613 857 613 836 592 c 256,202,203
 815 571 815 571 786 571 c 2,204,-1
 357 571 l 2,187,188
EndSplineSet
Validated: 37
EndChar

StartChar: f
Encoding: 102 102 57
Width: 999
VWidth: 714
Flags: W
LayerCount: 2
Fore
SplineSet
214 0 m 2,0,1
 184 0 184 0 164 21 c 0,2,3
 143 42 143 42 143 71 c 0,4,5
 143 101 143 101 164 121 c 256,6,7
 185 142 185 142 214 143 c 2,8,-1
 357 143 l 2,9,10
 386 143 386 143 407 121 c 256,11,12
 428 100 428 100 429 71 c 0,13,14
 429 42 429 42 407 21 c 0,15,16
 386 0 386 0 357 0 c 2,17,-1
 214 0 l 2,0,1
643 0 m 2,18,19
 613 0 613 0 592 21 c 0,20,21
 571 42 571 42 571 71 c 0,22,23
 571 101 571 101 592 121 c 256,24,25
 613 142 613 142 643 143 c 2,26,-1
 786 143 l 2,27,28
 816 143 816 143 836 121 c 256,29,30
 857 100 857 100 857 71 c 0,31,32
 857 42 857 42 836 21 c 0,33,34
 815 0 815 0 786 0 c 2,35,-1
 643 0 l 2,18,19
71 143 m 1,36,37
 42 143 42 143 21 164 c 0,38,39
 0 185 0 185 0 214 c 256,40,41
 0 244 0 244 21 265 c 0,42,43
 42 286 42 286 71 286 c 0,44,45
 101 286 101 286 121 265 c 256,46,47
 142 244 142 244 143 214 c 256,48,49
 143 184 143 184 121 164 c 256,50,51
 100 143 100 143 71 143 c 1,52,-1
 71 143 l 1,36,37
500 143 m 1,53,54
 470 143 470 143 449 164 c 256,55,56
 428 185 428 185 429 214 c 256,57,58
 429 244 429 244 449 265 c 256,59,60
 470 286 470 286 500 286 c 256,61,62
 530 286 530 286 551 265 c 256,63,64
 572 244 572 244 571 214 c 256,65,66
 571 184 571 184 551 164 c 256,67,68
 530 143 530 143 500 143 c 1,69,-1
 500 143 l 1,53,54
71 286 m 2,70,71
 42 286 42 286 21 306 c 0,72,73
 0 327 0 327 0 357 c 0,74,75
 0 386 0 386 21 407 c 0,76,77
 42 428 42 428 71 429 c 2,78,-1
 643 429 l 2,79,80
 672 429 672 429 694 407 c 0,81,82
 715 386 715 386 714 357 c 0,83,84
 714 327 714 327 694 306 c 0,85,86
 673 285 673 285 643 286 c 2,87,-1
 71 286 l 2,70,71
500 429 m 1,88,89
 470 429 470 429 449 449 c 256,90,91
 428 470 428 470 429 500 c 256,92,93
 429 530 429 530 449 551 c 256,94,95
 470 572 470 572 500 571 c 256,96,97
 530 571 530 571 551 551 c 256,98,99
 572 530 572 530 571 500 c 256,100,101
 571 470 571 470 551 449 c 256,102,103
 530 428 530 428 500 429 c 1,104,-1
 500 429 l 1,88,89
786 429 m 1,105,106
 757 429 757 429 735 449 c 0,107,108
 714 470 714 470 714 500 c 256,109,110
 714 530 714 530 735 551 c 0,111,112
 756 572 756 572 786 571 c 0,113,114
 816 571 816 571 836 551 c 256,115,116
 857 530 857 530 857 500 c 256,117,118
 857 470 857 470 836 449 c 256,119,120
 815 428 815 428 786 429 c 1,121,-1
 786 429 l 1,105,106
500 571 m 1,122,123
 470 571 470 571 449 592 c 256,124,125
 428 613 428 613 429 643 c 0,126,127
 429 672 429 672 449 694 c 0,128,129
 470 715 470 715 500 714 c 256,130,131
 530 714 530 714 551 694 c 0,132,133
 572 673 572 673 571 643 c 0,134,135
 571 613 571 613 551 592 c 256,136,137
 530 571 530 571 500 571 c 1,138,-1
 500 571 l 1,122,123
EndSplineSet
Validated: 37
EndChar

StartChar: g
Encoding: 103 103 58
Width: 999
VWidth: 714
Flags: W
LayerCount: 2
Fore
SplineSet
71 0 m 2,0,1
 42 0 42 0 21 21 c 0,2,3
 0 42 0 42 0 71 c 0,4,5
 0 101 0 101 21 121 c 0,6,7
 42 142 42 142 71 143 c 2,8,-1
 357 143 l 2,9,10
 386 143 386 143 407 121 c 256,11,12
 428 100 428 100 429 71 c 0,13,14
 429 42 429 42 407 21 c 0,15,16
 386 0 386 0 357 0 c 2,17,-1
 71 0 l 2,0,1
71 143 m 1,18,19
 42 143 42 143 21 164 c 0,20,21
 0 185 0 185 0 214 c 256,22,23
 0 244 0 244 21 265 c 0,24,25
 42 286 42 286 71 286 c 0,26,27
 101 286 101 286 121 265 c 256,28,29
 142 244 142 244 143 214 c 256,30,31
 143 184 143 184 121 164 c 256,32,33
 100 143 100 143 71 143 c 1,34,-1
 71 143 l 1,18,19
500 143 m 2,35,36
 470 143 470 143 449 164 c 256,37,38
 428 185 428 185 429 214 c 256,39,40
 429 244 429 244 449 265 c 256,41,42
 470 286 470 286 500 286 c 2,43,-1
 643 286 l 2,44,45
 672 286 672 286 694 265 c 0,46,47
 715 244 715 244 714 214 c 256,48,49
 714 184 714 184 694 164 c 0,50,51
 673 143 673 143 643 143 c 2,52,-1
 500 143 l 2,35,36
71 286 m 1,53,54
 42 286 42 286 21 306 c 0,55,56
 0 327 0 327 0 357 c 0,57,58
 0 386 0 386 21 407 c 0,59,60
 42 428 42 428 71 429 c 0,61,62
 101 429 101 429 121 407 c 256,63,64
 142 386 142 386 143 357 c 0,65,66
 143 327 143 327 121 306 c 256,67,68
 100 285 100 285 71 286 c 1,69,-1
 71 286 l 1,53,54
786 286 m 1,70,71
 757 286 757 286 735 306 c 0,72,73
 714 327 714 327 714 357 c 0,74,75
 714 386 714 386 735 407 c 0,76,77
 756 428 756 428 786 429 c 0,78,79
 816 429 816 429 836 407 c 256,80,81
 857 386 857 386 857 357 c 0,82,83
 857 327 857 327 836 306 c 256,84,85
 815 285 815 285 786 286 c 1,86,-1
 786 286 l 1,70,71
71 429 m 1,87,88
 42 429 42 429 21 449 c 0,89,90
 0 470 0 470 0 500 c 256,91,92
 0 530 0 530 21 551 c 0,93,94
 42 572 42 572 71 571 c 0,95,96
 101 571 101 571 121 551 c 256,97,98
 142 530 142 530 143 500 c 256,99,100
 143 470 143 470 121 449 c 256,101,102
 100 428 100 428 71 429 c 1,103,-1
 71 429 l 1,87,88
357 429 m 1,104,105
 327 429 327 429 306 449 c 256,106,107
 285 470 285 470 286 500 c 256,108,109
 286 530 286 530 306 551 c 256,110,111
 327 572 327 572 357 571 c 0,112,113
 386 571 386 571 407 551 c 256,114,115
 428 530 428 530 429 500 c 256,116,117
 429 470 429 470 407 449 c 256,118,119
 386 428 386 428 357 429 c 1,120,-1
 357 429 l 1,104,105
786 429 m 1,121,122
 757 429 757 429 735 449 c 0,123,124
 714 470 714 470 714 500 c 256,125,126
 714 530 714 530 735 551 c 0,127,128
 756 572 756 572 786 571 c 0,129,130
 816 571 816 571 836 551 c 256,131,132
 857 530 857 530 857 500 c 256,133,134
 857 470 857 470 836 449 c 256,135,136
 815 428 815 428 786 429 c 1,137,-1
 786 429 l 1,121,122
71 571 m 1,138,139
 42 571 42 571 21 592 c 0,140,141
 0 613 0 613 0 643 c 0,142,143
 0 672 0 672 21 694 c 0,144,145
 42 715 42 715 71 714 c 0,146,147
 101 714 101 714 121 694 c 0,148,149
 142 673 142 673 143 643 c 0,150,151
 143 613 143 613 121 592 c 256,152,153
 100 571 100 571 71 571 c 1,154,-1
 71 571 l 1,138,139
357 571 m 2,155,156
 327 571 327 571 306 592 c 256,157,158
 285 613 285 613 286 643 c 0,159,160
 286 672 286 672 306 694 c 0,161,162
 327 715 327 715 357 714 c 2,163,-1
 786 714 l 2,164,165
 816 714 816 714 836 694 c 0,166,167
 857 673 857 673 857 643 c 0,168,169
 857 613 857 613 836 592 c 256,170,171
 815 571 815 571 786 571 c 2,172,-1
 357 571 l 2,155,156
EndSplineSet
Validated: 37
EndChar

StartChar: h
Encoding: 104 104 59
Width: 999
VWidth: 714
Flags: W
LayerCount: 2
Fore
SplineSet
71 0 m 2,0,1
 42 0 42 0 21 21 c 0,2,3
 0 42 0 42 0 71 c 0,4,5
 0 101 0 101 21 121 c 0,6,7
 42 142 42 142 71 143 c 2,8,-1
 786 143 l 2,9,10
 816 143 816 143 836 121 c 256,11,12
 857 100 857 100 857 71 c 0,13,14
 857 42 857 42 836 21 c 0,15,16
 815 0 815 0 786 0 c 2,17,-1
 71 0 l 2,0,1
214 286 m 2,18,19
 184 286 184 286 164 306 c 256,20,21
 143 327 143 327 143 357 c 0,22,23
 143 386 143 386 164 407 c 256,24,25
 185 428 185 428 214 429 c 2,26,-1
 643 429 l 2,27,28
 672 429 672 429 694 407 c 0,29,30
 715 386 715 386 714 357 c 0,31,32
 714 327 714 327 694 306 c 0,33,34
 673 285 673 285 643 286 c 2,35,-1
 214 286 l 2,18,19
71 571 m 2,36,37
 42 571 42 571 21 592 c 0,38,39
 0 613 0 613 0 643 c 0,40,41
 0 672 0 672 21 694 c 0,42,43
 42 715 42 715 71 714 c 2,44,-1
 786 714 l 2,45,46
 816 714 816 714 836 694 c 0,47,48
 857 673 857 673 857 643 c 0,49,50
 857 613 857 613 836 592 c 256,51,52
 815 571 815 571 786 571 c 2,53,-1
 71 571 l 2,36,37
EndSplineSet
Validated: 33
EndChar

StartChar: i
Encoding: 105 105 60
Width: 999
VWidth: 714
Flags: W
LayerCount: 2
Fore
SplineSet
500 0 m 1,0,1
 470 0 470 0 449 21 c 0,2,3
 428 42 428 42 429 71 c 0,4,5
 429 101 429 101 449 121 c 256,6,7
 470 142 470 142 500 143 c 256,8,9
 530 143 530 143 551 121 c 256,10,11
 572 100 572 100 571 71 c 0,12,13
 571 42 571 42 551 21 c 0,14,15
 530 0 530 0 500 0 c 1,16,-1
 500 0 l 1,0,1
500 143 m 1,17,18
 470 143 470 143 449 164 c 256,19,20
 428 185 428 185 429 214 c 256,21,22
 429 244 429 244 449 265 c 256,23,24
 470 286 470 286 500 286 c 256,25,26
 530 286 530 286 551 265 c 256,27,28
 572 244 572 244 571 214 c 256,29,30
 571 184 571 184 551 164 c 256,31,32
 530 143 530 143 500 143 c 1,33,-1
 500 143 l 1,17,18
500 286 m 1,34,35
 470 286 470 286 449 306 c 256,36,37
 428 327 428 327 429 357 c 0,38,39
 429 386 429 386 449 407 c 256,40,41
 470 428 470 428 500 429 c 256,42,43
 530 429 530 429 551 407 c 256,44,45
 572 386 572 386 571 357 c 0,46,47
 571 327 571 327 551 306 c 256,48,49
 530 285 530 285 500 286 c 1,50,-1
 500 286 l 1,34,35
71 429 m 2,51,52
 42 429 42 429 21 449 c 0,53,54
 0 470 0 470 0 500 c 256,55,56
 0 530 0 530 21 551 c 0,57,58
 42 572 42 572 71 571 c 2,59,-1
 214 571 l 2,60,61
 244 571 244 571 265 551 c 256,62,63
 286 530 286 530 286 500 c 256,64,65
 286 470 286 470 265 449 c 256,66,67
 244 428 244 428 214 429 c 2,68,-1
 71 429 l 2,51,52
500 429 m 1,69,70
 470 429 470 429 449 449 c 256,71,72
 428 470 428 470 429 500 c 256,73,74
 429 530 429 530 449 551 c 256,75,76
 470 572 470 572 500 571 c 256,77,78
 530 571 530 571 551 551 c 256,79,80
 572 530 572 530 571 500 c 256,81,82
 571 470 571 470 551 449 c 256,83,84
 530 428 530 428 500 429 c 1,85,-1
 500 429 l 1,69,70
357 571 m 2,86,87
 327 571 327 571 306 592 c 256,88,89
 285 613 285 613 286 643 c 0,90,91
 286 672 286 672 306 694 c 0,92,93
 327 715 327 715 357 714 c 2,94,-1
 500 714 l 2,95,96
 530 714 530 714 551 694 c 0,97,98
 572 673 572 673 571 643 c 0,99,100
 571 613 571 613 551 592 c 256,101,102
 530 571 530 571 500 571 c 2,103,-1
 357 571 l 2,86,87
EndSplineSet
Validated: 37
EndChar

StartChar: j
Encoding: 106 106 61
Width: 999
VWidth: 714
Flags: W
LayerCount: 2
Fore
SplineSet
71 0 m 2,0,1
 42 0 42 0 21 21 c 0,2,3
 0 42 0 42 0 71 c 0,4,5
 0 101 0 101 21 121 c 0,6,7
 42 142 42 142 71 143 c 2,8,-1
 643 143 l 2,9,10
 672 143 672 143 694 121 c 0,11,12
 715 100 715 100 714 71 c 0,13,14
 714 42 714 42 694 21 c 0,15,16
 673 0 673 0 643 0 c 2,17,-1
 71 0 l 2,0,1
786 143 m 1,18,19
 757 143 757 143 735 164 c 0,20,21
 714 185 714 185 714 214 c 256,22,23
 714 244 714 244 735 265 c 0,24,25
 756 286 756 286 786 286 c 0,26,27
 816 286 816 286 836 265 c 256,28,29
 857 244 857 244 857 214 c 256,30,31
 857 184 857 184 836 164 c 256,32,33
 815 143 815 143 786 143 c 1,34,-1
 786 143 l 1,18,19
71 286 m 2,35,36
 42 286 42 286 21 306 c 0,37,38
 0 327 0 327 0 357 c 0,39,40
 0 386 0 386 21 407 c 0,41,42
 42 428 42 428 71 429 c 2,43,-1
 500 429 l 2,44,45
 530 429 530 429 551 407 c 256,46,47
 572 386 572 386 571 357 c 0,48,49
 571 327 571 327 551 306 c 256,50,51
 530 285 530 285 500 286 c 2,52,-1
 71 286 l 2,35,36
786 286 m 1,53,54
 757 286 757 286 735 306 c 0,55,56
 714 327 714 327 714 357 c 0,57,58
 714 386 714 386 735 407 c 0,59,60
 756 428 756 428 786 429 c 0,61,62
 816 429 816 429 836 407 c 256,63,64
 857 386 857 386 857 357 c 0,65,66
 857 327 857 327 836 306 c 256,67,68
 815 285 815 285 786 286 c 1,69,-1
 786 286 l 1,53,54
643 429 m 2,70,71
 613 429 613 429 592 449 c 256,72,73
 571 470 571 470 571 500 c 256,74,75
 571 530 571 530 592 551 c 256,76,77
 613 572 613 572 643 571 c 2,78,-1
 786 571 l 2,79,80
 816 571 816 571 836 551 c 256,81,82
 857 530 857 530 857 500 c 256,83,84
 857 470 857 470 836 449 c 256,85,86
 815 428 815 428 786 429 c 2,87,-1
 643 429 l 2,70,71
786 571 m 1,88,89
 757 571 757 571 735 592 c 0,90,91
 714 613 714 613 714 643 c 0,92,93
 714 672 714 672 735 694 c 0,94,95
 756 715 756 715 786 714 c 0,96,97
 816 714 816 714 836 694 c 0,98,99
 857 673 857 673 857 643 c 0,100,101
 857 613 857 613 836 592 c 256,102,103
 815 571 815 571 786 571 c 1,104,-1
 786 571 l 1,88,89
EndSplineSet
Validated: 37
EndChar

StartChar: k
Encoding: 107 107 62
Width: 999
VWidth: 714
Flags: W
LayerCount: 2
Fore
SplineSet
71 0 m 2,0,1
 42 0 42 0 21 21 c 0,2,3
 0 42 0 42 0 71 c 0,4,5
 0 101 0 101 21 121 c 0,6,7
 42 142 42 142 71 143 c 2,8,-1
 786 143 l 2,9,10
 816 143 816 143 836 121 c 256,11,12
 857 100 857 100 857 71 c 0,13,14
 857 42 857 42 836 21 c 0,15,16
 815 0 815 0 786 0 c 2,17,-1
 71 0 l 2,0,1
786 143 m 1,18,19
 757 143 757 143 735 164 c 0,20,21
 714 185 714 185 714 214 c 256,22,23
 714 244 714 244 735 265 c 0,24,25
 756 286 756 286 786 286 c 0,26,27
 816 286 816 286 836 265 c 256,28,29
 857 244 857 244 857 214 c 256,30,31
 857 184 857 184 836 164 c 256,32,33
 815 143 815 143 786 143 c 1,34,-1
 786 143 l 1,18,19
786 286 m 1,35,36
 757 286 757 286 735 306 c 0,37,38
 714 327 714 327 714 357 c 0,39,40
 714 386 714 386 735 407 c 0,41,42
 756 428 756 428 786 429 c 0,43,44
 816 429 816 429 836 407 c 256,45,46
 857 386 857 386 857 357 c 0,47,48
 857 327 857 327 836 306 c 256,49,50
 815 285 815 285 786 286 c 1,51,-1
 786 286 l 1,35,36
786 429 m 1,52,53
 757 429 757 429 735 449 c 0,54,55
 714 470 714 470 714 500 c 256,56,57
 714 530 714 530 735 551 c 0,58,59
 756 572 756 572 786 571 c 0,60,61
 816 571 816 571 836 551 c 256,62,63
 857 530 857 530 857 500 c 256,64,65
 857 470 857 470 836 449 c 256,66,67
 815 428 815 428 786 429 c 1,68,-1
 786 429 l 1,52,53
71 571 m 2,69,70
 42 571 42 571 21 592 c 0,71,72
 0 613 0 613 0 643 c 0,73,74
 0 672 0 672 21 694 c 0,75,76
 42 715 42 715 71 714 c 2,77,-1
 786 714 l 2,78,79
 816 714 816 714 836 694 c 0,80,81
 857 673 857 673 857 643 c 0,82,83
 857 613 857 613 836 592 c 256,84,85
 815 571 815 571 786 571 c 2,86,-1
 71 571 l 2,69,70
EndSplineSet
Validated: 37
EndChar

StartChar: l
Encoding: 108 108 63
Width: 999
VWidth: 714
Flags: W
LayerCount: 2
Fore
SplineSet
500 0 m 2,0,1
 470 0 470 0 449 21 c 0,2,3
 428 42 428 42 429 71 c 0,4,5
 429 101 429 101 449 121 c 256,6,7
 470 142 470 142 500 143 c 2,8,-1
 643 143 l 2,9,10
 672 143 672 143 694 121 c 0,11,12
 715 100 715 100 714 71 c 0,13,14
 714 42 714 42 694 21 c 0,15,16
 673 0 673 0 643 0 c 2,17,-1
 500 0 l 2,0,1
214 143 m 2,18,19
 184 143 184 143 164 164 c 256,20,21
 143 185 143 185 143 214 c 256,22,23
 143 244 143 244 164 265 c 256,24,25
 185 286 185 286 214 286 c 2,26,-1
 357 286 l 2,27,28
 386 286 386 286 407 265 c 256,29,30
 428 244 428 244 429 214 c 256,31,32
 429 184 429 184 407 164 c 256,33,34
 386 143 386 143 357 143 c 2,35,-1
 214 143 l 2,18,19
643 143 m 1,36,37
 613 143 613 143 592 164 c 256,38,39
 571 185 571 185 571 214 c 256,40,41
 571 244 571 244 592 265 c 256,42,43
 613 286 613 286 643 286 c 0,44,45
 672 286 672 286 694 265 c 0,46,47
 715 244 715 244 714 214 c 256,48,49
 714 184 714 184 694 164 c 0,50,51
 673 143 673 143 643 143 c 1,52,-1
 643 143 l 1,36,37
71 286 m 1,53,54
 42 286 42 286 21 306 c 0,55,56
 0 327 0 327 0 357 c 0,57,58
 0 386 0 386 21 407 c 0,59,60
 42 428 42 428 71 429 c 0,61,62
 101 429 101 429 121 407 c 256,63,64
 142 386 142 386 143 357 c 0,65,66
 143 327 143 327 121 306 c 256,67,68
 100 285 100 285 71 286 c 1,69,-1
 71 286 l 1,53,54
643 286 m 1,70,71
 613 286 613 286 592 306 c 256,72,73
 571 327 571 327 571 357 c 0,74,75
 571 386 571 386 592 407 c 256,76,77
 613 428 613 428 643 429 c 0,78,79
 672 429 672 429 694 407 c 0,80,81
 715 386 715 386 714 357 c 0,82,83
 714 327 714 327 694 306 c 0,84,85
 673 285 673 285 643 286 c 1,86,-1
 643 286 l 1,70,71
643 429 m 1,87,88
 613 429 613 429 592 449 c 256,89,90
 571 470 571 470 571 500 c 256,91,92
 571 530 571 530 592 551 c 256,93,94
 613 572 613 572 643 571 c 0,95,96
 672 571 672 571 694 551 c 0,97,98
 715 530 715 530 714 500 c 256,99,100
 714 470 714 470 694 449 c 0,101,102
 673 428 673 428 643 429 c 1,103,-1
 643 429 l 1,87,88
643 571 m 1,104,105
 613 571 613 571 592 592 c 256,106,107
 571 613 571 613 571 643 c 0,108,109
 571 672 571 672 592 694 c 0,110,111
 613 715 613 715 643 714 c 0,112,113
 672 714 672 714 694 694 c 0,114,115
 715 673 715 673 714 643 c 0,116,117
 714 613 714 613 694 592 c 0,118,119
 673 571 673 571 643 571 c 1,120,-1
 643 571 l 1,104,105
EndSplineSet
Validated: 37
EndChar

StartChar: m
Encoding: 109 109 64
Width: 999
VWidth: 714
Flags: W
LayerCount: 2
Fore
SplineSet
71 0 m 2,0,1
 42 0 42 0 21 21 c 0,2,3
 0 42 0 42 0 71 c 0,4,5
 0 101 0 101 21 121 c 0,6,7
 42 142 42 142 71 143 c 2,8,-1
 786 143 l 2,9,10
 816 143 816 143 836 121 c 256,11,12
 857 100 857 100 857 71 c 0,13,14
 857 42 857 42 836 21 c 0,15,16
 815 0 815 0 786 0 c 2,17,-1
 71 0 l 2,0,1
214 143 m 1,18,19
 184 143 184 143 164 164 c 256,20,21
 143 185 143 185 143 214 c 256,22,23
 143 244 143 244 164 265 c 256,24,25
 185 286 185 286 214 286 c 256,26,27
 244 286 244 286 265 265 c 256,28,29
 286 244 286 244 286 214 c 256,30,31
 286 184 286 184 265 164 c 256,32,33
 244 143 244 143 214 143 c 1,34,-1
 214 143 l 1,18,19
214 286 m 1,35,36
 184 286 184 286 164 306 c 256,37,38
 143 327 143 327 143 357 c 0,39,40
 143 386 143 386 164 407 c 256,41,42
 185 428 185 428 214 429 c 256,43,44
 244 429 244 429 265 407 c 256,45,46
 286 386 286 386 286 357 c 0,47,48
 286 327 286 327 265 306 c 256,49,50
 244 285 244 285 214 286 c 1,51,-1
 214 286 l 1,35,36
357 429 m 2,52,53
 327 429 327 429 306 449 c 256,54,55
 285 470 285 470 286 500 c 256,56,57
 286 530 286 530 306 551 c 256,58,59
 327 572 327 572 357 571 c 2,60,-1
 500 571 l 2,61,62
 530 571 530 571 551 551 c 256,63,64
 572 530 572 530 571 500 c 256,65,66
 571 470 571 470 551 449 c 256,67,68
 530 428 530 428 500 429 c 2,69,-1
 357 429 l 2,52,53
643 571 m 2,70,71
 613 571 613 571 592 592 c 256,72,73
 571 613 571 613 571 643 c 0,74,75
 571 672 571 672 592 694 c 0,76,77
 613 715 613 715 643 714 c 2,78,-1
 786 714 l 2,79,80
 816 714 816 714 836 694 c 0,81,82
 857 673 857 673 857 643 c 0,83,84
 857 613 857 613 836 592 c 256,85,86
 815 571 815 571 786 571 c 2,87,-1
 643 571 l 2,70,71
EndSplineSet
Validated: 37
EndChar

StartChar: n
Encoding: 110 110 65
Width: 999
VWidth: 714
Flags: W
LayerCount: 2
Fore
SplineSet
214 0 m 1,0,1
 184 0 184 0 164 21 c 0,2,3
 143 42 143 42 143 71 c 0,4,5
 143 101 143 101 164 121 c 256,6,7
 185 142 185 142 214 143 c 256,8,9
 244 143 244 143 265 121 c 256,10,11
 286 100 286 100 286 71 c 0,12,13
 286 42 286 42 265 21 c 0,14,15
 244 0 244 0 214 0 c 1,16,-1
 214 0 l 1,0,1
786 0 m 1,17,18
 757 0 757 0 735 21 c 0,19,20
 714 42 714 42 714 71 c 0,21,22
 714 101 714 101 735 121 c 0,23,24
 756 142 756 142 786 143 c 0,25,26
 816 143 816 143 836 121 c 256,27,28
 857 100 857 100 857 71 c 0,29,30
 857 42 857 42 836 21 c 0,31,32
 815 0 815 0 786 0 c 1,33,-1
 786 0 l 1,17,18
71 143 m 1,34,35
 42 143 42 143 21 164 c 0,36,37
 0 185 0 185 0 214 c 256,38,39
 0 244 0 244 21 265 c 0,40,41
 42 286 42 286 71 286 c 0,42,43
 101 286 101 286 121 265 c 256,44,45
 142 244 142 244 143 214 c 256,46,47
 143 184 143 184 121 164 c 256,48,49
 100 143 100 143 71 143 c 1,50,-1
 71 143 l 1,34,35
357 143 m 1,51,52
 327 143 327 143 306 164 c 256,53,54
 285 185 285 185 286 214 c 256,55,56
 286 244 286 244 306 265 c 256,57,58
 327 286 327 286 357 286 c 0,59,60
 386 286 386 286 407 265 c 256,61,62
 428 244 428 244 429 214 c 256,63,64
 429 184 429 184 407 164 c 256,65,66
 386 143 386 143 357 143 c 1,67,-1
 357 143 l 1,51,52
786 143 m 1,68,69
 757 143 757 143 735 164 c 0,70,71
 714 185 714 185 714 214 c 256,72,73
 714 244 714 244 735 265 c 0,74,75
 756 286 756 286 786 286 c 0,76,77
 816 286 816 286 836 265 c 256,78,79
 857 244 857 244 857 214 c 256,80,81
 857 184 857 184 836 164 c 256,82,83
 815 143 815 143 786 143 c 1,84,-1
 786 143 l 1,68,69
71 286 m 1,85,86
 42 286 42 286 21 306 c 0,87,88
 0 327 0 327 0 357 c 0,89,90
 0 386 0 386 21 407 c 0,91,92
 42 428 42 428 71 429 c 0,93,94
 101 429 101 429 121 407 c 256,95,96
 142 386 142 386 143 357 c 0,97,98
 143 327 143 327 121 306 c 256,99,100
 100 285 100 285 71 286 c 1,101,-1
 71 286 l 1,85,86
500 286 m 1,102,103
 470 286 470 286 449 306 c 256,104,105
 428 327 428 327 429 357 c 0,106,107
 429 386 429 386 449 407 c 256,108,109
 470 428 470 428 500 429 c 256,110,111
 530 429 530 429 551 407 c 256,112,113
 572 386 572 386 571 357 c 0,114,115
 571 327 571 327 551 306 c 256,116,117
 530 285 530 285 500 286 c 1,118,-1
 500 286 l 1,102,103
786 286 m 1,119,120
 757 286 757 286 735 306 c 0,121,122
 714 327 714 327 714 357 c 0,123,124
 714 386 714 386 735 407 c 0,125,126
 756 428 756 428 786 429 c 0,127,128
 816 429 816 429 836 407 c 256,129,130
 857 386 857 386 857 357 c 0,131,132
 857 327 857 327 836 306 c 256,133,134
 815 285 815 285 786 286 c 1,135,-1
 786 286 l 1,119,120
71 429 m 1,136,137
 42 429 42 429 21 449 c 0,138,139
 0 470 0 470 0 500 c 256,140,141
 0 530 0 530 21 551 c 0,142,143
 42 572 42 572 71 571 c 0,144,145
 101 571 101 571 121 551 c 256,146,147
 142 530 142 530 143 500 c 256,148,149
 143 470 143 470 121 449 c 256,150,151
 100 428 100 428 71 429 c 1,152,-1
 71 429 l 1,136,137
643 429 m 1,153,154
 613 429 613 429 592 449 c 256,155,156
 571 470 571 470 571 500 c 256,157,158
 571 530 571 530 592 551 c 256,159,160
 613 572 613 572 643 571 c 0,161,162
 672 571 672 571 694 551 c 0,163,164
 715 530 715 530 714 500 c 256,165,166
 714 470 714 470 694 449 c 0,167,168
 673 428 673 428 643 429 c 1,169,-1
 643 429 l 1,153,154
214 571 m 1,170,171
 184 571 184 571 164 592 c 256,172,173
 143 613 143 613 143 643 c 0,174,175
 143 672 143 672 164 694 c 0,176,177
 185 715 185 715 214 714 c 256,178,179
 244 714 244 714 265 694 c 0,180,181
 286 673 286 673 286 643 c 0,182,183
 286 613 286 613 265 592 c 256,184,185
 244 571 244 571 214 571 c 1,186,-1
 214 571 l 1,170,171
643 571 m 1,187,188
 613 571 613 571 592 592 c 256,189,190
 571 613 571 613 571 643 c 0,191,192
 571 672 571 672 592 694 c 0,193,194
 613 715 613 715 643 714 c 0,195,196
 672 714 672 714 694 694 c 0,197,198
 715 673 715 673 714 643 c 0,199,200
 714 613 714 613 694 592 c 0,201,202
 673 571 673 571 643 571 c 1,203,-1
 643 571 l 1,187,188
EndSplineSet
Validated: 37
EndChar

StartChar: o
Encoding: 111 111 66
Width: 999
VWidth: 714
Flags: W
LayerCount: 2
Fore
SplineSet
71 0 m 2,0,1
 42 0 42 0 21 21 c 0,2,3
 0 42 0 42 0 71 c 0,4,5
 0 101 0 101 21 121 c 0,6,7
 42 142 42 142 71 143 c 2,8,-1
 786 143 l 2,9,10
 816 143 816 143 836 121 c 256,11,12
 857 100 857 100 857 71 c 0,13,14
 857 42 857 42 836 21 c 0,15,16
 815 0 815 0 786 0 c 2,17,-1
 71 0 l 2,0,1
71 143 m 1,18,19
 42 143 42 143 21 164 c 0,20,21
 0 185 0 185 0 214 c 256,22,23
 0 244 0 244 21 265 c 0,24,25
 42 286 42 286 71 286 c 0,26,27
 101 286 101 286 121 265 c 256,28,29
 142 244 142 244 143 214 c 256,30,31
 143 184 143 184 121 164 c 256,32,33
 100 143 100 143 71 143 c 1,34,-1
 71 143 l 1,18,19
786 143 m 1,35,36
 757 143 757 143 735 164 c 0,37,38
 714 185 714 185 714 214 c 256,39,40
 714 244 714 244 735 265 c 0,41,42
 756 286 756 286 786 286 c 0,43,44
 816 286 816 286 836 265 c 256,45,46
 857 244 857 244 857 214 c 256,47,48
 857 184 857 184 836 164 c 256,49,50
 815 143 815 143 786 143 c 1,51,-1
 786 143 l 1,35,36
71 286 m 1,52,53
 42 286 42 286 21 306 c 0,54,55
 0 327 0 327 0 357 c 0,56,57
 0 386 0 386 21 407 c 0,58,59
 42 428 42 428 71 429 c 0,60,61
 101 429 101 429 121 407 c 256,62,63
 142 386 142 386 143 357 c 0,64,65
 143 327 143 327 121 306 c 256,66,67
 100 285 100 285 71 286 c 1,68,-1
 71 286 l 1,52,53
786 286 m 1,69,70
 757 286 757 286 735 306 c 0,71,72
 714 327 714 327 714 357 c 0,73,74
 714 386 714 386 735 407 c 0,75,76
 756 428 756 428 786 429 c 0,77,78
 816 429 816 429 836 407 c 256,79,80
 857 386 857 386 857 357 c 0,81,82
 857 327 857 327 836 306 c 256,83,84
 815 285 815 285 786 286 c 1,85,-1
 786 286 l 1,69,70
214 429 m 1,86,87
 184 429 184 429 164 449 c 256,88,89
 143 470 143 470 143 500 c 256,90,91
 143 530 143 530 164 551 c 256,92,93
 185 572 185 572 214 571 c 256,94,95
 244 571 244 571 265 551 c 256,96,97
 286 530 286 530 286 500 c 256,98,99
 286 470 286 470 265 449 c 256,100,101
 244 428 244 428 214 429 c 1,102,-1
 214 429 l 1,86,87
643 429 m 1,103,104
 613 429 613 429 592 449 c 256,105,106
 571 470 571 470 571 500 c 256,107,108
 571 530 571 530 592 551 c 256,109,110
 613 572 613 572 643 571 c 0,111,112
 672 571 672 571 694 551 c 0,113,114
 715 530 715 530 714 500 c 256,115,116
 714 470 714 470 694 449 c 0,117,118
 673 428 673 428 643 429 c 1,119,-1
 643 429 l 1,103,104
357 571 m 2,120,121
 327 571 327 571 306 592 c 256,122,123
 285 613 285 613 286 643 c 0,124,125
 286 672 286 672 306 694 c 0,126,127
 327 715 327 715 357 714 c 2,128,-1
 500 714 l 2,129,130
 530 714 530 714 551 694 c 0,131,132
 572 673 572 673 571 643 c 0,133,134
 571 613 571 613 551 592 c 256,135,136
 530 571 530 571 500 571 c 2,137,-1
 357 571 l 2,120,121
EndSplineSet
Validated: 37
EndChar

StartChar: p
Encoding: 112 112 67
Width: 999
VWidth: 714
Flags: W
LayerCount: 2
Fore
SplineSet
214 0 m 2,0,1
 184 0 184 0 164 21 c 0,2,3
 143 42 143 42 143 71 c 0,4,5
 143 101 143 101 164 121 c 256,6,7
 185 142 185 142 214 143 c 2,8,-1
 643 143 l 2,9,10
 672 143 672 143 694 121 c 0,11,12
 715 100 715 100 714 71 c 0,13,14
 714 42 714 42 694 21 c 0,15,16
 673 0 673 0 643 0 c 2,17,-1
 214 0 l 2,0,1
71 143 m 1,18,19
 42 143 42 143 21 164 c 0,20,21
 0 185 0 185 0 214 c 256,22,23
 0 244 0 244 21 265 c 0,24,25
 42 286 42 286 71 286 c 0,26,27
 101 286 101 286 121 265 c 256,28,29
 142 244 142 244 143 214 c 256,30,31
 143 184 143 184 121 164 c 256,32,33
 100 143 100 143 71 143 c 1,34,-1
 71 143 l 1,18,19
643 143 m 1,35,36
 613 143 613 143 592 164 c 256,37,38
 571 185 571 185 571 214 c 256,39,40
 571 244 571 244 592 265 c 256,41,42
 613 286 613 286 643 286 c 0,43,44
 672 286 672 286 694 265 c 0,45,46
 715 244 715 244 714 214 c 256,47,48
 714 184 714 184 694 164 c 0,49,50
 673 143 673 143 643 143 c 1,51,-1
 643 143 l 1,35,36
71 286 m 1,52,53
 42 286 42 286 21 306 c 0,54,55
 0 327 0 327 0 357 c 0,56,57
 0 386 0 386 21 407 c 0,58,59
 42 428 42 428 71 429 c 0,60,61
 101 429 101 429 121 407 c 256,62,63
 142 386 142 386 143 357 c 0,64,65
 143 327 143 327 121 306 c 256,66,67
 100 285 100 285 71 286 c 1,68,-1
 71 286 l 1,52,53
643 286 m 1,69,70
 613 286 613 286 592 306 c 256,71,72
 571 327 571 327 571 357 c 0,73,74
 571 386 571 386 592 407 c 256,75,76
 613 428 613 428 643 429 c 0,77,78
 672 429 672 429 694 407 c 0,79,80
 715 386 715 386 714 357 c 0,81,82
 714 327 714 327 694 306 c 0,83,84
 673 285 673 285 643 286 c 1,85,-1
 643 286 l 1,69,70
71 429 m 1,86,87
 42 429 42 429 21 449 c 0,88,89
 0 470 0 470 0 500 c 256,90,91
 0 530 0 530 21 551 c 0,92,93
 42 572 42 572 71 571 c 0,94,95
 101 571 101 571 121 551 c 256,96,97
 142 530 142 530 143 500 c 256,98,99
 143 470 143 470 121 449 c 256,100,101
 100 428 100 428 71 429 c 1,102,-1
 71 429 l 1,86,87
357 429 m 1,103,104
 327 429 327 429 306 449 c 256,105,106
 285 470 285 470 286 500 c 256,107,108
 286 530 286 530 306 551 c 256,109,110
 327 572 327 572 357 571 c 0,111,112
 386 571 386 571 407 551 c 256,113,114
 428 530 428 530 429 500 c 256,115,116
 429 470 429 470 407 449 c 256,117,118
 386 428 386 428 357 429 c 1,119,-1
 357 429 l 1,103,104
643 429 m 1,120,121
 613 429 613 429 592 449 c 256,122,123
 571 470 571 470 571 500 c 256,124,125
 571 530 571 530 592 551 c 256,126,127
 613 572 613 572 643 571 c 0,128,129
 672 571 672 571 694 551 c 0,130,131
 715 530 715 530 714 500 c 256,132,133
 714 470 714 470 694 449 c 0,134,135
 673 428 673 428 643 429 c 1,136,-1
 643 429 l 1,120,121
214 571 m 2,137,138
 184 571 184 571 164 592 c 256,139,140
 143 613 143 613 143 643 c 0,141,142
 143 672 143 672 164 694 c 0,143,144
 185 715 185 715 214 714 c 2,145,-1
 357 714 l 2,146,147
 386 714 386 714 407 694 c 0,148,149
 428 673 428 673 429 643 c 0,150,151
 429 613 429 613 407 592 c 256,152,153
 386 571 386 571 357 571 c 2,154,-1
 214 571 l 2,137,138
643 571 m 1,155,156
 613 571 613 571 592 592 c 256,157,158
 571 613 571 613 571 643 c 0,159,160
 571 672 571 672 592 694 c 0,161,162
 613 715 613 715 643 714 c 0,163,164
 672 714 672 714 694 694 c 0,165,166
 715 673 715 673 714 643 c 0,167,168
 714 613 714 613 694 592 c 0,169,170
 673 571 673 571 643 571 c 1,171,-1
 643 571 l 1,155,156
EndSplineSet
Validated: 37
EndChar

StartChar: q
Encoding: 113 113 68
Width: 999
VWidth: 714
Flags: W
LayerCount: 2
Fore
SplineSet
71 0 m 2,0,1
 42 0 42 0 21 21 c 0,2,3
 0 42 0 42 0 71 c 0,4,5
 0 101 0 101 21 121 c 0,6,7
 42 142 42 142 71 143 c 2,8,-1
 500 143 l 2,9,10
 530 143 530 143 551 121 c 256,11,12
 572 100 572 100 571 71 c 0,13,14
 571 42 571 42 551 21 c 0,15,16
 530 0 530 0 500 0 c 2,17,-1
 71 0 l 2,0,1
71 143 m 1,18,19
 42 143 42 143 21 164 c 0,20,21
 0 185 0 185 0 214 c 256,22,23
 0 244 0 244 21 265 c 0,24,25
 42 286 42 286 71 286 c 0,26,27
 101 286 101 286 121 265 c 256,28,29
 142 244 142 244 143 214 c 256,30,31
 143 184 143 184 121 164 c 256,32,33
 100 143 100 143 71 143 c 1,34,-1
 71 143 l 1,18,19
71 286 m 1,35,36
 42 286 42 286 21 306 c 0,37,38
 0 327 0 327 0 357 c 0,39,40
 0 386 0 386 21 407 c 0,41,42
 42 428 42 428 71 429 c 0,43,44
 101 429 101 429 121 407 c 256,45,46
 142 386 142 386 143 357 c 0,47,48
 143 327 143 327 121 306 c 256,49,50
 100 285 100 285 71 286 c 1,51,-1
 71 286 l 1,35,36
786 286 m 1,52,53
 757 286 757 286 735 306 c 0,54,55
 714 327 714 327 714 357 c 0,56,57
 714 386 714 386 735 407 c 0,58,59
 756 428 756 428 786 429 c 0,60,61
 816 429 816 429 836 407 c 256,62,63
 857 386 857 386 857 357 c 0,64,65
 857 327 857 327 836 306 c 256,66,67
 815 285 815 285 786 286 c 1,68,-1
 786 286 l 1,52,53
71 429 m 1,69,70
 42 429 42 429 21 449 c 0,71,72
 0 470 0 470 0 500 c 256,73,74
 0 530 0 530 21 551 c 0,75,76
 42 572 42 572 71 571 c 0,77,78
 101 571 101 571 121 551 c 256,79,80
 142 530 142 530 143 500 c 256,81,82
 143 470 143 470 121 449 c 256,83,84
 100 428 100 428 71 429 c 1,85,-1
 71 429 l 1,69,70
786 429 m 1,86,87
 757 429 757 429 735 449 c 0,88,89
 714 470 714 470 714 500 c 256,90,91
 714 530 714 530 735 551 c 0,92,93
 756 572 756 572 786 571 c 0,94,95
 816 571 816 571 836 551 c 256,96,97
 857 530 857 530 857 500 c 256,98,99
 857 470 857 470 836 449 c 256,100,101
 815 428 815 428 786 429 c 1,102,-1
 786 429 l 1,86,87
71 571 m 2,103,104
 42 571 42 571 21 592 c 0,105,106
 0 613 0 613 0 643 c 0,107,108
 0 672 0 672 21 694 c 0,109,110
 42 715 42 715 71 714 c 2,111,-1
 786 714 l 2,112,113
 816 714 816 714 836 694 c 0,114,115
 857 673 857 673 857 643 c 0,116,117
 857 613 857 613 836 592 c 256,118,119
 815 571 815 571 786 571 c 2,120,-1
 71 571 l 2,103,104
EndSplineSet
Validated: 37
EndChar

StartChar: r
Encoding: 114 114 69
Width: 999
VWidth: 714
Flags: W
LayerCount: 2
Fore
SplineSet
357 0 m 1,0,1
 327 0 327 0 306 21 c 0,2,3
 285 42 285 42 286 71 c 0,4,5
 286 101 286 101 306 121 c 256,6,7
 327 142 327 142 357 143 c 0,8,9
 386 143 386 143 407 121 c 256,10,11
 428 100 428 100 429 71 c 0,12,13
 429 42 429 42 407 21 c 0,14,15
 386 0 386 0 357 0 c 1,16,-1
 357 0 l 1,0,1
357 143 m 1,17,18
 327 143 327 143 306 164 c 256,19,20
 285 185 285 185 286 214 c 256,21,22
 286 244 286 244 306 265 c 256,23,24
 327 286 327 286 357 286 c 0,25,26
 386 286 386 286 407 265 c 256,27,28
 428 244 428 244 429 214 c 256,29,30
 429 184 429 184 407 164 c 256,31,32
 386 143 386 143 357 143 c 1,33,-1
 357 143 l 1,17,18
500 286 m 1,34,35
 470 286 470 286 449 306 c 256,36,37
 428 327 428 327 429 357 c 0,38,39
 429 386 429 386 449 407 c 256,40,41
 470 428 470 428 500 429 c 256,42,43
 530 429 530 429 551 407 c 256,44,45
 572 386 572 386 571 357 c 0,46,47
 571 327 571 327 551 306 c 256,48,49
 530 285 530 285 500 286 c 1,50,-1
 500 286 l 1,34,35
643 429 m 1,51,52
 613 429 613 429 592 449 c 256,53,54
 571 470 571 470 571 500 c 256,55,56
 571 530 571 530 592 551 c 256,57,58
 613 572 613 572 643 571 c 0,59,60
 672 571 672 571 694 551 c 0,61,62
 715 530 715 530 714 500 c 256,63,64
 714 470 714 470 694 449 c 0,65,66
 673 428 673 428 643 429 c 1,67,-1
 643 429 l 1,51,52
71 571 m 2,68,69
 42 571 42 571 21 592 c 0,70,71
 0 613 0 613 0 643 c 0,72,73
 0 672 0 672 21 694 c 0,74,75
 42 715 42 715 71 714 c 2,76,-1
 786 714 l 2,77,78
 816 714 816 714 836 694 c 0,79,80
 857 673 857 673 857 643 c 0,81,82
 857 613 857 613 836 592 c 256,83,84
 815 571 815 571 786 571 c 2,85,-1
 71 571 l 2,68,69
EndSplineSet
Validated: 37
EndChar

StartChar: s
Encoding: 115 115 70
Width: 999
VWidth: 714
Flags: W
LayerCount: 2
Fore
SplineSet
500 0 m 1,0,1
 470 0 470 0 449 21 c 0,2,3
 428 42 428 42 429 71 c 0,4,5
 429 101 429 101 449 121 c 256,6,7
 470 142 470 142 500 143 c 256,8,9
 530 143 530 143 551 121 c 256,10,11
 572 100 572 100 571 71 c 0,12,13
 571 42 571 42 551 21 c 0,14,15
 530 0 530 0 500 0 c 1,16,-1
 500 0 l 1,0,1
786 0 m 1,17,18
 757 0 757 0 735 21 c 0,19,20
 714 42 714 42 714 71 c 0,21,22
 714 101 714 101 735 121 c 0,23,24
 756 142 756 142 786 143 c 0,25,26
 816 143 816 143 836 121 c 256,27,28
 857 100 857 100 857 71 c 0,29,30
 857 42 857 42 836 21 c 0,31,32
 815 0 815 0 786 0 c 1,33,-1
 786 0 l 1,17,18
214 143 m 2,34,35
 184 143 184 143 164 164 c 256,36,37
 143 185 143 185 143 214 c 256,38,39
 143 244 143 244 164 265 c 256,40,41
 185 286 185 286 214 286 c 2,42,-1
 357 286 l 2,43,44
 386 286 386 286 407 265 c 256,45,46
 428 244 428 244 429 214 c 256,47,48
 429 184 429 184 407 164 c 256,49,50
 386 143 386 143 357 143 c 2,51,-1
 214 143 l 2,34,35
786 143 m 1,52,53
 757 143 757 143 735 164 c 0,54,55
 714 185 714 185 714 214 c 256,56,57
 714 244 714 244 735 265 c 0,58,59
 756 286 756 286 786 286 c 0,60,61
 816 286 816 286 836 265 c 256,62,63
 857 244 857 244 857 214 c 256,64,65
 857 184 857 184 836 164 c 256,66,67
 815 143 815 143 786 143 c 1,68,-1
 786 143 l 1,52,53
643 286 m 2,69,70
 613 286 613 286 592 306 c 256,71,72
 571 327 571 327 571 357 c 0,73,74
 571 386 571 386 592 407 c 256,75,76
 613 428 613 428 643 429 c 2,77,-1
 786 429 l 2,78,79
 816 429 816 429 836 407 c 256,80,81
 857 386 857 386 857 357 c 0,82,83
 857 327 857 327 836 306 c 256,84,85
 815 285 815 285 786 286 c 2,86,-1
 643 286 l 2,69,70
357 429 m 2,87,88
 327 429 327 429 306 449 c 256,89,90
 285 470 285 470 286 500 c 256,91,92
 286 530 286 530 306 551 c 256,93,94
 327 572 327 572 357 571 c 2,95,-1
 500 571 l 2,96,97
 530 571 530 571 551 551 c 256,98,99
 572 530 572 530 571 500 c 256,100,101
 571 470 571 470 551 449 c 256,102,103
 530 428 530 428 500 429 c 2,104,-1
 357 429 l 2,87,88
786 429 m 1,105,106
 757 429 757 429 735 449 c 0,107,108
 714 470 714 470 714 500 c 256,109,110
 714 530 714 530 735 551 c 0,111,112
 756 572 756 572 786 571 c 0,113,114
 816 571 816 571 836 551 c 256,115,116
 857 530 857 530 857 500 c 256,117,118
 857 470 857 470 836 449 c 256,119,120
 815 428 815 428 786 429 c 1,121,-1
 786 429 l 1,105,106
71 571 m 2,122,123
 42 571 42 571 21 592 c 0,124,125
 0 613 0 613 0 643 c 0,126,127
 0 672 0 672 21 694 c 0,128,129
 42 715 42 715 71 714 c 2,130,-1
 214 714 l 2,131,132
 244 714 244 714 265 694 c 0,133,134
 286 673 286 673 286 643 c 0,135,136
 286 613 286 613 265 592 c 256,137,138
 244 571 244 571 214 571 c 2,139,-1
 71 571 l 2,122,123
786 571 m 1,140,141
 757 571 757 571 735 592 c 0,142,143
 714 613 714 613 714 643 c 0,144,145
 714 672 714 672 735 694 c 0,146,147
 756 715 756 715 786 714 c 0,148,149
 816 714 816 714 836 694 c 0,150,151
 857 673 857 673 857 643 c 0,152,153
 857 613 857 613 836 592 c 256,154,155
 815 571 815 571 786 571 c 1,156,-1
 786 571 l 1,140,141
EndSplineSet
Validated: 37
EndChar

StartChar: t
Encoding: 116 116 71
Width: 999
VWidth: 714
Flags: W
LayerCount: 2
Fore
SplineSet
214 0 m 2,0,1
 184 0 184 0 164 21 c 0,2,3
 143 42 143 42 143 71 c 0,4,5
 143 101 143 101 164 121 c 256,6,7
 185 142 185 142 214 143 c 2,8,-1
 500 143 l 2,9,10
 530 143 530 143 551 121 c 256,11,12
 572 100 572 100 571 71 c 0,13,14
 571 42 571 42 551 21 c 0,15,16
 530 0 530 0 500 0 c 2,17,-1
 214 0 l 2,0,1
71 143 m 1,18,19
 42 143 42 143 21 164 c 0,20,21
 0 185 0 185 0 214 c 256,22,23
 0 244 0 244 21 265 c 0,24,25
 42 286 42 286 71 286 c 0,26,27
 101 286 101 286 121 265 c 256,28,29
 142 244 142 244 143 214 c 256,30,31
 143 184 143 184 121 164 c 256,32,33
 100 143 100 143 71 143 c 1,34,-1
 71 143 l 1,18,19
357 143 m 1,35,36
 327 143 327 143 306 164 c 256,37,38
 285 185 285 185 286 214 c 256,39,40
 286 244 286 244 306 265 c 256,41,42
 327 286 327 286 357 286 c 0,43,44
 386 286 386 286 407 265 c 256,45,46
 428 244 428 244 429 214 c 256,47,48
 429 184 429 184 407 164 c 256,49,50
 386 143 386 143 357 143 c 1,51,-1
 357 143 l 1,35,36
643 143 m 1,52,53
 613 143 613 143 592 164 c 256,54,55
 571 185 571 185 571 214 c 256,56,57
 571 244 571 244 592 265 c 256,58,59
 613 286 613 286 643 286 c 0,60,61
 672 286 672 286 694 265 c 0,62,63
 715 244 715 244 714 214 c 256,64,65
 714 184 714 184 694 164 c 0,66,67
 673 143 673 143 643 143 c 1,68,-1
 643 143 l 1,52,53
357 286 m 1,69,70
 327 286 327 286 306 306 c 256,71,72
 285 327 285 327 286 357 c 0,73,74
 286 386 286 386 306 407 c 256,75,76
 327 428 327 428 357 429 c 0,77,78
 386 429 386 429 407 407 c 256,79,80
 428 386 428 386 429 357 c 0,81,82
 429 327 429 327 407 306 c 256,83,84
 386 285 386 285 357 286 c 1,85,-1
 357 286 l 1,69,70
357 429 m 1,86,87
 327 429 327 429 306 449 c 256,88,89
 285 470 285 470 286 500 c 256,90,91
 286 530 286 530 306 551 c 256,92,93
 327 572 327 572 357 571 c 0,94,95
 386 571 386 571 407 551 c 256,96,97
 428 530 428 530 429 500 c 256,98,99
 429 470 429 470 407 449 c 256,100,101
 386 428 386 428 357 429 c 1,102,-1
 357 429 l 1,86,87
357 571 m 1,103,104
 327 571 327 571 306 592 c 256,105,106
 285 613 285 613 286 643 c 0,107,108
 286 672 286 672 306 694 c 0,109,110
 327 715 327 715 357 714 c 0,111,112
 386 714 386 714 407 694 c 0,113,114
 428 673 428 673 429 643 c 0,115,116
 429 613 429 613 407 592 c 256,117,118
 386 571 386 571 357 571 c 1,119,-1
 357 571 l 1,103,104
EndSplineSet
Validated: 37
EndChar

StartChar: u
Encoding: 117 117 72
Width: 999
VWidth: 714
Flags: W
LayerCount: 2
Fore
SplineSet
71 0 m 2,0,1
 42 0 42 0 21 21 c 0,2,3
 0 42 0 42 0 71 c 0,4,5
 0 101 0 101 21 121 c 0,6,7
 42 142 42 142 71 143 c 2,8,-1
 786 143 l 2,9,10
 816 143 816 143 836 121 c 256,11,12
 857 100 857 100 857 71 c 0,13,14
 857 42 857 42 836 21 c 0,15,16
 815 0 815 0 786 0 c 2,17,-1
 71 0 l 2,0,1
71 143 m 1,18,19
 42 143 42 143 21 164 c 0,20,21
 0 185 0 185 0 214 c 256,22,23
 0 244 0 244 21 265 c 0,24,25
 42 286 42 286 71 286 c 0,26,27
 101 286 101 286 121 265 c 256,28,29
 142 244 142 244 143 214 c 256,30,31
 143 184 143 184 121 164 c 256,32,33
 100 143 100 143 71 143 c 1,34,-1
 71 143 l 1,18,19
786 143 m 1,35,36
 757 143 757 143 735 164 c 0,37,38
 714 185 714 185 714 214 c 256,39,40
 714 244 714 244 735 265 c 0,41,42
 756 286 756 286 786 286 c 0,43,44
 816 286 816 286 836 265 c 256,45,46
 857 244 857 244 857 214 c 256,47,48
 857 184 857 184 836 164 c 256,49,50
 815 143 815 143 786 143 c 1,51,-1
 786 143 l 1,35,36
71 286 m 1,52,53
 42 286 42 286 21 306 c 0,54,55
 0 327 0 327 0 357 c 0,56,57
 0 386 0 386 21 407 c 0,58,59
 42 428 42 428 71 429 c 0,60,61
 101 429 101 429 121 407 c 256,62,63
 142 386 142 386 143 357 c 0,64,65
 143 327 143 327 121 306 c 256,66,67
 100 285 100 285 71 286 c 1,68,-1
 71 286 l 1,52,53
786 286 m 1,69,70
 757 286 757 286 735 306 c 0,71,72
 714 327 714 327 714 357 c 0,73,74
 714 386 714 386 735 407 c 0,75,76
 756 428 756 428 786 429 c 0,77,78
 816 429 816 429 836 407 c 256,79,80
 857 386 857 386 857 357 c 0,81,82
 857 327 857 327 836 306 c 256,83,84
 815 285 815 285 786 286 c 1,85,-1
 786 286 l 1,69,70
71 429 m 1,86,87
 42 429 42 429 21 449 c 0,88,89
 0 470 0 470 0 500 c 256,90,91
 0 530 0 530 21 551 c 0,92,93
 42 572 42 572 71 571 c 0,94,95
 101 571 101 571 121 551 c 256,96,97
 142 530 142 530 143 500 c 256,98,99
 143 470 143 470 121 449 c 256,100,101
 100 428 100 428 71 429 c 1,102,-1
 71 429 l 1,86,87
357 429 m 1,103,104
 327 429 327 429 306 449 c 256,105,106
 285 470 285 470 286 500 c 256,107,108
 286 530 286 530 306 551 c 256,109,110
 327 572 327 572 357 571 c 0,111,112
 386 571 386 571 407 551 c 256,113,114
 428 530 428 530 429 500 c 256,115,116
 429 470 429 470 407 449 c 256,117,118
 386 428 386 428 357 429 c 1,119,-1
 357 429 l 1,103,104
786 429 m 1,120,121
 757 429 757 429 735 449 c 0,122,123
 714 470 714 470 714 500 c 256,124,125
 714 530 714 530 735 551 c 0,126,127
 756 572 756 572 786 571 c 0,128,129
 816 571 816 571 836 551 c 256,130,131
 857 530 857 530 857 500 c 256,132,133
 857 470 857 470 836 449 c 256,134,135
 815 428 815 428 786 429 c 1,136,-1
 786 429 l 1,120,121
71 571 m 1,137,138
 42 571 42 571 21 592 c 0,139,140
 0 613 0 613 0 643 c 0,141,142
 0 672 0 672 21 694 c 0,143,144
 42 715 42 715 71 714 c 0,145,146
 101 714 101 714 121 694 c 0,147,148
 142 673 142 673 143 643 c 0,149,150
 143 613 143 613 121 592 c 256,151,152
 100 571 100 571 71 571 c 1,153,-1
 71 571 l 1,137,138
500 571 m 2,154,155
 470 571 470 571 449 592 c 256,156,157
 428 613 428 613 429 643 c 0,158,159
 429 672 429 672 449 694 c 0,160,161
 470 715 470 715 500 714 c 2,162,-1
 786 714 l 2,163,164
 816 714 816 714 836 694 c 0,165,166
 857 673 857 673 857 643 c 0,167,168
 857 613 857 613 836 592 c 256,169,170
 815 571 815 571 786 571 c 2,171,-1
 500 571 l 2,154,155
EndSplineSet
Validated: 37
EndChar

StartChar: v
Encoding: 118 118 73
Width: 999
VWidth: 714
Flags: W
LayerCount: 2
Fore
SplineSet
357 0 m 1,0,1
 327 0 327 0 306 21 c 0,2,3
 285 42 285 42 286 71 c 0,4,5
 286 101 286 101 306 121 c 256,6,7
 327 142 327 142 357 143 c 0,8,9
 386 143 386 143 407 121 c 256,10,11
 428 100 428 100 429 71 c 0,12,13
 429 42 429 42 407 21 c 0,14,15
 386 0 386 0 357 0 c 1,16,-1
 357 0 l 1,0,1
357 143 m 1,17,18
 327 143 327 143 306 164 c 256,19,20
 285 185 285 185 286 214 c 256,21,22
 286 244 286 244 306 265 c 256,23,24
 327 286 327 286 357 286 c 0,25,26
 386 286 386 286 407 265 c 256,27,28
 428 244 428 244 429 214 c 256,29,30
 429 184 429 184 407 164 c 256,31,32
 386 143 386 143 357 143 c 1,33,-1
 357 143 l 1,17,18
357 286 m 1,34,35
 327 286 327 286 306 306 c 256,36,37
 285 327 285 327 286 357 c 0,38,39
 286 386 286 386 306 407 c 256,40,41
 327 428 327 428 357 429 c 0,42,43
 386 429 386 429 407 407 c 256,44,45
 428 386 428 386 429 357 c 0,46,47
 429 327 429 327 407 306 c 256,48,49
 386 285 386 285 357 286 c 1,50,-1
 357 286 l 1,34,35
214 429 m 1,51,52
 184 429 184 429 164 449 c 256,53,54
 143 470 143 470 143 500 c 256,55,56
 143 530 143 530 164 551 c 256,57,58
 185 572 185 572 214 571 c 256,59,60
 244 571 244 571 265 551 c 256,61,62
 286 530 286 530 286 500 c 256,63,64
 286 470 286 470 265 449 c 256,65,66
 244 428 244 428 214 429 c 1,67,-1
 214 429 l 1,51,52
500 429 m 1,68,69
 470 429 470 429 449 449 c 256,70,71
 428 470 428 470 429 500 c 256,72,73
 429 530 429 530 449 551 c 256,74,75
 470 572 470 572 500 571 c 256,76,77
 530 571 530 571 551 551 c 256,78,79
 572 530 572 530 571 500 c 256,80,81
 571 470 571 470 551 449 c 256,82,83
 530 428 530 428 500 429 c 1,84,-1
 500 429 l 1,68,69
71 571 m 1,85,86
 42 571 42 571 21 592 c 0,87,88
 0 613 0 613 0 643 c 0,89,90
 0 672 0 672 21 694 c 0,91,92
 42 715 42 715 71 714 c 0,93,94
 101 714 101 714 121 694 c 0,95,96
 142 673 142 673 143 643 c 0,97,98
 143 613 143 613 121 592 c 256,99,100
 100 571 100 571 71 571 c 1,101,-1
 71 571 l 1,85,86
643 571 m 1,102,103
 613 571 613 571 592 592 c 256,104,105
 571 613 571 613 571 643 c 0,106,107
 571 672 571 672 592 694 c 0,108,109
 613 715 613 715 643 714 c 0,110,111
 672 714 672 714 694 694 c 0,112,113
 715 673 715 673 714 643 c 0,114,115
 714 613 714 613 694 592 c 0,116,117
 673 571 673 571 643 571 c 1,118,-1
 643 571 l 1,102,103
EndSplineSet
Validated: 37
EndChar

StartChar: w
Encoding: 119 119 74
Width: 999
VWidth: 714
Flags: W
LayerCount: 2
Fore
SplineSet
71 0 m 2,0,1
 42 0 42 0 21 21 c 0,2,3
 0 42 0 42 0 71 c 0,4,5
 0 101 0 101 21 121 c 0,6,7
 42 142 42 142 71 143 c 2,8,-1
 786 143 l 2,9,10
 816 143 816 143 836 121 c 256,11,12
 857 100 857 100 857 71 c 0,13,14
 857 42 857 42 836 21 c 0,15,16
 815 0 815 0 786 0 c 2,17,-1
 71 0 l 2,0,1
71 143 m 1,18,19
 42 143 42 143 21 164 c 0,20,21
 0 185 0 185 0 214 c 256,22,23
 0 244 0 244 21 265 c 0,24,25
 42 286 42 286 71 286 c 0,26,27
 101 286 101 286 121 265 c 256,28,29
 142 244 142 244 143 214 c 256,30,31
 143 184 143 184 121 164 c 256,32,33
 100 143 100 143 71 143 c 1,34,-1
 71 143 l 1,18,19
786 143 m 1,35,36
 757 143 757 143 735 164 c 0,37,38
 714 185 714 185 714 214 c 256,39,40
 714 244 714 244 735 265 c 0,41,42
 756 286 756 286 786 286 c 0,43,44
 816 286 816 286 836 265 c 256,45,46
 857 244 857 244 857 214 c 256,47,48
 857 184 857 184 836 164 c 256,49,50
 815 143 815 143 786 143 c 1,51,-1
 786 143 l 1,35,36
71 286 m 1,52,53
 42 286 42 286 21 306 c 0,54,55
 0 327 0 327 0 357 c 0,56,57
 0 386 0 386 21 407 c 0,58,59
 42 428 42 428 71 429 c 0,60,61
 101 429 101 429 121 407 c 256,62,63
 142 386 142 386 143 357 c 0,64,65
 143 327 143 327 121 306 c 256,66,67
 100 285 100 285 71 286 c 1,68,-1
 71 286 l 1,52,53
786 286 m 1,69,70
 757 286 757 286 735 306 c 0,71,72
 714 327 714 327 714 357 c 0,73,74
 714 386 714 386 735 407 c 0,75,76
 756 428 756 428 786 429 c 0,77,78
 816 429 816 429 836 407 c 256,79,80
 857 386 857 386 857 357 c 0,81,82
 857 327 857 327 836 306 c 256,83,84
 815 285 815 285 786 286 c 1,85,-1
 786 286 l 1,69,70
71 429 m 1,86,87
 42 429 42 429 21 449 c 0,88,89
 0 470 0 470 0 500 c 256,90,91
 0 530 0 530 21 551 c 0,92,93
 42 572 42 572 71 571 c 0,94,95
 101 571 101 571 121 551 c 256,96,97
 142 530 142 530 143 500 c 256,98,99
 143 470 143 470 121 449 c 256,100,101
 100 428 100 428 71 429 c 1,102,-1
 71 429 l 1,86,87
786 429 m 1,103,104
 757 429 757 429 735 449 c 0,105,106
 714 470 714 470 714 500 c 256,107,108
 714 530 714 530 735 551 c 0,109,110
 756 572 756 572 786 571 c 0,111,112
 816 571 816 571 836 551 c 256,113,114
 857 530 857 530 857 500 c 256,115,116
 857 470 857 470 836 449 c 256,117,118
 815 428 815 428 786 429 c 1,119,-1
 786 429 l 1,103,104
71 571 m 2,120,121
 42 571 42 571 21 592 c 0,122,123
 0 613 0 613 0 643 c 0,124,125
 0 672 0 672 21 694 c 0,126,127
 42 715 42 715 71 714 c 2,128,-1
 786 714 l 2,129,130
 816 714 816 714 836 694 c 0,131,132
 857 673 857 673 857 643 c 0,133,134
 857 613 857 613 836 592 c 256,135,136
 815 571 815 571 786 571 c 2,137,-1
 71 571 l 2,120,121
EndSplineSet
Validated: 37
EndChar

StartChar: x
Encoding: 120 120 75
Width: 999
VWidth: 714
Flags: W
LayerCount: 2
Fore
SplineSet
71 0 m 2,0,1
 42 0 42 0 21 21 c 0,2,3
 0 42 0 42 0 71 c 0,4,5
 0 101 0 101 21 121 c 0,6,7
 42 142 42 142 71 143 c 2,8,-1
 643 143 l 2,9,10
 672 143 672 143 694 121 c 0,11,12
 715 100 715 100 714 71 c 0,13,14
 714 42 714 42 694 21 c 0,15,16
 673 0 673 0 643 0 c 2,17,-1
 71 0 l 2,0,1
71 143 m 1,18,19
 42 143 42 143 21 164 c 0,20,21
 0 185 0 185 0 214 c 256,22,23
 0 244 0 244 21 265 c 0,24,25
 42 286 42 286 71 286 c 0,26,27
 101 286 101 286 121 265 c 256,28,29
 142 244 142 244 143 214 c 256,30,31
 143 184 143 184 121 164 c 256,32,33
 100 143 100 143 71 143 c 1,34,-1
 71 143 l 1,18,19
643 143 m 1,35,36
 613 143 613 143 592 164 c 256,37,38
 571 185 571 185 571 214 c 256,39,40
 571 244 571 244 592 265 c 256,41,42
 613 286 613 286 643 286 c 0,43,44
 672 286 672 286 694 265 c 0,45,46
 715 244 715 244 714 214 c 256,47,48
 714 184 714 184 694 164 c 0,49,50
 673 143 673 143 643 143 c 1,51,-1
 643 143 l 1,35,36
214 286 m 1,52,53
 184 286 184 286 164 306 c 256,54,55
 143 327 143 327 143 357 c 0,56,57
 143 386 143 386 164 407 c 256,58,59
 185 428 185 428 214 429 c 256,60,61
 244 429 244 429 265 407 c 256,62,63
 286 386 286 386 286 357 c 0,64,65
 286 327 286 327 265 306 c 256,66,67
 244 285 244 285 214 286 c 1,68,-1
 214 286 l 1,52,53
500 286 m 1,69,70
 470 286 470 286 449 306 c 256,71,72
 428 327 428 327 429 357 c 0,73,74
 429 386 429 386 449 407 c 256,75,76
 470 428 470 428 500 429 c 256,77,78
 530 429 530 429 551 407 c 256,79,80
 572 386 572 386 571 357 c 0,81,82
 571 327 571 327 551 306 c 256,83,84
 530 285 530 285 500 286 c 1,85,-1
 500 286 l 1,69,70
357 429 m 1,86,87
 327 429 327 429 306 449 c 256,88,89
 285 470 285 470 286 500 c 256,90,91
 286 530 286 530 306 551 c 256,92,93
 327 572 327 572 357 571 c 0,94,95
 386 571 386 571 407 551 c 256,96,97
 428 530 428 530 429 500 c 256,98,99
 429 470 429 470 407 449 c 256,100,101
 386 428 386 428 357 429 c 1,102,-1
 357 429 l 1,86,87
357 571 m 1,103,104
 327 571 327 571 306 592 c 256,105,106
 285 613 285 613 286 643 c 0,107,108
 286 672 286 672 306 694 c 0,109,110
 327 715 327 715 357 714 c 0,111,112
 386 714 386 714 407 694 c 0,113,114
 428 673 428 673 429 643 c 0,115,116
 429 613 429 613 407 592 c 256,117,118
 386 571 386 571 357 571 c 1,119,-1
 357 571 l 1,103,104
EndSplineSet
Validated: 37
EndChar

